<svg width="80" height="80" viewBox="0 0 80 80" fill="none" xmlns="http://www.w3.org/2000/svg">
<path d="M65.214 24.7799C65.0554 24.6848 64.8651 24.6848 64.7065 24.7799C64.7065 24.7799 63.4062 25.5728 62.3596 25.4777C61.5032 25.3825 61.0909 25.1288 59.7272 23.8602C58.1731 22.433 55.6993 22.7184 54.4306 23.8602C53.606 24.6213 53.1937 25.7948 53.3206 27C53.3206 27.2855 53.606 27.4758 53.8597 27.4441C54.1452 27.4441 54.3355 27.1586 54.3038 26.9049C54.2086 26.0168 54.5258 25.1605 55.0967 24.6213C56.0164 23.765 57.9194 23.5747 59.0294 24.6213C60.4566 25.9534 61.0909 26.3657 62.2327 26.4926C62.9622 26.556 63.6916 26.3657 64.2625 26.1437C64.1674 26.4609 64.0405 26.8732 63.8502 27.2855C63.1842 28.7444 62.1693 29.7593 60.8055 30.2985C58.2682 31.3134 56.0164 30.1716 54.9064 28.5541C54.7478 28.3321 54.4306 28.2687 54.2086 28.4272C53.9866 28.5858 53.9232 28.903 54.0817 29.125C54.7795 30.1399 55.7944 30.9011 56.9362 31.3451C57.5705 31.5671 58.2048 31.694 58.8708 31.694C59.632 31.694 60.3932 31.5354 61.1544 31.2499C62.7402 30.6156 63.9771 29.3787 64.7383 27.6978C65.3091 26.4291 65.4043 25.3825 65.4043 25.3191C65.4043 25.1288 65.3409 24.9385 65.1823 24.8434L65.214 24.7799Z" fill="#0E8388"/>
<path d="M51.3542 16.0257C50.4027 16.0257 49.6098 16.8186 49.6098 17.7701C49.6098 18.7215 50.4027 19.5144 51.3542 19.5144C52.3057 19.5144 53.0986 18.7215 53.0986 17.7701C53.0986 16.8186 52.3057 16.0257 51.3542 16.0257ZM51.3542 18.4995C50.9419 18.4995 50.6247 18.1507 50.6247 17.7701C50.6247 17.3895 50.9736 17.0406 51.3542 17.0406C51.7348 17.0406 52.0837 17.3895 52.0837 17.7701C52.0837 18.1507 51.7348 18.4995 51.3542 18.4995Z" fill="#0E8388"/>
<path fill-rule="evenodd" clip-rule="evenodd" d="M71.4937 32.0742C71.1449 31.8205 70.796 31.6302 70.3837 31.4716C71.3669 30.1078 72.0329 28.5537 72.3501 27.0314C73.1112 23.0986 72.0646 21.1005 72.0012 21.0054C71.906 20.8151 71.684 20.7199 71.462 20.7517C71.24 20.7834 71.0814 20.9737 71.0814 21.1957C71.0814 21.1957 70.9863 22.4009 70.5423 23.2572C70.5423 23.3206 70.4788 23.3524 70.4788 23.3841C70.4788 23.0669 70.5423 22.718 70.5423 22.3375C70.5423 20.4979 69.6542 19.3879 69.6225 19.3244C69.4956 19.1659 69.2736 19.1024 69.0833 19.1659C68.893 19.2293 68.7662 19.4196 68.7345 19.6099C68.7345 19.6099 68.671 20.9102 68.2904 21.83C68.227 21.9886 68.1636 22.1154 68.1001 22.2423C68.1001 22.2106 68.1001 22.1472 68.1001 22.1154C68.005 21.0371 67.561 20.2125 67.561 20.1491C67.4658 19.9588 67.2438 19.8319 67.0218 19.8953C66.7998 19.9588 66.6412 20.1491 66.6412 20.3711C66.6412 20.4345 66.5778 22.0837 64.77 22.5277C62.867 23.0035 60.2663 22.7498 58.6488 18.6901C58.0779 17.2312 57.5071 16.1212 56.8727 15.2331C56.9045 15.2331 56.9362 15.1697 56.9996 15.1697C57.5071 14.8208 57.8242 14.2182 57.8876 13.6156C57.8876 13.5522 57.8876 13.457 57.8876 13.3619C57.8876 12.347 57.063 11.5224 56.0481 11.5224C55.8895 11.5224 55.731 11.5224 55.5724 11.5858C55.3187 10.888 54.6526 10.3806 53.8597 10.3806C53.4791 10.3806 53.1303 10.5075 52.8131 10.6977C52.4325 10.3172 51.8934 10 51.259 10C50.6882 10 50.149 10.2854 49.8001 10.6977C49.5147 10.5392 49.2292 10.444 48.8803 10.444C48.1192 10.444 47.4531 10.9198 47.1677 11.5858C47.0725 11.5858 47.0091 11.5858 46.914 11.5858C45.8991 11.5858 45.0745 12.4104 45.0745 13.4253C45.0745 13.901 45.2647 14.3768 45.6136 14.7257C45.8673 14.9794 46.2162 15.2331 46.5968 15.3917C46.1528 15.9626 45.8673 16.5017 45.7088 16.7872C45.6453 16.914 45.5819 17.0092 45.5502 17.1361L41.998 17.5166C41.776 17.5166 41.6174 17.7069 41.554 17.8972C41.4906 18.0875 41.5857 18.3095 41.776 18.4364L44.4401 20.1491C43.9644 21.9886 43.7107 24.3038 44.2181 26.8411C44.4401 27.9511 45.011 30.0127 46.5651 32.1059C46.0894 32.2645 45.7088 32.4548 45.3599 32.7085C45.8356 32.8354 46.2797 32.9622 46.7554 33.1208C46.9774 33.0257 47.2311 32.9305 47.5166 32.8988C47.7386 32.8671 47.9923 32.8354 48.246 32.8037C48.6266 32.8037 48.9755 32.8037 49.3244 32.8354C49.3244 32.8354 49.3561 32.8037 49.3878 32.8037C49.5464 32.6768 50.0856 32.4231 50.6882 32.4865C51.3225 32.5817 51.7665 33.0574 51.9251 33.7234C52.8131 34.2309 53.384 34.7383 53.384 34.7383C53.5426 34.8969 53.7963 34.9286 53.9866 34.7701C53.9866 34.7701 56.175 33.3111 58.0145 33.3111C58.0145 33.3111 58.0145 33.3111 58.0462 33.3111C60.0126 33.3111 60.7104 34.1357 60.7421 34.1992C60.9006 34.4212 61.1861 34.4529 61.4081 34.326C61.4081 34.326 63.1842 33.2794 65.3409 32.6768C65.5946 32.6134 65.7532 32.3279 65.6897 32.0742C65.6263 31.8205 65.3409 31.6619 65.0871 31.7253C63.311 32.2011 61.8521 32.9622 61.2178 33.3111C61.0909 33.216 60.9324 33.0891 60.7104 32.9622C59.9809 32.5817 59.0928 32.3596 58.0462 32.3596C56.3336 32.3596 54.4623 33.3428 53.7329 33.7869C52.9717 33.1525 50.7516 31.6302 48.1509 31.8205C47.9606 31.8205 47.7703 31.8522 47.6117 31.8839C46.4065 30.3933 45.5185 28.4903 45.1696 26.6825C44.3767 22.5277 45.7088 19.0073 46.5651 17.2629C46.7237 16.9458 47.0725 16.3114 47.6434 15.6771C47.7386 15.6771 47.8654 15.6771 47.9923 15.6771C48.4046 15.6771 48.8169 15.6137 49.2292 15.4551C49.3878 15.3917 49.5781 15.3283 49.7367 15.2331C49.9904 15.1062 50.0856 14.8208 49.9587 14.5671C49.8318 14.3134 49.5464 14.2182 49.2927 14.3451C49.1341 14.4085 49.0072 14.4719 48.8803 14.5354C48.4046 14.6939 47.9606 14.7257 47.5483 14.6622C47.5483 14.6622 47.5166 14.6622 47.4849 14.6622C46.9457 14.5671 46.5017 14.3134 46.3114 14.0913C46.1528 13.9328 46.0576 13.7108 46.0576 13.4887C46.0576 13.013 46.4382 12.6324 46.914 12.6324C47.0408 12.6324 47.1994 12.6641 47.2946 12.7276C47.4531 12.8227 47.6117 12.791 47.7703 12.7276C47.9289 12.6324 48.024 12.4738 48.024 12.3153C48.024 11.8712 48.4046 11.4906 48.8486 11.4906C49.1024 11.4906 49.3561 11.6175 49.5147 11.8395C49.6415 11.9981 49.8318 12.0615 50.0221 12.0298C50.2124 11.9981 50.371 11.8395 50.4027 11.6809C50.4979 11.3003 50.8467 11.0466 51.2273 11.0466C51.6713 11.0466 52.0202 11.3955 52.0519 11.8395C52.0519 12.0615 52.2422 12.2518 52.4642 12.2835C52.6862 12.3153 52.9083 12.2201 53.0034 11.9981C53.1303 11.7127 53.4474 11.5224 53.7646 11.5224C54.2403 11.5224 54.6209 11.9029 54.6209 12.3787V12.4421C54.6209 12.6324 54.7161 12.8227 54.8746 12.9179C55.0649 13.013 55.2552 12.9813 55.4138 12.8544C55.5724 12.7276 55.7627 12.6641 55.953 12.6641C56.4287 12.6641 56.8093 13.0447 56.8093 13.5205C56.8093 13.5522 56.8093 13.6156 56.8093 13.679C56.7776 14.0279 56.5873 14.3451 56.3019 14.5354C56.2067 14.5988 56.0798 14.6622 55.9213 14.6939C55.8261 14.6939 55.731 14.6939 55.6358 14.6939C55.4138 14.6305 55.1918 14.5036 54.9064 14.3134C54.3989 13.9645 53.7329 13.4887 52.6228 13.457C52.1154 13.457 51.6713 13.457 51.2273 13.5839C50.9736 13.6473 50.815 13.9328 50.8784 14.1865C50.9419 14.4402 51.2273 14.5988 51.481 14.5354C51.8299 14.4402 52.1788 14.4085 52.5911 14.4402C53.4157 14.4719 53.8914 14.8208 54.3672 15.138C54.6843 15.36 55.0332 15.582 55.4455 15.6771C55.5407 15.6771 55.6675 15.7088 55.7627 15.7088C56.4287 16.5335 57.0313 17.6752 57.6339 19.2293C58.4268 21.2591 59.5686 22.6546 61.0275 23.3524C62.1693 23.9232 63.5331 24.0184 64.9286 23.6695C65.9752 23.4158 66.6412 22.8132 67.0218 22.1789C67.0218 22.2423 67.0218 22.3057 67.0218 22.3692C67.0852 23.2255 67.0218 23.6378 67.0218 23.6695C66.9584 23.8598 67.0218 24.0818 67.2121 24.2087C67.4024 24.3355 67.6244 24.3038 67.783 24.2087C67.8147 24.2087 68.671 23.5427 69.1468 22.3692C69.2419 22.1154 69.3371 21.83 69.4005 21.5763C69.4639 21.83 69.4956 22.1472 69.4956 22.4643C69.4956 24.0184 69.1785 24.8747 69.1785 24.8747C69.115 25.065 69.1785 25.287 69.3371 25.4139C69.4956 25.5407 69.7176 25.5725 69.9079 25.4456C69.9397 25.4456 70.8594 24.8747 71.3986 23.7964C71.462 23.6695 71.5254 23.5427 71.5889 23.3841C71.684 24.2404 71.6523 25.4139 71.3669 26.9045C71.0814 28.3952 70.352 29.9492 69.3371 31.2813C68.7027 31.1862 67.9733 31.2179 67.1487 31.3447C66.8632 31.3765 66.7046 31.6302 66.7364 31.9156C66.7681 32.2011 67.0218 32.3596 67.3072 32.3279C68.9248 32.0742 70.0348 32.2645 70.8911 32.9305C71.3669 33.3111 71.7157 33.8186 71.906 34.326C70.9228 33.6917 69.9079 33.7551 69.8445 33.7551C69.6542 33.7551 69.4956 33.882 69.4005 34.0723C69.3371 34.2626 69.3688 34.4529 69.4956 34.5798C69.7811 34.8969 70.4788 35.8801 70.5423 36.7999C70.5423 37.1487 70.5105 37.4659 70.4154 37.6879C70.352 37.4025 70.2885 37.0853 70.1617 36.8316C69.6859 35.7215 68.3539 35.0238 68.2904 34.9921C68.1001 34.8969 67.8781 34.9286 67.7513 35.0555C67.6244 35.1824 67.5293 35.4044 67.5927 35.5947C67.5927 35.5947 68.0367 36.9267 67.9416 37.8148C67.8781 38.2588 67.7195 38.7028 67.4975 39.0834C67.4975 38.9248 67.4341 38.7345 67.4024 38.5759C67.0852 37.117 65.658 36.2924 65.5946 36.2607C65.4677 36.1655 65.2774 36.1655 65.1189 36.2607C64.9603 36.3241 64.8651 36.4827 64.8334 36.6413C64.77 37.117 64.5162 38.4491 64.326 38.8931C64.1039 39.4323 63.7551 39.8446 63.4379 40.13C63.4379 39.8446 63.4379 39.5274 63.3428 39.1785C63.1208 37.6245 61.8204 37.4025 61.757 37.4025C61.6301 37.4025 61.4715 37.4025 61.3764 37.4976C61.2812 37.5928 61.1861 37.7196 61.1861 37.8465C61.1861 37.8465 61.0909 38.7028 60.5518 39.464C60.298 39.8129 59.9492 40.0983 59.632 40.3203C59.632 40.13 59.632 39.908 59.632 39.7494C59.632 39.5591 59.5052 39.3688 59.41 39.1785C59.1563 39.464 58.9025 39.7177 58.6488 39.9714C58.6805 40.3837 58.6171 40.9546 58.5854 41.1449C58.5854 41.3352 58.6171 41.4938 58.7757 41.6207C58.9343 41.7475 59.1246 41.7475 59.2831 41.6841C59.3466 41.6841 60.6469 41.0815 61.3764 40.0349C61.7253 39.5274 61.9473 39.02 62.0741 38.6077C62.2327 38.7345 62.3596 38.9565 62.423 39.3054C62.5816 40.3837 62.423 40.9864 62.423 40.9864C62.3596 41.1766 62.423 41.3669 62.5816 41.4938C62.7402 41.6207 62.9305 41.6524 63.089 41.5889C63.1525 41.5889 64.5797 40.9229 65.2774 39.3054C65.436 38.9248 65.5946 38.1954 65.6897 37.6245C66.0069 37.9099 66.3241 38.3222 66.4192 38.8297C66.5778 39.5909 66.6729 40.4789 66.6729 40.4789C66.6729 40.6692 66.8315 40.8278 66.9901 40.8912C67.1804 40.9546 67.3707 40.8912 67.5293 40.7643C67.5927 40.7009 68.7662 39.4323 68.9248 37.9416C68.9565 37.561 68.9247 37.117 68.8613 36.7047C69.0199 36.8633 69.1468 37.0536 69.2419 37.2439C69.5591 37.9416 69.5273 38.9883 69.5273 38.9883C69.5273 39.1785 69.6225 39.3371 69.7811 39.4323C69.9397 39.5274 70.1299 39.5274 70.2885 39.4323C70.352 39.4006 71.6206 38.6394 71.5254 36.7681C71.4937 36.1021 71.24 35.4678 70.9546 34.9603C71.0814 35.0238 71.24 35.0872 71.3669 35.1824C71.9695 35.5629 72.4135 36.229 72.4135 36.229C72.5403 36.4193 72.7624 36.5144 72.9844 36.4193C73.2064 36.3558 73.3332 36.1338 73.3332 35.9118C73.3332 35.8167 73.1747 33.4063 71.5254 32.1376L71.4937 32.0742ZM44.7573 19.1659L43.5204 18.373L45.1062 18.2144C44.9793 18.4998 44.8842 18.8487 44.7573 19.1659Z" fill="#0E8388"/>
<path d="M18.814 25.8574C19.0677 25.8574 19.2897 25.6353 19.2897 25.3816V24.9059C19.2897 24.9059 19.258 24.6839 19.1629 24.5887C19.0994 24.5253 19.036 24.4936 18.9408 24.4619C18.9091 24.4619 18.8457 24.4619 18.814 24.4619C18.5603 24.4619 18.3382 24.6839 18.3382 24.9376V25.4133C18.3382 25.6671 18.5603 25.8891 18.814 25.8891V25.8574Z" fill="#FDB034"/>
<path d="M25.8231 24.9376C25.8231 24.6839 26.0451 24.4619 26.2989 24.4619C26.5526 24.4619 26.7746 24.6839 26.7746 24.9376V25.4133C26.7746 25.6671 26.5526 25.8891 26.2989 25.8891C26.0451 25.8891 25.8231 25.6671 25.8231 25.4133V24.9376Z" fill="#FDB034"/>
<path fill-rule="evenodd" clip-rule="evenodd" d="M20.7803 32.5813C21.0658 32.0738 21.5732 31.7884 22.1441 31.7884H22.9687C23.5396 31.7884 24.047 32.0738 24.3325 32.5813C24.6179 33.0887 24.6179 33.6596 24.3325 34.1671L23.9202 34.8648C23.7299 35.2137 23.381 35.4674 23.0321 35.5943V36.1335C23.0321 36.3872 22.8101 36.6092 22.5564 36.6092H22.4612C22.4612 36.6092 22.2392 36.5141 22.1758 36.4506C22.1124 36.3555 22.0807 36.2603 22.0807 36.1652V35.626C21.7001 35.4991 21.3829 35.2771 21.1926 34.8965L20.7803 34.1988C20.4949 33.6913 20.4949 33.1205 20.7803 32.613V32.5813ZM23.5396 33.6913C23.6664 33.5011 23.6664 33.2473 23.5396 33.057C23.4127 32.8667 23.2224 32.7399 22.9687 32.7399H22.1441C21.9221 32.7399 21.7001 32.8667 21.5732 33.057C21.4463 33.2473 21.4463 33.5011 21.5732 33.6913L21.9855 34.3891C22.1124 34.5794 22.3027 34.7063 22.5564 34.7063C22.8101 34.7063 23.0004 34.5794 23.1273 34.3891L23.5396 33.6913Z" fill="#FDB034"/>
<path d="M24.0787 24.6204C24.3324 24.6204 24.5545 24.3984 24.5545 24.1447C24.5545 23.891 24.3324 23.669 24.0787 23.669C23.825 23.669 23.603 23.891 23.603 24.1447C23.603 24.2398 23.6347 24.3667 23.6981 24.4301C23.7933 24.5253 23.9201 24.6204 24.0787 24.6204Z" fill="#FDB034"/>
<path d="M12.7562 14.091C12.7562 14.3448 12.5342 14.5668 12.2804 14.5668C12.0267 14.5668 11.8047 14.3448 11.8047 14.091C11.8047 13.8373 12.0267 13.6153 12.2804 13.6153C12.5342 13.6153 12.7562 13.8373 12.7562 14.091Z" fill="#FDB034"/>
<path fill-rule="evenodd" clip-rule="evenodd" d="M22.5564 40.7956C21.0974 40.7956 19.8288 39.9393 19.2896 38.7341C20.7486 39.6221 22.4612 39.8442 24.047 39.4318C23.7933 39.1781 23.5078 38.9561 23.3176 38.6707C23.0638 38.7024 22.8418 38.7341 22.5564 38.7341C19.924 38.7341 17.7039 36.7994 17.2598 34.2939C19.9874 32.1689 21.6049 28.8705 21.6049 25.4135V20.0218C22.2075 20.1486 22.8418 20.1486 23.4761 20.0218V22.337C23.4761 22.5908 23.6981 22.8128 23.9519 22.8128C24.2056 22.8128 24.4276 22.5908 24.4276 22.337V19.7046C24.4276 19.7046 24.6496 19.6095 24.7765 19.546C25.5694 19.1337 26.4257 18.9117 27.3455 18.9117C30.1047 18.9751 32.3566 21.2587 32.3566 24.018C32.3566 25.7623 31.5002 27.3798 30.0096 28.363C28.7092 29.2194 27.9163 30.6466 27.9163 32.1689V33.1838C25.8548 31.376 24.6179 28.8388 24.4276 26.0795C24.4276 25.8258 24.2056 25.6355 23.9202 25.6355C23.6664 25.6355 23.4761 25.8575 23.4761 26.1429C23.6664 29.3779 25.2522 32.3592 27.8212 34.3256C27.8212 34.4525 27.7578 34.5793 27.7261 34.6745C28.0432 34.7379 28.3287 34.7696 28.6458 34.8331C28.7092 34.611 28.7727 34.389 28.7727 34.167C28.8361 33.6913 28.8044 33.057 28.8361 32.1689C28.8361 30.9637 29.4704 29.822 30.4853 29.1559C31.8174 28.2996 32.7372 26.9675 33.086 25.4769C35.6233 25.128 37.8117 23.2251 38.3826 20.4975C38.4143 20.2755 38.3191 20.0852 38.1288 19.9901C36.099 19.0386 33.7838 19.2606 32.0394 20.4024C31.976 20.3072 31.9125 20.2438 31.8491 20.1486C31.6905 19.9583 31.5002 19.768 31.3417 19.6095C31.6271 16.9136 32.9274 14.7569 34.0058 13.3932C35.211 11.8708 36.3528 10.9828 36.3845 10.9828C36.4162 10.951 36.4479 10.9193 36.4796 10.8876C36.5113 10.8242 36.543 10.7608 36.543 10.6973C36.543 10.6339 36.543 10.5705 36.543 10.5387C36.5113 10.3484 36.3528 10.1899 36.1625 10.1899C36.0673 10.1899 33.8155 9.87271 31.2465 10.7925C27.6309 12.0928 25.4742 15.0107 24.491 18.6897L24.3007 18.7849C23.1907 19.3875 21.8903 19.3875 20.7803 18.7849L20.59 18.6897C19.6068 14.979 17.4501 12.0611 13.8345 10.7925C11.2973 9.74585 9.04543 10.0313 8.95029 10.063C8.53798 10.1264 8.41112 10.6339 8.72828 10.8876C8.72828 10.8876 9.71147 11.6171 10.7898 12.9174C10.9484 13.1077 11.2338 13.1394 11.4558 12.9809C11.6461 12.8223 11.6778 12.5368 11.5193 12.3148C11.0435 11.7439 10.5995 11.2682 10.2189 10.9193C10.5995 10.9193 10.9801 10.951 11.3607 11.0145C11.6144 11.0462 11.8681 11.0779 12.1219 11.1413C12.661 11.2365 13.2002 11.3951 13.7394 11.6171C14.6591 12.8857 15.7692 15.0424 16.0229 18.214C15.5472 18.3725 15.0714 18.5946 14.6274 18.88C14.4371 17.7382 14.0882 16.6282 13.5808 15.5498C13.4856 15.3278 13.2002 15.201 12.9465 15.3278C12.7245 15.423 12.6293 15.7084 12.7245 15.9621C13.2636 17.1356 13.6125 18.3408 13.7711 19.5777C13.5174 19.7998 13.2636 20.0852 13.0416 20.3706C11.2973 19.2289 8.982 18.9751 6.95219 19.9583C6.88876 19.9583 6.85704 20.0218 6.79361 20.0852C6.79361 20.0852 6.7619 20.1486 6.73018 20.1803C6.66675 20.2755 6.66675 20.4024 6.66675 20.4975C7.20592 23.2251 9.42602 25.128 11.9633 25.4769C12.3122 26.9358 13.2002 28.2679 14.564 29.1559C15.6106 29.822 16.2449 30.9637 16.2449 32.1689V32.8667C16.2449 33.4058 16.2449 33.8181 16.3084 34.167C16.4987 35.5942 17.1647 36.8946 18.1479 37.8778C18.3065 40.0344 20.2094 41.7788 22.5564 41.7788C23.6981 41.7788 24.713 41.3665 25.4742 40.7005C25.2205 40.5102 24.9351 40.3516 24.6813 40.1296C24.0787 40.5736 23.3493 40.8591 22.5247 40.8591L22.5564 40.7956ZM37.3994 20.6244C36.8285 22.6859 35.1793 24.0814 33.2763 24.4303C33.3715 23.2568 33.1177 22.115 32.5786 21.1318C33.9741 20.2121 35.7502 19.9901 37.4311 20.6244H37.3994ZM31.3734 11.6171C32.5151 11.1731 33.7203 10.9828 34.8938 10.951C32.6737 13.076 30.9611 15.867 30.4853 18.9117C30.0413 18.6263 29.5973 18.4043 29.0898 18.2457C29.3753 15.0741 30.4536 12.9174 31.3734 11.6488V11.6171ZM29.7876 12.3783C29.0581 13.742 28.3921 15.5816 28.1701 17.992C28.0115 17.992 27.8529 17.9602 27.6943 17.9285C27.4089 17.9285 27.1235 17.9285 26.8697 17.9285C26.4257 17.9285 26.0134 18.0237 25.6011 18.1505C26.4257 15.5181 27.8212 13.6152 29.8193 12.3783H29.7876ZM15.3252 12.3783C17.2915 13.5835 18.7188 15.5181 19.5434 18.1505C18.7188 17.9285 17.8307 17.8651 16.9744 17.992C16.7524 15.5816 16.0863 13.742 15.3569 12.3783H15.3252ZM11.8364 24.4303C9.93348 24.0497 8.25254 22.6542 7.71337 20.6244C9.36259 19.9901 11.1704 20.2438 12.5659 21.1318C11.995 22.1784 11.773 23.3202 11.8681 24.4303H11.8364ZM15.1032 28.2996C13.6125 27.3481 12.7562 25.7306 12.7562 23.9545C12.7562 21.1953 15.0397 18.9117 17.7673 18.8483C18.687 18.8483 19.5751 19.0703 20.3363 19.4826C20.4631 19.546 20.5583 19.6095 20.6851 19.6412V25.35C20.6851 28.2996 19.3848 31.154 17.1964 33.0887V32.0738C17.1964 30.5514 16.4035 29.1242 15.1032 28.2679V28.2996Z" fill="#FDB034"/>
<path fill-rule="evenodd" clip-rule="evenodd" d="M59.8542 38.6395C59.0296 39.7178 57.9513 40.5107 56.8729 41.2402H56.8412C56.8412 41.2402 56.5558 41.4305 56.3972 41.4939C56.3021 41.5573 56.1752 41.6208 56.0801 41.7159C56.0801 41.7159 56.1118 41.7793 56.1435 41.8111H56.1752C56.1752 41.8111 56.2069 41.9062 56.2069 41.9379C57.3804 44.4752 57.983 47.2028 57.983 50.0572C57.983 51.2624 57.8879 52.4359 57.6658 53.6411C58.871 55.1951 59.5371 56.9712 59.5371 58.779C59.5371 61.8872 57.6341 64.805 54.1454 66.9934C50.7835 69.1184 46.2481 70.2919 41.4908 70.2919C37.0506 70.2919 32.7689 69.2452 29.4705 67.374C29.407 67.3423 29.3436 67.2789 29.3119 67.2471C29.2485 67.152 29.2168 67.0569 29.2168 66.93C29.2168 66.8666 29.2168 66.8031 29.2168 66.7397C29.2168 66.708 29.2168 66.6445 29.2485 66.6128C29.3119 66.486 29.407 66.4225 29.5022 66.3591C29.6608 66.2957 29.8511 66.2957 30.0096 66.3591C33.1812 68.1669 37.2409 69.1184 41.4591 69.1184C45.9944 69.1184 50.3078 68.0083 53.5111 66.0102C56.6509 64.0438 58.3636 61.4749 58.3636 58.7473C58.3636 55.7026 56.1752 52.8165 52.3693 50.8184C52.0839 50.6915 51.9887 50.3426 52.1156 50.0572C52.2424 49.7717 52.5913 49.6766 52.8768 49.8034C54.3674 50.5646 55.5726 51.4527 56.5875 52.4676C56.6509 52.087 56.6827 51.7064 56.7144 51.2941C56.7461 50.8818 56.7778 50.4695 56.7778 50.0255C56.7778 47.3613 56.2069 44.7924 55.0969 42.4137C54.8749 41.9696 54.5894 41.5891 54.3357 41.1767C52.7499 42.6991 50.6566 43.6189 48.4365 43.6189C43.7109 43.6189 39.905 39.813 39.905 35.0873C39.905 34.897 39.905 34.7384 39.9367 34.5481V34.2627L40.0636 33.8187L40.127 33.4381C38.6046 33.565 37.114 33.9455 35.6868 34.5799L36.226 35.2776L36.5114 35.6582L36.7651 36.0071C36.7651 36.0071 36.8603 36.1974 36.8603 36.3242C36.8603 36.3877 36.8603 36.4511 36.8286 36.5462C36.8286 36.578 36.7968 36.6097 36.7651 36.6414C35.5916 38.3858 33.9741 38.5761 33.2129 38.5761H32.7055C32.5152 38.5126 32.4201 38.3858 32.2615 38.0369L32.0395 37.5611V37.466L31.8492 37.0854C30.1682 38.5443 28.7727 40.3521 27.7895 42.4137C27.6944 42.6674 27.5675 42.9211 27.4724 43.2066C27.6944 43.1748 27.8847 43.1431 28.1067 43.1431C29.7876 43.1431 31.4051 43.6189 32.8324 44.5386C33.5935 45.0144 34.2279 45.617 34.7987 46.283C34.989 46.505 35.1476 46.727 35.3062 46.9807C35.4013 47.1076 35.4965 47.2662 35.5599 47.393C35.6551 47.5516 35.7502 47.7102 35.8136 47.8688C37.5897 47.4882 39.4927 47.2345 41.4273 47.2345C44.7575 47.2345 47.9925 47.7736 50.8152 48.8837C50.9421 48.9154 51.0372 49.0106 51.069 49.1057C51.1641 49.2643 51.1641 49.4546 51.1007 49.6132C51.0055 49.9303 50.6566 50.0255 50.3712 49.9303C47.7071 48.8837 44.5989 48.3445 41.3956 48.3445C36.8603 48.3445 32.5469 49.4546 29.3436 51.4527C26.2038 53.4191 24.4911 55.988 24.4911 58.7473C24.4911 61.0308 25.6963 63.2192 27.9798 65.0588C28.1067 65.1856 28.1701 65.3125 28.2018 65.4711C28.2018 65.5979 28.1701 65.7248 28.075 65.8517C28.0116 65.9151 27.9164 65.9785 27.8213 66.0102C27.7261 66.0419 27.631 66.0737 27.631 66.0737C27.5358 66.0737 27.3772 66.0102 27.2821 65.9468C26.0769 64.9319 25.0937 63.8218 24.4277 62.6484C24.1105 62.1092 23.8885 61.5383 23.6982 60.9674C23.6031 60.682 23.5396 60.3965 23.4762 60.1111C23.381 59.6671 23.3493 59.223 23.3493 58.7473C23.3493 56.9395 24.0471 55.2269 25.2523 53.6411V53.5776C25.0303 52.4359 24.9351 51.2307 24.9351 50.0572C24.9351 47.2028 25.5377 44.4435 26.7429 41.9062V41.8428C26.7429 41.8428 26.8381 41.7476 26.8381 41.7159C26.6161 41.5891 26.394 41.3988 26.1403 41.2402C25.6012 40.8913 25.0303 40.479 24.5228 40.035C24.0154 39.6227 23.5713 39.1469 23.159 38.6395C22.3344 37.5929 22.0173 36.1022 23.0639 35.1507C23.7299 34.5481 24.618 34.4213 24.9668 34.4213C27.1552 34.2944 29.3753 34.897 31.2783 35.5948C31.1831 35.2142 31.0563 34.8336 31.0563 34.4213C30.9928 33.3747 31.5003 32.5818 32.3566 32.4866C32.5469 32.4866 32.7372 32.4866 32.9275 32.5183C33.1495 32.5818 33.4032 32.6452 33.6253 32.7721C34.0376 33.0575 34.3547 33.4064 34.7036 33.7235C36.8286 32.7086 39.0487 32.2012 41.3639 32.2012C43.6792 32.2012 45.9944 32.7086 48.0877 33.7552C48.4683 33.4064 48.8171 33.0258 49.2294 32.7721C49.388 32.6452 49.9272 32.3915 50.5298 32.4549C51.3544 32.5818 51.8936 33.3429 51.8301 34.3896C51.7984 34.7702 51.735 35.1507 51.6081 35.5313C53.5111 34.8653 55.6677 34.2627 57.8561 34.3896C58.205 34.3896 59.0931 34.5164 59.7591 35.119C60.8057 36.1022 60.4568 37.5929 59.6639 38.6078L59.8542 38.6395ZM50.5298 33.6284C50.5298 33.6284 50.1492 33.6601 49.9589 33.7552C48.944 34.3896 48.1511 35.3728 47.4534 36.3242C48.3097 37.3709 49.3563 37.4977 49.8638 37.4977L49.9906 37.1806L50.1492 36.7682L50.3395 36.3242L50.4029 36.1656L50.5615 35.7533L50.6249 35.5313C50.7518 35.119 50.8469 34.7702 50.8469 34.3578C50.8469 34.3261 50.8787 33.6601 50.4981 33.5967L50.5298 33.6284ZM32.2932 45.5218C31.088 44.7289 29.6291 44.3166 28.1701 44.3166H28.2018C27.9481 44.3483 27.6944 44.38 27.4724 44.4118C27.3455 44.4118 27.2504 44.4118 27.1235 44.4435C26.7429 45.5535 26.4575 46.7587 26.3306 47.9639C26.2355 48.6934 26.2038 49.4229 26.2038 50.184C26.2038 50.9769 26.2989 51.8015 26.4258 52.5944C27.1235 51.8967 27.9164 51.1989 28.8996 50.6281C30.6123 49.5497 32.5786 48.7251 34.7353 48.1542C34.1327 47.1076 33.3398 46.1878 32.3249 45.5218H32.2932ZM26.8698 40.3521L27.5041 40.7644C28.3604 39.2421 29.4705 37.8149 30.7708 36.6097C29.0265 35.9754 27.0601 35.4679 25.1571 35.563C24.6814 35.5948 24.2057 35.7851 23.9519 36.0071C23.1907 36.6731 24.0471 37.8466 24.1739 37.9734C24.3642 38.1955 24.5545 38.4175 24.7448 38.6078L25.0937 38.9566C25.6012 39.4324 26.2038 39.8764 26.9015 40.3204L26.8698 40.3521ZM33.2447 37.3391L33.3081 37.466C33.7838 37.4977 34.8305 37.3709 35.7185 36.3242C35.0207 35.341 34.2279 34.3578 33.2129 33.7552C33.0861 33.6601 32.8641 33.5967 32.7372 33.5967H32.6738C32.6738 33.5967 32.5786 33.5967 32.5469 33.6601C32.5469 33.6601 32.4835 33.7235 32.4835 33.7552C32.4518 33.8187 32.4201 33.8821 32.3883 33.9455C32.3883 34.0407 32.3566 34.1041 32.3249 34.1676C32.3249 34.2944 32.3249 34.3896 32.3249 34.3896C32.3566 35.0239 32.5786 35.5948 32.8324 36.3242C32.9909 36.7682 33.1495 37.1171 33.2447 37.3708V37.3391ZM41.0785 35.119C41.0785 39.2104 44.4086 42.5405 48.5 42.5405C50.5298 42.5405 52.4327 41.6842 53.8282 40.257C53.3525 39.5275 52.8133 38.8298 52.2424 38.1955L51.8936 37.8149C51.6716 37.5929 51.4813 37.4026 51.2275 37.1806V37.2757L51.1324 37.4343V37.5294C50.7835 38.2906 50.6884 38.4809 50.4346 38.5761H49.9272C49.166 38.5761 47.5802 38.354 46.375 36.6414C46.2481 36.4828 46.2481 36.1974 46.375 36.0071C46.5019 35.8485 46.6287 35.6582 46.7556 35.4996C46.9776 35.2142 47.1996 34.9604 47.4216 34.675C45.5504 33.8504 43.6157 33.3429 41.5542 33.3429H41.3956C41.237 33.9455 41.1102 34.5164 41.1102 35.119H41.0785ZM55.858 40.5741C55.858 40.5741 56.0801 40.4156 56.2069 40.3521C57.3487 39.5592 58.2684 38.8615 58.9662 37.9734C59.0613 37.8783 59.9177 36.7048 59.1882 36.0071C58.9345 35.7533 58.4587 35.563 57.983 35.563C56.0483 35.4679 53.9868 36.0071 52.2107 36.6414C52.9402 37.3391 53.6379 38.0686 54.2405 38.8932C54.4625 39.1786 54.6846 39.4958 54.8748 39.813H54.9066C54.97 39.8764 55.0017 39.9398 55.0334 40.0033C55.0651 40.0984 55.0651 40.1618 55.0651 40.257C55.192 40.4156 55.3189 40.6376 55.414 40.8279C55.5409 40.7644 55.6677 40.6693 55.7946 40.5741H55.858Z" fill="#305986"/>
<path d="M36.3211 44.7925C36.3211 44.4753 36.5748 44.2216 36.892 44.2216C37.2091 44.2216 37.4628 44.4753 37.4628 44.7925V45.6805C37.4628 45.9977 37.2091 46.2514 36.892 46.2514C36.7017 46.2514 36.5431 46.1563 36.4479 46.0611C36.3845 45.966 36.3211 45.8391 36.3211 45.7122V44.7925Z" fill="#305986"/>
<path d="M45.5504 44.7917V45.6798C45.5504 45.6798 45.5504 45.7432 45.5504 45.7749V45.8384C45.5504 45.8384 45.6139 45.9335 45.6456 45.9969C45.7407 46.1238 45.8993 46.2189 46.0896 46.2189C46.153 46.2189 46.1847 46.2189 46.2482 46.2189C46.375 46.1872 46.4702 46.1238 46.5336 46.0286C46.597 45.9335 46.6288 45.8384 46.6288 45.7115V44.8234C46.6288 44.8234 46.5653 44.538 46.4702 44.4429C46.375 44.3477 46.2165 44.2526 46.0579 44.2526C45.8993 44.2526 45.7724 44.316 45.6773 44.3794C45.5504 44.4746 45.487 44.6332 45.487 44.7917H45.5504Z" fill="#305986"/>
<path fill-rule="evenodd" clip-rule="evenodd" d="M35.1159 51.3251C36.1308 51.3251 36.9554 52.1815 36.9554 53.2281C36.9554 54.2747 36.1308 55.131 35.1159 55.131C34.101 55.131 33.2764 54.2747 33.2764 53.2281C33.2764 52.1815 34.101 51.3251 35.1159 51.3251ZM35.0842 52.4352C34.6719 52.4352 34.3547 52.7841 34.3547 53.2281C34.3547 53.6721 34.6719 54.021 35.0842 54.021C35.1793 54.021 35.2428 54.021 35.3062 53.9893C35.3696 53.9893 35.4013 53.9575 35.4648 53.9258C35.5599 53.8624 35.6551 53.7672 35.7185 53.6404C35.7819 53.5135 35.8137 53.3867 35.8137 53.2281C35.8137 53.0695 35.7819 52.9426 35.7185 52.8158C35.6551 52.6889 35.5282 52.562 35.4013 52.4986C35.3379 52.4986 35.2745 52.4352 35.211 52.4352C35.1793 52.4352 35.1159 52.4352 35.0525 52.4352H35.0842Z" fill="#305986"/>
<path fill-rule="evenodd" clip-rule="evenodd" d="M49.8954 53.2281C49.8954 52.1815 49.0708 51.3251 48.0559 51.3251C47.041 51.3251 46.2164 52.1815 46.2164 53.2281C46.2164 54.2747 47.041 55.131 48.0559 55.131C49.0708 55.131 49.8954 54.2747 49.8954 53.2281ZM47.3265 53.2281C47.3265 52.7841 47.6436 52.4352 48.0559 52.4352C48.4682 52.4352 48.7854 52.7841 48.7854 53.2281C48.7854 53.4501 48.6902 53.6721 48.5634 53.799C48.4365 53.9258 48.2462 54.021 48.0559 54.021C47.8656 54.021 47.707 53.9575 47.5802 53.8624C47.485 53.799 47.4216 53.7038 47.3899 53.6087C47.3264 53.5135 47.3265 53.3867 47.3265 53.2281Z" fill="#305986"/>
<path d="M43.1083 55.9556C43.362 56.1776 43.3937 56.4947 43.1717 56.7485H43.1083C42.696 57.1925 42.0934 57.4779 41.4908 57.4779C40.8882 57.4779 40.2856 57.2242 39.8732 56.7485C39.7147 56.4947 39.7147 56.1459 39.9367 55.9556C40.1904 55.797 40.5393 55.797 40.7296 56.019C40.9516 56.241 41.2053 56.3679 41.5225 56.3679C41.8396 56.3679 42.1251 56.2727 42.3154 56.019C42.4422 55.8604 42.6325 55.797 42.8228 55.8287C42.918 55.8287 43.0448 55.8921 43.1083 55.9556Z" fill="#305986"/>
<path d="M36.3211 44.7925C36.3211 44.4753 36.5748 44.2216 36.892 44.2216C37.2091 44.2216 37.4628 44.4753 37.4628 44.7925V45.6805C37.4628 45.9977 37.2091 46.2514 36.892 46.2514C36.7017 46.2514 36.5431 46.1563 36.4479 46.0611C36.3845 45.966 36.3211 45.8391 36.3211 45.7122V44.7925Z" fill="#305986"/>
<path d="M45.5504 44.7917V45.6798C45.5504 45.6798 45.5504 45.7432 45.5504 45.7749V45.8384C45.5504 45.8384 45.6139 45.9335 45.6456 45.9969C45.7407 46.1238 45.8993 46.2189 46.0896 46.2189C46.153 46.2189 46.1847 46.2189 46.2482 46.2189C46.375 46.1872 46.4702 46.1238 46.5336 46.0286C46.597 45.9335 46.6288 45.8384 46.6288 45.7115V44.8234C46.6288 44.8234 46.5653 44.538 46.4702 44.4429C46.375 44.3477 46.2165 44.2526 46.0579 44.2526C45.8993 44.2526 45.7724 44.316 45.6773 44.3794C45.5504 44.4746 45.487 44.6332 45.487 44.7917H45.5504Z" fill="#305986"/>
<path fill-rule="evenodd" clip-rule="evenodd" d="M35.1159 51.3251C36.1308 51.3251 36.9554 52.1815 36.9554 53.2281C36.9554 54.2747 36.1308 55.131 35.1159 55.131C34.101 55.131 33.2764 54.2747 33.2764 53.2281C33.2764 52.1815 34.101 51.3251 35.1159 51.3251ZM35.0842 52.4352C34.6719 52.4352 34.3547 52.7841 34.3547 53.2281C34.3547 53.6721 34.6719 54.021 35.0842 54.021C35.1793 54.021 35.2428 54.021 35.3062 53.9893C35.3696 53.9893 35.4013 53.9575 35.4648 53.9258C35.5599 53.8624 35.6551 53.7672 35.7185 53.6404C35.7819 53.5135 35.8137 53.3867 35.8137 53.2281C35.8137 53.0695 35.7819 52.9426 35.7185 52.8158C35.6551 52.6889 35.5282 52.562 35.4013 52.4986C35.3379 52.4986 35.2745 52.4352 35.211 52.4352C35.1793 52.4352 35.1159 52.4352 35.0525 52.4352H35.0842Z" fill="#305986"/>
<path fill-rule="evenodd" clip-rule="evenodd" d="M49.8954 53.2281C49.8954 52.1815 49.0708 51.3251 48.0559 51.3251C47.041 51.3251 46.2164 52.1815 46.2164 53.2281C46.2164 54.2747 47.041 55.131 48.0559 55.131C49.0708 55.131 49.8954 54.2747 49.8954 53.2281ZM47.3265 53.2281C47.3265 52.7841 47.6436 52.4352 48.0559 52.4352C48.4682 52.4352 48.7854 52.7841 48.7854 53.2281C48.7854 53.4501 48.6902 53.6721 48.5634 53.799C48.4365 53.9258 48.2462 54.021 48.0559 54.021C47.8656 54.021 47.707 53.9575 47.5802 53.8624C47.485 53.799 47.4216 53.7038 47.3899 53.6087C47.3264 53.5135 47.3265 53.3867 47.3265 53.2281Z" fill="#305986"/>
<path d="M43.1083 55.9556C43.362 56.1776 43.3937 56.4947 43.1717 56.7485H43.1083C42.696 57.1925 42.0934 57.4779 41.4908 57.4779C40.8882 57.4779 40.2856 57.2242 39.8732 56.7485C39.7147 56.4947 39.7147 56.1459 39.9367 55.9556C40.1904 55.797 40.5393 55.797 40.7296 56.019C40.9516 56.241 41.2053 56.3679 41.5225 56.3679C41.8396 56.3679 42.1251 56.2727 42.3154 56.019C42.4422 55.8604 42.6325 55.797 42.8228 55.8287C42.918 55.8287 43.0448 55.8921 43.1083 55.9556Z" fill="#305986"/>
<path d="M36.3211 44.7925C36.3211 44.4753 36.5748 44.2216 36.892 44.2216C37.2091 44.2216 37.4628 44.4753 37.4628 44.7925V45.6805C37.4628 45.9977 37.2091 46.2514 36.892 46.2514C36.7017 46.2514 36.5431 46.1563 36.4479 46.0611C36.3845 45.966 36.3211 45.8391 36.3211 45.7122V44.7925Z" fill="#305986"/>
<path d="M45.5504 44.7917V45.6798C45.5504 45.6798 45.5504 45.7432 45.5504 45.7749V45.8384C45.5504 45.8384 45.6139 45.9335 45.6456 45.9969C45.7407 46.1238 45.8993 46.2189 46.0896 46.2189C46.153 46.2189 46.1847 46.2189 46.2482 46.2189C46.375 46.1872 46.4702 46.1238 46.5336 46.0286C46.597 45.9335 46.6288 45.8384 46.6288 45.7115V44.8234C46.6288 44.8234 46.5653 44.538 46.4702 44.4429C46.375 44.3477 46.2165 44.2526 46.0579 44.2526C45.8993 44.2526 45.7724 44.316 45.6773 44.3794C45.5504 44.4746 45.487 44.6332 45.487 44.7917H45.5504Z" fill="#305986"/>
<path fill-rule="evenodd" clip-rule="evenodd" d="M35.1159 51.3251C36.1308 51.3251 36.9554 52.1815 36.9554 53.2281C36.9554 54.2747 36.1308 55.131 35.1159 55.131C34.101 55.131 33.2764 54.2747 33.2764 53.2281C33.2764 52.1815 34.101 51.3251 35.1159 51.3251ZM35.0842 52.4352C34.6719 52.4352 34.3547 52.7841 34.3547 53.2281C34.3547 53.6721 34.6719 54.021 35.0842 54.021C35.1793 54.021 35.2428 54.021 35.3062 53.9893C35.3696 53.9893 35.4013 53.9575 35.4648 53.9258C35.5599 53.8624 35.6551 53.7672 35.7185 53.6404C35.7819 53.5135 35.8137 53.3867 35.8137 53.2281C35.8137 53.0695 35.7819 52.9426 35.7185 52.8158C35.6551 52.6889 35.5282 52.562 35.4013 52.4986C35.3379 52.4986 35.2745 52.4352 35.211 52.4352C35.1793 52.4352 35.1159 52.4352 35.0525 52.4352H35.0842Z" fill="#305986"/>
<path fill-rule="evenodd" clip-rule="evenodd" d="M49.8954 53.2281C49.8954 52.1815 49.0708 51.3251 48.0559 51.3251C47.041 51.3251 46.2164 52.1815 46.2164 53.2281C46.2164 54.2747 47.041 55.131 48.0559 55.131C49.0708 55.131 49.8954 54.2747 49.8954 53.2281ZM47.3265 53.2281C47.3265 52.7841 47.6436 52.4352 48.0559 52.4352C48.4682 52.4352 48.7854 52.7841 48.7854 53.2281C48.7854 53.4501 48.6902 53.6721 48.5634 53.799C48.4365 53.9258 48.2462 54.021 48.0559 54.021C47.8656 54.021 47.707 53.9575 47.5802 53.8624C47.485 53.799 47.4216 53.7038 47.3899 53.6087C47.3264 53.5135 47.3265 53.3867 47.3265 53.2281Z" fill="#305986"/>
<path d="M43.1083 55.9556C43.362 56.1776 43.3937 56.4947 43.1717 56.7485H43.1083C42.696 57.1925 42.0934 57.4779 41.4908 57.4779C40.8882 57.4779 40.2856 57.2242 39.8732 56.7485C39.7147 56.4947 39.7147 56.1459 39.9367 55.9556C40.1904 55.797 40.5393 55.797 40.7296 56.019C40.9516 56.241 41.2053 56.3679 41.5225 56.3679C41.8396 56.3679 42.1251 56.2727 42.3154 56.019C42.4422 55.8604 42.6325 55.797 42.8228 55.8287C42.918 55.8287 43.0448 55.8921 43.1083 55.9556Z" fill="#305986"/>
</svg>
