<svg width="80" height="80" viewBox="0 0 80 80" fill="none" xmlns="http://www.w3.org/2000/svg">
<path d="M72.6812 54.4203L50.0859 42.7061C49.5005 42.4027 48.7838 42.6317 48.481 43.2148C48.1781 43.799 48.406 44.5174 48.9896 44.8197L53.4739 47.1444L39.9901 54.136L26.5063 47.1444L30.9906 44.8197C32.3683 44.0812 31.2954 42.0075 29.8942 42.7062C29.8943 42.7061 7.299 54.4203 7.299 54.4203C6.46187 54.8234 6.45012 56.1306 7.29906 56.5338C7.299 56.5338 39.4419 73.2005 39.4419 73.2005C39.614 73.2895 39.8018 73.3342 39.9901 73.3342C40.1784 73.3342 40.3662 73.2895 40.5382 73.2005L72.6812 56.5338C73.5183 56.1298 73.5301 54.8241 72.6812 54.4203ZM23.9198 48.4853L37.4039 55.4771L23.9186 62.4694L10.4333 55.4771L23.9198 48.4853ZM39.9901 70.8027L26.5048 63.8104L39.9901 56.8181L53.4753 63.8104L39.9901 70.8027ZM56.0615 62.4694L42.5763 55.4771L56.0603 48.4853L69.5468 55.4771L56.0615 62.4694Z" fill="#305986"/>
<path d="M39.3946 20.3581H42.9661C44.5282 20.3342 44.5322 18.0025 42.966 17.9771H41.1803V17.3819C41.1803 16.7244 40.6473 16.1914 39.9899 16.1914C39.3324 16.1914 38.7994 16.7244 38.7994 17.3819V18.0373C34.5457 18.8168 35.042 25.0435 39.3947 25.12H40.5851C42.1487 25.1469 42.1496 27.4736 40.5851 27.501H37.0137C35.4516 27.5249 35.4475 29.8566 37.0137 29.8819H38.7994V30.4772C38.7994 31.1346 39.3324 31.6676 39.9899 31.6676C40.6473 31.6676 41.1803 31.1346 41.1803 30.4772V29.8217C45.434 29.0423 44.9377 22.8155 40.585 22.739H39.3946C37.831 22.7121 37.8301 20.3854 39.3946 20.3581Z" fill="#0E8388"/>
<path d="M52.49 23.9298C52.5503 22.4021 51.5461 16.1021 49.2181 17.2908C48.6477 17.6187 48.4518 18.3465 48.7797 18.9162C52.6707 25.4468 47.6092 34.1872 39.9899 34.0487C34.4102 34.0489 29.8709 29.5096 29.8709 23.9298C29.7336 16.3024 38.4834 11.2502 45.0159 15.1403C45.5872 15.4691 46.3139 15.2721 46.6411 14.7018C47.8214 12.3619 41.5382 11.3779 39.9901 11.4297C33.0977 11.4298 27.49 17.0374 27.49 23.9298C28.1767 40.5118 51.8051 40.5089 52.49 23.9298Z" fill="#FDB034"/>
<path d="M35.5524 40.9179L38.9716 46.568C39.3977 47.3217 40.5823 47.325 41.0084 46.5679C41.0084 46.568 44.4275 40.9179 44.4275 40.9179C44.5752 40.6737 44.8315 40.4842 45.1489 40.3848C52.3883 38.119 57.2519 31.5051 57.2519 23.928C57.2519 14.4099 49.508 6.66602 39.99 6.66602C30.472 6.66602 22.728 14.4099 22.728 23.928C22.728 31.5051 27.5917 38.119 34.831 40.3848C35.1484 40.4842 35.4048 40.6737 35.5524 40.9179ZM25.109 23.928C25.9243 4.19033 54.055 4.18815 54.871 23.9281C54.871 30.4587 50.6781 36.1594 44.4374 38.1131C43.5661 38.3858 42.8389 38.9444 42.3907 39.6855L39.99 43.6522L37.5893 39.6855C37.1411 38.9444 36.4139 38.3858 35.5425 38.1131C29.3018 36.1594 25.109 30.4587 25.109 23.928Z" fill="#0E8388"/>
</svg>
