<svg width="17" height="20" viewBox="0 0 17 20" fill="#525252" xmlns="http://www.w3.org/2000/svg">
<path fill-rule="evenodd" clip-rule="evenodd" d="M14.3812 7.14154C14.3812 4.4849 12.7023 2.20347 10.3525 1.30525C9.92055 0.525207 9.08923 0 8.13674 0C7.18546 0 6.35505 0.523873 5.92262 1.30228C3.56848 2.19705 1.89277 4.4759 1.89277 7.14154V9.81499C1.89277 10.0135 1.84784 10.304 1.76194 10.6135C1.67631 10.9219 1.56535 11.1939 1.46405 11.3642L1.46334 11.3654L0.400968 13.1298C-0.0255237 13.8386 -0.114517 14.6339 0.147089 15.3404C0.408392 16.0461 0.992812 16.5914 1.7721 16.8552L1.77467 16.856C2.78164 17.1925 3.808 17.4469 4.84429 17.6192C5.01724 18.1394 5.30934 18.607 5.68508 18.9827C6.30901 19.6067 7.18633 20 8.13682 20C9.66724 20 10.9728 18.9983 11.4309 17.6175C12.4633 17.4452 13.4858 17.1915 14.489 16.8564C16.0323 16.3455 16.7019 14.5267 15.8642 13.1306L14.8035 11.3688C14.7045 11.1955 14.5957 10.9226 14.5115 10.6155C14.4262 10.3047 14.3812 10.0138 14.3812 9.81499V7.14154ZM3.28038 7.14154C3.28038 4.97341 4.707 3.13347 6.67121 2.51074C7.3563 2.31935 8.09419 2.26534 8.874 2.36282L8.87657 2.36314C9.10534 2.39087 9.33145 2.43713 9.55565 2.49788C11.5396 3.10902 12.9936 4.9649 12.9936 7.14154V9.81499C12.9936 10.1805 13.0689 10.6019 13.1733 10.9825C13.2779 11.3639 13.4267 11.7594 13.6044 12.0674L14.6746 13.845C15.0574 14.4836 14.7469 15.3096 14.0524 15.5392L14.0503 15.5399C10.2064 16.8242 6.0597 16.8244 2.21572 15.5404C1.79318 15.397 1.55004 15.1332 1.44835 14.8585C1.34688 14.5845 1.35973 14.2279 1.58994 13.8452L2.65367 12.0785L2.65522 12.0759C2.84051 11.7651 2.99287 11.3669 3.09899 10.9846C3.20505 10.6025 3.28038 10.1807 3.28038 9.81499V7.14154ZM9.76362 17.8243C8.6805 17.9128 7.59209 17.913 6.50894 17.825C6.55811 17.887 6.61065 17.9459 6.66626 18.0015C7.0414 18.3767 7.5702 18.6124 8.13682 18.6124C8.79272 18.6124 9.38115 18.3035 9.76362 17.8243Z" fill="inherit"/>
</svg>
