<svg width="27" height="28" viewBox="0 0 27 28" fill="none" xmlns="http://www.w3.org/2000/svg">
<path fill-rule="evenodd" clip-rule="evenodd" d="M9.36196 1.41168C10.0752 0.969797 10.9344 0.666016 11.7852 0.666016H14.6255C15.4716 0.666016 16.3281 0.97078 17.0388 1.41224C17.7499 1.85392 18.4006 2.48548 18.7797 3.23551L18.7827 3.24144L19.6716 5.03151C19.8643 5.39778 20.2435 5.62726 20.641 5.62726C23.8674 5.62726 26.429 8.34864 26.2205 11.5665L25.5756 21.8097C25.4864 23.2237 25.0582 24.6201 24.0753 25.6706C23.0746 26.7401 21.6101 27.3327 19.6984 27.3327H6.69993C4.7886 27.3327 3.32128 26.7404 2.31897 25.6712C1.33429 24.6209 0.905458 23.2242 0.822569 21.8076L0.822438 21.8054L0.17785 11.5665C-0.030185 8.34903 2.53118 5.62726 5.7573 5.62726C6.15481 5.62726 6.53395 5.39779 6.72673 5.03154L7.61856 3.23549C7.99777 2.48531 8.64874 1.85355 9.36196 1.41168ZM9.2803 4.07219L8.38169 5.88188C7.87887 6.8516 6.87076 7.48772 5.7573 7.48772C3.60076 7.48772 1.8957 9.30587 2.03442 11.4462L2.03453 11.4479L2.67976 21.6972C2.74603 22.8349 3.08005 23.7628 3.67625 24.3988C4.25533 25.0165 5.18801 25.4722 6.69993 25.4722H19.6984C21.2099 25.4722 22.1392 25.0167 22.7168 24.3995C23.3122 23.7631 23.6468 22.8338 23.7188 21.6928L24.3639 11.4462C24.5026 9.30587 22.7976 7.48772 20.641 7.48772C19.5276 7.48772 18.5196 6.85153 18.0168 5.88182L18.0093 5.86739L17.118 4.07221C16.9262 3.69433 16.5481 3.29757 16.0572 2.99266C15.5648 2.68683 15.0446 2.52648 14.6255 2.52648H11.7852C11.3584 2.52648 10.8347 2.68782 10.3418 2.99322C9.84995 3.29793 9.47205 3.69448 9.2803 4.07219Z" fill="#525252"/>
<path fill-rule="evenodd" clip-rule="evenodd" d="M10.4085 9.03811C10.4085 8.52436 10.8249 8.10788 11.3387 8.10788H15.0596C15.5734 8.10788 15.9899 8.52436 15.9899 9.03811C15.9899 9.55186 15.5734 9.96834 15.0596 9.96834H11.3387C10.8249 9.96834 10.4085 9.55186 10.4085 9.03811Z" fill="#525252"/>
<path fill-rule="evenodd" clip-rule="evenodd" d="M8.23792 17.4102C8.23792 14.6763 10.4652 12.449 13.1992 12.449C15.9331 12.449 18.1604 14.6763 18.1604 17.4102C18.1604 20.1441 15.9331 22.3714 13.1992 22.3714C10.4652 22.3714 8.23792 20.1441 8.23792 17.4102ZM13.1992 14.3094C11.4928 14.3094 10.0984 15.7038 10.0984 17.4102C10.0984 19.1166 11.4928 20.511 13.1992 20.511C14.9056 20.511 16.2999 19.1166 16.2999 17.4102C16.2999 15.7038 14.9056 14.3094 13.1992 14.3094Z" fill="#525252"/>
</svg>
