<svg width="18" height="18" viewBox="0 0 18 18" fill="#525252" xmlns="http://www.w3.org/2000/svg">
<path fill-rule="evenodd" clip-rule="evenodd" d="M10.7208 1.41965C11.2558 0.884566 12.0112 0.667969 12.8761 0.667969H14.4264C15.2913 0.667969 16.0466 0.884566 16.5817 1.41965C17.1168 1.95474 17.3334 2.71013 17.3334 3.57495V5.12533C17.3334 5.99015 17.1168 6.74554 16.5817 7.28063C16.0466 7.81571 15.2913 8.03231 14.4264 8.03231H12.8761C12.0112 8.03231 11.2558 7.81571 10.7208 7.28063C10.1857 6.74554 9.96907 5.99015 9.96907 5.12533V3.57495C9.96907 2.71013 10.1857 1.95474 10.7208 1.41965ZM11.543 2.24187C11.3029 2.48198 11.1319 2.88937 11.1319 3.57495V5.12533C11.1319 5.81091 11.3029 6.2183 11.543 6.45841C11.7831 6.69852 12.1905 6.86952 12.8761 6.86952H14.4264C15.112 6.86952 15.5194 6.69852 15.7595 6.45841C15.9996 6.2183 16.1706 5.81091 16.1706 5.12533V3.57495C16.1706 2.88937 15.9996 2.48198 15.7595 2.24187C15.5194 2.00176 15.112 1.83076 14.4264 1.83076H12.8761C12.1905 1.83076 11.7831 2.00176 11.543 2.24187Z" fill="inherit"/>
<path fill-rule="evenodd" clip-rule="evenodd" d="M1.41843 10.722C1.95352 10.1869 2.70891 9.97029 3.57372 9.97029H5.12411C5.98893 9.97029 6.74432 10.1869 7.27941 10.722C7.81449 11.2571 8.03109 12.0125 8.03109 12.8773V14.4277C8.03109 15.2925 7.81449 16.0479 7.27941 16.583C6.74432 17.118 5.98893 17.3346 5.12411 17.3346H3.57372C2.70891 17.3346 1.95352 17.118 1.41843 16.583C0.883345 16.0479 0.666748 15.2925 0.666748 14.4277V12.8773C0.666748 12.0125 0.883345 11.2571 1.41843 10.722ZM2.24065 11.5442C2.00054 11.7843 1.82954 12.1917 1.82954 12.8773V14.4277C1.82954 15.1132 2.00054 15.5206 2.24065 15.7607C2.48076 16.0008 2.88815 16.1718 3.57372 16.1718H5.12411C5.80969 16.1718 6.21708 16.0008 6.45719 15.7607C6.6973 15.5206 6.8683 15.1132 6.8683 14.4277V12.8773C6.8683 12.1917 6.6973 11.7843 6.45719 11.5442C6.21708 11.3041 5.80969 11.1331 5.12411 11.1331H3.57372C2.88815 11.1331 2.48076 11.3041 2.24065 11.5442Z" fill="inherit"/>
<path fill-rule="evenodd" clip-rule="evenodd" d="M4.34892 1.83076C2.9575 1.83076 1.82954 2.95872 1.82954 4.35014C1.82954 5.74156 2.9575 6.86952 4.34892 6.86952C5.74033 6.86952 6.8683 5.74156 6.8683 4.35014C6.8683 2.95872 5.74033 1.83076 4.34892 1.83076ZM0.666748 4.35014C0.666748 2.31653 2.31531 0.667969 4.34892 0.667969C6.38253 0.667969 8.03109 2.31653 8.03109 4.35014C8.03109 6.38375 6.38253 8.03231 4.34892 8.03231C2.31531 8.03231 0.666748 6.38375 0.666748 4.35014Z" fill="inherit"/>
<path fill-rule="evenodd" clip-rule="evenodd" d="M13.6512 11.1331C12.2598 11.1331 11.1319 12.2611 11.1319 13.6525C11.1319 15.0439 12.2598 16.1718 13.6512 16.1718C15.0427 16.1718 16.1706 15.0439 16.1706 13.6525C16.1706 12.2611 15.0427 11.1331 13.6512 11.1331ZM9.96907 13.6525C9.96907 11.6189 11.6176 9.97029 13.6512 9.97029C15.6849 9.97029 17.3334 11.6189 17.3334 13.6525C17.3334 15.6861 15.6849 17.3346 13.6512 17.3346C11.6176 17.3346 9.96907 15.6861 9.96907 13.6525Z" fill="inherit"/>
</svg>
