<svg width="24" height="24" viewBox="0 0 24 24" fill="none" xmlns="http://www.w3.org/2000/svg">
<path fill-rule="evenodd" clip-rule="evenodd" d="M4.45148 5.31358C3.81896 5.90091 3.39535 6.85391 3.39535 8.34884V14.8605C3.39535 16.3554 3.81896 17.3084 4.45148 17.8957C5.09335 18.4918 6.06044 18.814 7.34884 18.814H16.6512C17.9396 18.814 18.9066 18.4918 19.5485 17.8957C20.181 17.3084 20.6047 16.3554 20.6047 14.8605V8.34884C20.6047 6.85391 20.181 5.90091 19.5485 5.31358C18.9066 4.71755 17.9396 4.39535 16.6512 4.39535H7.34884C6.06044 4.39535 5.09335 4.71755 4.45148 5.31358ZM3.50201 4.29107C4.48804 3.37547 5.84654 3 7.34884 3H16.6512C18.1535 3 19.512 3.37547 20.498 4.29107C21.4934 5.21537 22 6.58795 22 8.34884V14.8605C22 16.6213 21.4934 17.9939 20.498 18.9182C19.512 19.8338 18.1535 20.2093 16.6512 20.2093H7.34884C5.84654 20.2093 4.48804 19.8338 3.50201 18.9182C2.50662 17.9939 2 16.6213 2 14.8605V8.34884C2 6.58795 2.50662 5.21537 3.50201 4.29107Z" fill="#305986"/>
<path fill-rule="evenodd" clip-rule="evenodd" d="M17.1963 8.37855C17.4368 8.67961 17.3876 9.11862 17.0866 9.35909L14.1741 11.6854C12.9616 12.6506 11.0291 12.6506 9.81662 11.6854L9.8149 11.684L6.91258 9.35841C6.61189 9.11747 6.56345 8.67839 6.80439 8.37769C7.04533 8.077 7.48441 8.02856 7.7851 8.2695L10.6865 10.5944C11.3903 11.1539 12.6011 11.1538 13.3047 10.594L16.2158 8.26882C16.5168 8.02835 16.9558 8.07748 17.1963 8.37855Z" fill="#305986"/>
</svg>
