<svg width="20" height="18" viewBox="0 0 20 18" fill="inherit" xmlns="http://www.w3.org/2000/svg">
<path fill-rule="evenodd" clip-rule="evenodd" d="M9.99984 4.46139C7.72721 4.46139 5.88973 6.29887 5.88973 8.5715C5.88973 10.8441 7.72721 12.6816 9.99984 12.6816C12.2725 12.6816 14.11 10.8441 14.11 8.5715C14.11 6.29887 12.2725 4.46139 9.99984 4.46139ZM7.31356 8.5715C7.31356 7.08523 8.51357 5.88521 9.99984 5.88521C11.4861 5.88521 12.6861 7.08523 12.6861 8.5715C12.6861 10.0578 11.4861 11.2578 9.99984 11.2578C8.51357 11.2578 7.31356 10.0578 7.31356 8.5715Z" fill="inherit"/>
<path fill-rule="evenodd" clip-rule="evenodd" d="M10 0C6.34743 0 3.02175 2.15339 0.752249 5.7209C0.23474 6.53192 0 7.57091 0 8.56668C0 9.56226 0.23465 10.601 0.751952 11.412C3.02146 14.9798 6.34727 17.1334 10 17.1334C13.6527 17.1334 16.9785 14.9798 19.248 11.412C19.7654 10.601 20 9.56226 20 8.56668C20 7.5711 19.7654 6.53232 19.248 5.72136C16.9785 2.15358 13.6527 0 10 0ZM1.95332 6.48556C4.03122 3.21898 6.95125 1.42383 10 1.42383C13.0487 1.42383 15.9688 3.21898 18.0467 6.48556L18.0473 6.4865C18.3839 7.0138 18.5762 7.76862 18.5762 8.56668C18.5762 9.36474 18.3839 10.1196 18.0473 10.6469L18.0467 10.6478C15.9688 13.9144 13.0487 15.7095 10 15.7095C6.95126 15.7095 4.03122 13.9144 1.95332 10.6478L1.95272 10.6469C1.61614 10.1196 1.42383 9.36474 1.42383 8.56668C1.42383 7.76862 1.61614 7.0138 1.95272 6.4865L1.95332 6.48556Z" fill="inherit"/>
</svg>
