<svg width="20" height="20" viewBox="0 0 20 20" fill="none" xmlns="http://www.w3.org/2000/svg">
<path fill-rule="evenodd" clip-rule="evenodd" d="M19.7957 1.191C20.0681 0.918545 20.0681 0.476802 19.7957 0.204344C19.5232 -0.0681146 19.0815 -0.0681146 18.809 0.204344L15.5636 3.44978C13.8912 2.265 11.9849 1.60928 10.0001 1.60928C6.42056 1.60928 3.16139 3.71961 0.937285 7.21575C0.430126 8.01055 0.200081 9.02876 0.200081 10.0046C0.200081 10.9805 0.430118 11.9986 0.937256 12.7934C1.63988 13.8963 2.45209 14.8672 3.33972 15.6736L0.204344 18.809C-0.0681146 19.0815 -0.0681146 19.5232 0.204344 19.7957C0.476802 20.0681 0.918545 20.0681 1.191 19.7957L8.13983 12.8468L8.14527 12.8413L12.8413 8.14527C12.8432 8.14347 12.845 8.14166 12.8468 8.13983L19.7957 1.191ZM12.3109 6.7024L14.5605 4.45281C13.1514 3.5059 11.5934 3.00463 10.0001 3.00463C7.0123 3.00463 4.15068 4.76388 2.11433 7.96513L2.11375 7.96604C1.7839 8.4828 1.59543 9.22252 1.59543 10.0046C1.59543 10.7867 1.7839 11.5264 2.11375 12.0432C2.76823 13.0705 3.5195 13.9603 4.32766 14.6857L6.70228 12.3111C6.24222 11.6573 5.97201 10.862 5.97201 10C5.97201 7.77285 7.77274 5.97213 9.99991 5.97213C10.8618 5.97213 11.6572 6.24234 12.3109 6.7024ZM7.36736 10C7.36736 8.54348 8.54337 7.36747 9.99991 7.36747C10.4747 7.36747 10.9176 7.49206 11.3014 7.71193L7.71182 11.3015C7.49194 10.9177 7.36736 10.4748 7.36736 10Z" fill="#323232"/>
<path d="M17.0512 5.67027C17.3514 5.42877 17.7906 5.47639 18.0321 5.77663C18.3892 6.2206 18.74 6.69767 19.0636 7.20751C19.5702 8.00216 19.8001 9.01989 19.8001 9.9953C19.8001 10.9711 19.57 11.9894 19.0629 12.7842C16.8388 16.2803 13.5796 18.3906 10.0001 18.3906C8.75681 18.3906 7.53947 18.1277 6.39913 17.6476C6.04401 17.4981 5.87734 17.089 6.02687 16.7339C6.17639 16.3787 6.58548 16.2121 6.9406 16.3616C7.92119 16.7745 8.95501 16.9953 10.0001 16.9953C12.9879 16.9953 15.8495 15.236 17.8858 12.0348L17.8864 12.0339C18.2163 11.5171 18.4047 10.7774 18.4047 9.9953C18.4047 9.2132 18.2163 8.47348 17.8864 7.95672L17.8854 7.95518C17.595 7.49758 17.2761 7.06302 16.9448 6.65118C16.7033 6.35094 16.7509 5.91177 17.0512 5.67027Z" fill="#323232"/>
<path d="M13.9513 10.7776C14.0211 10.3987 13.7706 10.0349 13.3917 9.965C13.0128 9.89513 12.6489 10.1457 12.5791 10.5246C12.3897 11.5517 11.5425 12.3989 10.5154 12.5883C10.1365 12.6581 9.88593 13.022 9.95581 13.4009C10.0257 13.7798 10.3895 14.0303 10.7684 13.9605C12.3646 13.6661 13.6569 12.3738 13.9513 10.7776Z" fill="#323232"/>
</svg>
