<svg width="34" height="34" viewBox="0 0 34 34" fill="none" xmlns="http://www.w3.org/2000/svg">
<path d="M0.5 8C0.5 3.85786 3.85786 0.5 8 0.5H26C30.1421 0.5 33.5 3.85786 33.5 8V26C33.5 30.1421 30.1421 33.5 26 33.5H8C3.85786 33.5 0.5 30.1421 0.5 26V8Z" stroke="#305986"/>
<path d="M18.5605 13.2129C18.5809 13.1898 18.6767 13.1143 19.0529 13.1143L20.2862 13.1138C20.6875 13.1138 21.0137 12.7874 21.0137 12.3862V10.2306C21.0137 9.83005 20.6879 9.50366 20.2874 9.50298L18.4554 9.5C17.3247 9.5 16.3635 9.87296 15.6757 10.5787C14.991 11.2813 14.6291 12.262 14.6291 13.4148V14.5774H13.2276C12.8264 14.5774 12.5 14.9038 12.5 15.305V17.6266C12.5 18.0278 12.8264 18.3542 13.2276 18.3542H14.6291V23.7724C14.6291 24.1736 14.9554 24.5 15.3567 24.5H17.7588C18.16 24.5 18.4864 24.1736 18.4864 23.7724V18.3543H20.1995C20.6007 18.3543 20.927 18.0278 20.927 17.6268L20.9279 15.3051C20.9279 15.0416 20.7845 14.7977 20.5536 14.6687C20.4466 14.609 20.3221 14.5774 20.1936 14.5774H18.4864V13.6589C18.4864 13.3595 18.5267 13.2512 18.5605 13.2129Z" fill="#305986"/>
</svg>
