<svg width="80" height="80" viewBox="0 0 80 80" fill="none" xmlns="http://www.w3.org/2000/svg">
<path d="M57.794 72.2698L58.5698 70.1081C60.876 69.0474 63.0339 67.6414 64.9777 65.9172C64.9853 65.9104 64.993 65.9036 65.0006 65.8968C65.1231 65.7878 65.2445 65.6793 65.3661 65.5683C66.827 64.2195 67.6814 62.4296 67.8727 60.5624L69.5577 60.3513C70.0016 60.2958 70.3163 59.8904 70.2609 59.4465C70.2054 59.0026 69.8 58.6878 69.3561 58.7432L67.8709 58.9297C67.7634 57.9076 67.4562 56.8937 66.9356 55.9468C66.147 54.5097 64.948 53.3758 63.5129 52.6664L64.4728 50.9005C64.6862 50.508 64.5407 50.0159 64.1478 49.8014C63.7553 49.588 63.2631 49.7336 63.0487 50.1265L61.9784 52.0949C61.833 52.0574 61.687 52.0238 61.5392 51.9944C59.2385 51.538 56.8712 52.1196 55.0434 53.5883L52.3737 55.7347C52.1144 55.9435 51.8511 56.1459 51.5832 56.3432L48.9665 55.3396C47.6469 54.8333 46.2032 55.0619 45.1038 55.9499C44.0044 56.838 43.4786 58.2025 43.6973 59.5987L43.7984 60.2474C42.2691 60.709 40.6953 61.0286 39.1013 61.1971L37.548 59.4679C36.917 58.7647 35.9831 58.437 35.0502 58.5908C34.1174 58.7446 33.3384 59.3552 32.9666 60.2246L32.4908 61.3361L31.163 61.3363L30.4059 59.9644C28.785 57.0268 25.1522 55.8791 22.137 57.3523L20.5896 58.1083C20.1819 58.3081 19.9271 58.7136 19.9248 59.1682C19.9248 59.3351 19.9575 59.4962 20.0201 59.642C20.1283 59.894 20.3236 60.1052 20.5817 60.2329L22.3486 61.1101C22.9654 61.4164 23.399 62.0046 23.5104 62.683L23.6716 63.6632C23.7808 64.3308 24.35 64.8327 25.0258 64.8575L29.4678 65.0243C29.9313 65.4799 30.4096 65.915 30.901 66.3315C30.3977 67.4172 30.3872 68.6216 30.8409 69.6783C31.0454 70.1546 31.344 70.601 31.7329 70.9922C33.0889 72.3549 35.1153 72.6188 36.7753 71.6488L38.3307 70.7389C39.9702 71.3687 41.6806 71.8353 43.4448 72.1261C43.8861 72.1987 44.303 71.8998 44.3756 71.4585C44.4482 71.0172 44.1493 70.6003 43.708 70.5277C42.5283 70.3338 41.3744 70.0548 40.2526 69.6974C40.1216 67.1425 39.0718 64.7576 37.2961 62.9429C37.7991 62.9267 38.3005 62.8983 38.7998 62.8543C38.8309 62.8527 38.8625 62.8497 38.8933 62.8447C40.9309 62.6584 42.9389 62.2417 44.8755 61.6064C44.9401 61.5928 45.0018 61.5722 45.0581 61.5445C46.847 60.9432 48.5728 60.1564 50.2027 59.1957L51.5464 59.7881C53.6206 60.7025 56.0052 60.7139 58.0889 59.8193L58.2645 59.7439C58.4452 60.0224 58.6149 60.308 58.7705 60.6019C58.9104 60.865 59.0603 61.1238 59.2183 61.3768L58.1479 62.3405C57.4976 62.9253 56.7611 63.3966 55.9583 63.7413L55.2767 64.034C54.1366 64.5235 53.3312 65.5462 53.1222 66.7699C53.0013 67.4764 53.0907 68.1854 53.3633 68.8205C53.5491 69.2531 53.821 69.651 54.1689 69.9905C51.8743 70.6185 49.4759 70.9115 47.036 70.845C46.5888 70.8326 46.2161 71.1853 46.2036 71.6325C46.1912 72.0797 46.5439 72.4524 46.9911 72.4649C47.8841 72.4892 48.7716 72.4678 49.6519 72.4024C49.6738 72.4588 49.6956 72.5152 49.7191 72.5698C50.3534 74.0472 51.7239 75.0276 53.405 75.1413C55.3959 75.276 57.1172 74.1503 57.7914 72.272L57.794 72.2698ZM45.2985 59.3483C45.1705 58.5301 45.4782 57.7305 46.1228 57.2093C46.7665 56.6885 47.613 56.5554 48.3862 56.8509L49.9534 57.4519C48.4991 58.3619 46.9582 59.1222 45.3571 59.7203L45.299 59.3469L45.2985 59.3483ZM34.4568 60.8598C34.6124 60.4969 34.9256 60.2519 35.3149 60.187C35.7042 60.1221 36.0796 60.2547 36.3431 60.5482L37.0432 61.3275C36.848 61.3326 36.6538 61.3349 36.4575 61.3346L34.2537 61.3337L34.4564 60.8588L34.4568 60.8598ZM25.2459 63.2435L25.1105 62.4191C24.9147 61.2269 24.1519 60.1948 23.0701 59.6568L22.096 59.1726L22.8478 58.8051C25.0858 57.7114 27.7833 58.5639 28.9867 60.7454L29.7858 62.1932L29.282 63.3955L25.2449 63.2439L25.2459 63.2435ZM32.883 69.8474C32.3501 69.3124 31.9265 68.3943 32.2273 67.3814C33.5652 68.3735 34.9889 69.2288 36.4818 69.9415L35.9585 70.2473C34.7092 70.9776 33.5201 70.4881 32.883 69.8474ZM38.5732 69.0894C38.5562 69.0826 38.5396 69.0768 38.5225 69.07C35.6599 67.9124 33.0377 66.2144 30.7716 64.0321L31.2232 62.9545L33.0168 62.9553C33.0168 62.9553 33.0226 62.9551 33.025 62.9553L34.8501 62.9555L35.3496 63.3579C37.1445 64.8013 38.2819 66.8454 38.5722 69.0898L38.5732 69.0894ZM52.202 58.3044L51.844 58.1467C51.9448 58.0776 52.0441 58.0079 52.1441 57.9368C52.1672 57.9222 52.1894 57.9056 52.2112 57.888C52.611 57.6011 53.0036 57.3057 53.3878 56.9962L54.5061 56.0976L54.8315 56.3081C55.7356 56.8918 56.551 57.6005 57.2578 58.4064C55.6332 59.0428 53.8023 59.0099 52.202 58.3044ZM60.204 59.8407C59.1737 57.901 57.6653 56.2407 55.8347 55.0289L56.0575 54.8498C57.5113 53.6815 59.3942 53.2197 61.2234 53.5825C63.0525 53.9452 64.6161 55.0907 65.5141 56.7252C66.8876 59.2261 66.41 62.315 64.3615 64.2851L63.8962 63.9678C62.3553 62.9161 61.0795 61.4884 60.204 59.8407ZM55.3466 68.8715C54.8318 68.3979 54.6041 67.7307 54.7216 67.041C54.8391 66.3512 55.2757 65.7971 55.9187 65.521L56.6004 65.2284C57.5668 64.8134 58.4526 64.2462 59.2341 63.5429L60.1666 62.7041C60.9731 63.7011 61.9227 64.5825 62.983 65.3059L63.1007 65.3858C61.4018 66.7687 59.546 67.9039 57.5788 68.7744C57.0436 69.0113 56.5008 69.2278 55.951 69.4252L55.3471 68.87L55.3466 68.8715ZM53.5175 73.5231C52.7403 73.4701 51.8539 73.0916 51.3536 72.2193C53.1352 71.9703 54.8756 71.538 56.5536 70.9327L56.2701 71.7231C55.7569 73.1526 54.5125 73.5906 53.5185 73.5226L53.5175 73.5231Z" fill="#305986"/>
<path d="M51.1865 63.8711L50.7341 64.0654C48.313 65.1049 45.6557 65.4573 43.0465 65.084C42.6032 65.0205 42.1935 65.3281 42.13 65.7713C42.1085 65.9239 42.1303 66.0732 42.187 66.2052C42.2948 66.4562 42.527 66.6467 42.8173 66.6878C45.7207 67.1029 48.6792 66.7104 51.3731 65.5537L51.8256 65.3595C52.2364 65.1831 52.4266 64.7065 52.2502 64.2958C52.0739 63.885 51.5973 63.6947 51.1865 63.8711Z" fill="#305986"/>
<path d="M60.5259 10.6506L58.2808 11.1348C56.1613 9.73793 53.8271 8.64945 51.336 7.91097C51.3261 7.90807 51.3163 7.90518 51.3065 7.90228C51.1493 7.85597 50.9929 7.81027 50.8345 7.76572C48.9172 7.23865 46.9462 7.45967 45.2601 8.28437L44.1901 6.96566C43.9084 6.61817 43.3978 6.5653 43.0504 6.84703C42.7029 7.12877 42.65 7.63933 42.9317 7.98682L43.8752 9.149C43.0644 9.78052 42.3662 10.5773 41.8376 11.5197C41.0346 12.9488 40.7059 14.5661 40.8624 16.1592L38.856 16.278C38.41 16.3043 38.0692 16.688 38.0949 17.1349C38.1212 17.5808 38.5049 17.9217 38.9518 17.896L41.1885 17.7639C41.2335 17.9071 41.2822 18.0489 41.3353 18.1899C42.1641 20.3841 43.9093 22.0861 46.1223 22.8612L49.3555 23.9927C49.6699 24.1024 49.9809 24.219 50.2899 24.342L50.8214 27.0937C51.0892 28.4815 52.0464 29.5862 53.3814 30.0499C54.7164 30.5137 56.1526 30.2387 57.2221 29.315L57.7194 28.8862C58.9196 29.9404 60.0229 31.1073 61.0086 32.3713L60.3619 34.6039C60.0985 35.5113 60.3141 36.4772 60.9378 37.1878C61.5615 37.8984 62.4916 38.2368 63.4261 38.0928L64.6212 37.9091L65.3233 39.0361L64.559 40.404C62.9223 43.3328 63.8685 47.0233 66.7129 48.8038L68.1727 49.7177C68.5579 49.9582 69.0368 49.9601 69.4239 49.7217C69.5655 49.6335 69.6849 49.5206 69.7756 49.3903C69.9324 49.1652 70.0084 48.8879 69.9803 48.6013L69.7909 46.6378C69.7248 45.9523 69.995 45.2733 70.5119 44.82L71.2587 44.165C71.7677 43.7194 71.8928 42.971 71.5566 42.3842L69.35 38.5254C69.4916 37.8911 69.6081 37.2551 69.7019 36.6178C70.8896 36.4711 71.9175 35.8433 72.5746 34.8996C72.8708 34.4742 73.0919 33.9847 73.2184 33.4478C73.6583 31.5764 72.811 29.7167 71.11 28.8205L69.5154 27.9812C69.1834 26.2566 68.6753 24.558 67.9895 22.9068C67.8178 22.4939 67.3437 22.2979 66.9307 22.4696C66.5178 22.6413 66.3219 23.1154 66.4935 23.5284C66.9526 24.6322 67.3258 25.7592 67.6154 26.9004C65.5159 28.3622 64.0465 30.5141 63.4448 32.9807C63.1651 32.5623 62.876 32.1517 62.5746 31.7511C62.5569 31.7256 62.5376 31.7003 62.5171 31.6769C61.2818 30.0457 59.8665 28.5615 58.3036 27.2535C58.2578 27.2058 58.2078 27.1644 58.1545 27.1313C56.6984 25.9306 55.1182 24.8816 53.4411 24.0059L53.2336 22.5522C52.9132 20.3081 51.6624 18.2778 49.8014 16.9821L49.6446 16.8729C49.7855 16.5723 49.9382 16.2773 50.1055 15.9898C50.2548 15.7319 50.3952 15.4679 50.5265 15.2L51.9104 15.5992C52.7505 15.8421 53.54 16.2181 54.2569 16.7173L54.8657 17.1412C55.8839 17.8501 57.1778 17.9932 58.3271 17.5237C58.9907 17.2528 59.5453 16.8021 59.9402 16.235C60.2092 15.8486 60.4032 15.4074 60.5075 14.9326C62.2535 16.5484 63.7702 18.4294 65.0036 20.5357C65.2295 20.9219 65.7259 21.0517 66.1121 20.8259C66.4983 20.6001 66.6281 20.1036 66.4023 19.7174C65.9509 18.9465 65.4636 18.2046 64.9427 17.4919C64.979 17.4435 65.0153 17.3951 65.0493 17.3464C65.9681 16.0269 66.0758 14.3453 65.2836 12.8581C64.3454 11.097 62.4799 10.231 60.5291 10.6516L60.5259 10.6506ZM56.1632 28.0882C55.5364 28.6294 54.695 28.7909 53.9117 28.5192C53.1294 28.2481 52.5689 27.6 52.411 26.7874L52.0927 25.1394C53.6339 25.8928 55.0938 26.7988 56.448 27.8417L56.1617 28.0884L56.1632 28.0882ZM63.1776 36.492C62.7872 36.5518 62.4137 36.4155 62.1528 36.1193C61.8919 35.8232 61.806 35.4344 61.9159 35.0556L62.2073 34.0493C62.3149 34.2124 62.4194 34.3759 62.5229 34.5428L63.6872 36.414L63.1769 36.4929L63.1776 36.492ZM70.0702 43.0506L69.442 43.6014C68.5335 44.3977 68.0606 45.5909 68.1759 46.7935L68.2798 47.8764L67.5704 47.4325C65.459 46.111 64.7566 43.3705 65.9721 41.1958L66.7787 39.7521L68.0656 39.5442L70.0711 43.0512L70.0702 43.0506ZM71.6386 33.0767C71.4662 33.8119 70.9108 34.6568 69.892 34.937C70.0269 33.2769 70.0003 31.6162 69.816 29.9722L70.3522 30.2547C71.6326 30.9291 71.8457 32.1973 71.6386 33.0767ZM67.9871 28.6474C67.9904 28.6654 67.9942 28.6826 67.9974 28.7006C68.5281 31.7425 68.473 34.866 67.8185 37.9432L66.665 38.1296L65.7175 36.6066C65.7175 36.6066 65.7143 36.6018 65.7132 36.5997L64.7485 35.0503L64.8261 34.4136C65.1024 32.127 66.2363 30.0809 67.988 28.648L67.9871 28.6474ZM51.6276 22.78L51.6829 23.1672C51.571 23.1182 51.4593 23.0708 51.3462 23.0235C51.3215 23.0116 51.2957 23.0015 51.2692 22.9923C50.8144 22.8046 50.3561 22.6276 49.8903 22.4651L48.5363 21.9907L48.5429 21.6032C48.5605 20.5273 48.731 19.4605 49.0414 18.4345C50.4405 19.4771 51.3804 21.0487 51.6276 22.78ZM48.7015 15.1754C47.5996 17.0753 46.9877 19.2335 46.9268 21.4279L46.657 21.3335C44.8968 20.7171 43.5094 19.3629 42.8503 17.6184C42.1913 15.874 42.337 13.9412 43.2497 12.3149C44.6466 9.82692 47.521 8.59942 50.2763 9.29681L50.2529 9.8595C50.1747 11.7235 49.6373 13.5612 48.7015 15.1754ZM58.935 14.5246C58.8052 15.2118 58.3592 15.7579 57.7116 16.0227C57.064 16.2876 56.3628 16.2099 55.7886 15.8101L55.1798 15.3862C54.3167 14.7852 53.367 14.3331 52.3568 14.0416L51.1519 13.6934C51.5718 12.4818 51.818 11.2098 51.8715 9.9273L51.8771 9.78513C53.9491 10.4963 55.8938 11.4714 57.6726 12.681C58.1566 13.0102 58.6274 13.3564 59.0855 13.7188L58.9335 14.5248L58.935 14.5246ZM63.8504 13.6182C64.2164 14.3058 64.3636 15.2584 63.8877 16.1441C62.7345 14.7635 61.4474 13.5147 60.0466 12.4104L60.8674 12.2332C62.3521 11.913 63.3818 12.7379 63.8496 13.6175L63.8504 13.6182Z" fill="#0E8388"/>
<path d="M56.8897 20.6992L57.2938 20.9805C59.456 22.4861 61.1599 24.5554 62.2224 26.9677C62.4029 27.3775 62.8805 27.5627 63.2903 27.3823C63.4312 27.3198 63.5464 27.2224 63.6285 27.1045C63.7846 26.8803 63.8235 26.5825 63.705 26.3144C62.5224 23.6304 60.6253 21.3265 58.2193 19.6513L57.8152 19.3699C57.4484 19.1145 56.9433 19.2049 56.6878 19.5718C56.4324 19.9386 56.5228 20.4437 56.8897 20.6992Z" fill="#0E8388"/>
<path d="M18.3971 37.5929V37.1005C18.3971 34.4657 19.1217 31.8839 20.4941 29.6346C20.7274 29.2523 20.6064 28.7545 20.2242 28.5213C19.8419 28.288 19.3441 28.409 19.1109 28.7912C17.584 31.2954 16.7774 34.1688 16.7774 37.1005V37.5929C16.7774 38.0399 17.1402 38.4028 17.5872 38.4028C18.0343 38.4028 18.3971 38.0399 18.3971 37.5929Z" fill="#FDB034"/>
<path d="M35.8514 13.4728L35.7672 11.7527C35.7456 11.2981 35.4724 10.9039 35.0556 10.7236C34.6388 10.5433 34.1636 10.6135 33.8181 10.9082L32.315 12.1857C31.7902 12.6317 31.0786 12.7979 30.4113 12.6327L29.4459 12.3941C28.7894 12.231 28.1037 12.5561 27.8143 13.1672L25.9084 17.1831C25.3091 17.4293 24.7195 17.696 24.1429 17.9843C22.9831 16.6907 21.182 16.2566 19.5309 16.911C17.7438 17.6194 16.7018 19.3773 16.9383 21.2854L17.1607 23.0779C16.9469 23.2971 16.7363 23.5206 16.5301 23.7474C16.5258 23.7528 16.5204 23.7582 16.5161 23.7636C15.9319 24.4082 15.3779 25.082 14.8574 25.7861C14.5918 26.1457 14.6685 26.6532 15.0281 26.9188C15.3876 27.1845 15.8952 27.1078 16.1608 26.7482C16.542 26.2321 16.9447 25.7343 17.3637 25.2516C18.5375 25.6846 19.7598 25.9016 20.9801 25.9016C22.2003 25.9016 23.523 25.6662 24.7314 25.1987C24.5478 25.6662 24.3761 26.1392 24.2195 26.6154C24.2077 26.6446 24.199 26.6748 24.1904 26.705C23.5576 28.6509 23.1483 30.6604 22.968 32.6894C22.9551 32.7542 22.9497 32.819 22.9529 32.8827C22.7996 34.7638 22.8417 36.6589 23.0814 38.5356L22.007 39.5366C20.3484 41.0818 19.397 43.2685 19.397 45.5361V45.7272C19.0698 45.7834 18.7405 45.8255 18.409 45.8536C18.112 45.8784 17.8151 45.914 17.5203 45.9594L17.057 44.5956C16.7763 43.7673 16.6338 42.9046 16.6338 42.031V41.2891C16.6338 40.0484 16.0118 38.9049 14.9697 38.23C13.9623 37.5778 12.7161 37.4644 11.6115 37.9169C12.0121 35.0229 12.931 32.1938 14.3564 29.5763C14.5702 29.1832 14.4255 28.6908 14.0325 28.477C13.6394 28.2632 13.147 28.4079 12.9332 28.801C12.227 30.0968 11.6396 31.4411 11.1677 32.819C9.48531 32.7488 7.96275 33.6299 7.16476 35.1871C6.25555 36.9634 6.61081 38.9891 8.07074 40.3497L9.76498 41.9284C9.82761 44.4498 10.2563 46.9701 11.0565 49.4051C11.0651 49.4354 11.0748 49.4656 11.0867 49.4947C11.1374 49.647 11.1882 49.8003 11.2411 49.9515C11.9041 51.8261 13.2118 53.3173 14.852 54.2309L14.3812 55.8614C14.2571 56.2912 14.5054 56.7404 14.9352 56.8646C15.0097 56.8862 15.0853 56.8969 15.1598 56.8969C15.5118 56.8969 15.8358 56.6659 15.9383 56.3106L16.353 54.8734C17.0981 55.1044 17.8853 55.2275 18.6908 55.2275C18.9467 55.2275 19.2048 55.2157 19.4629 55.1897C21.0945 55.0321 22.6095 54.3777 23.8276 53.3389L25.0715 54.9176C25.2313 55.1206 25.4689 55.2265 25.7086 55.2265C25.8846 55.2265 26.0606 55.1692 26.2097 55.0526C26.5606 54.7762 26.6211 54.2665 26.3446 53.9145L24.9581 52.1544C25.0499 52.0356 25.1385 51.9146 25.2238 51.7905C26.5509 49.8565 26.9504 47.4517 26.322 45.1927L25.403 41.8928C25.3134 41.5721 25.2313 41.2503 25.1557 40.9263L27.1102 38.9179C28.0961 37.905 28.4557 36.4882 28.0734 35.1277C27.6901 33.7671 26.6448 32.7456 25.2756 32.3957L24.6396 32.2326C24.8188 30.6453 25.146 29.0731 25.6201 27.5419L27.8218 26.7968C28.717 26.4945 29.3865 25.7656 29.6133 24.8477C29.84 23.9299 29.5863 22.9731 28.934 22.2885L28.1004 21.4128L28.6241 20.1926L30.1834 20.0382C30.6391 19.9928 31.0948 19.8967 31.5353 19.7509C31.9608 19.6106 32.1908 19.1527 32.0515 18.7283C31.9111 18.3029 31.4533 18.0729 31.0289 18.2122C30.7006 18.3202 30.3627 18.3925 30.0247 18.426L28.379 18.589L27.473 17.6518L29.2051 14.0019L30.016 14.2028C31.1887 14.4933 32.4381 14.2006 33.3592 13.4178L34.1885 12.7137L34.2295 13.5495C34.2803 14.5861 33.9941 15.585 33.4024 16.438C33.1475 16.8052 33.2382 17.3105 33.6065 17.5654C33.9736 17.8202 34.479 17.7295 34.7338 17.3613C35.5318 16.2124 35.9162 14.8669 35.8482 13.4696L35.8514 13.4728ZM20.1281 18.4163C20.83 18.1377 21.8428 18.1107 22.6549 18.7888C21.2187 19.6268 19.8689 20.5997 18.6217 21.6925L18.5461 21.0845C18.368 19.6484 19.2869 18.7489 20.1281 18.4163ZM18.585 23.9461C20.7922 21.7529 23.4064 19.9928 26.3036 18.7705L27.1156 19.6106L26.4083 21.2573C26.4083 21.2573 26.4051 21.2649 26.4029 21.2692L25.6838 22.944L25.1169 23.2442C23.0846 24.3229 20.7598 24.5616 18.5839 23.9461H18.585ZM23.1127 40.7222L23.3989 40.4555C23.4226 40.5743 23.4475 40.6942 23.4734 40.8129C23.4777 40.841 23.4842 40.8691 23.4917 40.8972C23.5975 41.3766 23.7142 41.8539 23.8459 42.3279L24.2303 43.7101L23.9085 43.9261C23.0155 44.5265 22.0426 44.9962 21.0232 45.3277C21.0794 43.5838 21.832 41.9144 23.1116 40.7222H23.1127ZM12.1622 39.4426C12.8004 39.1565 13.5033 39.2105 14.0908 39.5906C14.6782 39.9707 15.0151 40.5905 15.0151 41.2902V42.0321C15.0151 43.0838 15.1868 44.1215 15.5248 45.1171L15.9275 46.3049C14.6933 46.6526 13.5087 47.1774 12.4257 47.8664L12.3069 47.942C11.5489 45.2705 11.2595 42.5072 11.429 39.772L12.1633 39.4426H12.1622ZM8.60957 35.9267C8.96483 35.2324 9.66564 34.5651 10.6688 34.4517C10.2606 35.957 9.99067 37.4936 9.85677 39.042C9.83625 39.1252 9.82869 39.2116 9.83517 39.299C9.82329 39.4502 9.81358 39.6003 9.80494 39.7515L9.17648 39.1662C8.06534 38.1307 8.15388 36.8144 8.60849 35.9278L8.60957 35.9267ZM23.8913 50.8748C22.8363 52.4124 21.1669 53.3972 19.3106 53.5776C16.4696 53.8518 13.8208 52.1954 12.8187 49.5358L13.2939 49.2334C14.8682 48.2324 16.6834 47.6223 18.5429 47.469C20.7317 47.2876 22.8525 46.5565 24.6882 45.3525L24.7648 45.6279C25.2648 47.4247 24.9463 49.3371 23.8913 50.8748ZM24.8771 33.9668C25.6795 34.172 26.2928 34.7702 26.5174 35.5682C26.742 36.3651 26.5304 37.1955 25.9537 37.7894L24.7832 38.9924C24.5208 37.297 24.4301 35.5812 24.5122 33.874L24.8782 33.9679L24.8771 33.9668ZM27.7646 23.4083C28.0367 23.6945 28.1382 24.0789 28.0443 24.4622C27.9492 24.8456 27.6804 25.1382 27.3068 25.2645L26.3144 25.6004C26.3867 25.42 26.4612 25.2397 26.539 25.0604L27.4093 23.0358L27.7657 23.4094L27.7646 23.4083Z" fill="#FDB034"/>
</svg>
