<svg width="80" height="80" viewBox="0 0 80 80" fill="none" xmlns="http://www.w3.org/2000/svg">
<path d="M40.7089 30.9197C39.6199 30.5138 38.4804 30.3361 37.3528 30.3758C37.8938 29.7842 38.3355 29.0993 38.6571 28.3389C39.3956 26.5899 39.4085 24.6583 38.6928 22.9003C38.0744 21.3806 36.9389 20.114 35.4976 19.3348C35.2226 19.1859 35.0658 18.8752 35.1164 18.5775C35.3129 17.4141 35.1809 16.22 34.7352 15.1241C34.1853 13.7741 33.1798 12.6455 31.9033 11.9457C31.667 11.8157 31.5132 11.5775 31.4923 11.3075C31.4467 10.7278 31.3017 10.163 31.0605 9.62795C30.0084 7.29528 27.2876 6.1081 24.8656 6.92602C23.5305 7.37667 22.4733 8.32761 21.8887 9.60412C21.5035 10.4449 21.3636 11.374 21.4668 12.2802C19.8895 11.3293 17.8378 11.2747 16.2049 12.2822C15.0058 13.0217 14.1899 14.1871 13.908 15.5629C13.769 16.2388 13.774 16.9327 13.9119 17.5977C13.095 17.1967 12.1749 17.018 11.2557 17.0974C9.85708 17.2185 8.60538 17.8945 7.73187 19.0003C6.14764 21.0064 6.35013 23.9684 8.19344 25.7432C8.6163 26.1502 9.09971 26.4768 9.62977 26.714C9.87792 26.8252 10.0506 27.0495 10.0933 27.3155C10.3226 28.7528 11.0482 30.08 12.1342 31.0508C13.0166 31.8399 14.0966 32.366 15.2579 32.5715C15.5557 32.6241 15.796 32.8762 15.8436 33.1849C16.0927 34.8049 16.9037 36.2998 18.1266 37.3927C19.4389 38.5659 21.1025 39.2002 22.8486 39.2002C22.9855 39.2002 23.1225 39.1963 23.2605 39.1883C24.0844 39.1417 24.8785 38.956 25.617 38.6453C25.3966 39.2022 25.2308 39.7859 25.1276 40.3904C24.7355 42.6724 25.2537 44.9654 26.5868 46.8474C28.6574 49.7717 32.0323 51.4631 35.4241 51.4631C36.3979 51.4631 37.3726 51.3241 38.3186 51.0343C38.7296 50.9082 38.9598 50.4735 38.8348 50.0625C38.7087 49.6516 38.2739 49.4213 37.863 49.5464C34.2538 50.6511 30.1384 49.1711 27.8554 45.9481C26.7625 44.4055 26.3386 42.5255 26.6602 40.6534C26.9858 38.7615 28.0291 37.1098 29.5984 36.004L31.5479 34.6302C31.5479 34.6302 31.5499 34.6292 31.5509 34.6282C31.5519 34.6282 31.5529 34.6262 31.5539 34.6262L33.5252 33.2365C35.4628 31.8717 37.9444 31.5501 40.1639 32.3769C40.5659 32.5268 41.0146 32.3223 41.1645 31.9193C41.3144 31.5173 41.1099 31.0686 40.7069 30.9188L40.7089 30.9197ZM23.3032 10.2503C23.7072 9.36788 24.4387 8.71076 25.3629 8.39809C27.0364 7.83328 28.9155 8.65418 29.6431 10.2662C29.8098 10.6365 29.9111 11.0266 29.9418 11.4266C30.0044 12.2217 30.458 12.9254 31.1558 13.3076C32.1336 13.8436 32.8731 14.6735 33.2949 15.7078C33.6324 16.5366 33.7317 17.4379 33.5838 18.3154C33.421 19.2753 33.8935 20.2332 34.7591 20.7007C35.8847 21.3092 36.7701 22.2978 37.2535 23.484C37.8124 24.8568 37.8024 26.3656 37.2257 27.7314C36.6679 29.0526 35.6425 30.0859 34.3312 30.6557C34.3858 30.4522 34.4325 30.2448 34.4692 30.0353C34.7948 28.1652 34.3719 26.2802 33.2781 24.7278C32.3331 23.3867 30.9414 22.409 29.3612 21.9742C29.0594 21.8918 28.8371 21.6228 28.8192 21.3221C28.7487 20.1448 28.3507 19.0102 27.6687 18.0434C26.8578 16.892 25.6765 16.0393 24.3335 15.6274C24.3841 15.0199 24.1965 14.4114 23.7955 13.932C23.5662 13.658 23.3806 13.3483 23.2446 13.0138C22.8783 12.1145 22.8992 11.1328 23.3042 10.2503H23.3032ZM15.4327 15.8735C15.6272 14.9226 16.192 14.1176 17.0218 13.6044C17.5777 13.261 18.2041 13.0962 18.8274 13.0962C19.8876 13.0962 20.9377 13.5736 21.6127 14.4591C21.8589 14.7826 22.0445 15.14 22.1656 15.5222C22.4058 16.2835 23.0064 16.8662 23.7717 17.0816C24.8457 17.3833 25.753 18.0256 26.3962 18.9388C26.9114 19.6693 27.2121 20.526 27.2647 21.4144C27.3223 22.3852 27.9993 23.213 28.9472 23.4741C30.1811 23.8135 31.266 24.5769 32.0045 25.6241C32.8582 26.8361 33.1887 28.3082 32.9346 29.7683C32.7252 30.9704 32.1395 32.0454 31.263 32.8633C31.2442 32.8256 31.2233 32.7879 31.1985 32.7521L23.7995 22.2541C23.5523 21.9027 23.0669 21.8194 22.7155 22.0665C22.3641 22.3137 22.2808 22.7991 22.5279 23.1505L29.927 33.6485C29.9518 33.6842 29.9806 33.716 30.0093 33.7458C28.9909 34.2689 27.8276 34.4624 26.6652 34.2907C25.2467 34.0823 23.9861 33.3547 23.1156 32.2439C22.2599 31.152 21.845 29.7931 21.9453 28.4183C22.0167 27.4366 21.4559 26.5145 20.5496 26.1234C19.7406 25.774 19.0428 25.2062 18.5326 24.4826C17.8894 23.5694 17.5896 22.4983 17.6661 21.3856C17.7207 20.5915 17.3742 19.8301 16.7399 19.3507C16.4541 19.1353 16.2039 18.8752 15.9955 18.5804C15.4366 17.7873 15.2351 16.8265 15.4307 15.8745L15.4327 15.8735ZM23.1741 37.6358C21.6941 37.7202 20.2707 37.2219 19.1649 36.2333C18.21 35.3796 17.5767 34.2133 17.3822 32.9487C17.2323 31.9769 16.4888 31.2096 15.5309 31.0399C14.6544 30.885 13.8385 30.487 13.1724 29.8914C12.3396 29.1469 11.8066 28.1712 11.6309 27.0704C11.5058 26.2852 10.9956 25.6211 10.267 25.2945C9.90075 25.1308 9.56723 24.9044 9.27441 24.6225C8.00087 23.3957 7.85992 21.3499 8.95478 19.9641C9.55929 19.1988 10.4249 18.7303 11.3917 18.6469C12.3595 18.5626 13.2906 18.8733 14.0142 19.5204C14.2842 19.7617 14.5125 20.0406 14.6941 20.3483C15.0108 20.8873 15.521 21.2675 16.1096 21.4243C16.0451 22.8279 16.4521 24.2265 17.2631 25.3779C17.939 26.3368 18.8622 27.0882 19.9352 27.5508C20.23 27.6778 20.4196 27.9885 20.3958 28.3042C20.2667 30.0661 20.7988 31.8062 21.8927 33.2028C23.0103 34.6292 24.6253 35.5623 26.4399 35.8293C26.5967 35.8521 26.7535 35.869 26.9104 35.8819C25.9316 36.9311 24.6105 37.5535 23.1741 37.6349V37.6358Z" fill="#FDB034"/>
<path fill-rule="evenodd" clip-rule="evenodd" d="M46.9257 17.8874C46.2742 20.1695 47.0398 22.739 48.8768 24.4405C46.2338 24.7133 43.8578 25.8668 42.0836 27.7625C39.8829 30.113 38.6997 33.4532 38.66 37.4207C38.6183 41.5679 39.8065 45.8749 41.9178 49.2349C42.0657 49.4702 42.3178 49.5992 42.5769 49.5992C42.7178 49.5992 42.8608 49.5595 42.9888 49.4791C43.3531 49.2508 43.4623 48.7704 43.234 48.4071C41.3053 45.3379 40.1767 41.2363 40.2144 37.4356C40.2502 33.8641 41.2885 30.8862 43.2181 28.8246C44.99 26.9316 47.4755 25.9023 50.2142 25.9321C51.8966 25.9489 53.4481 26.345 54.8249 27.1083C55.7173 27.6036 56.7565 27.7456 57.7492 27.5093C59.2818 27.145 60.8819 27.1808 62.5068 27.6185C63.3486 27.8448 64.1427 28.1674 64.8683 28.5764C65.2415 28.7878 65.716 28.6558 65.9274 28.2816C66.1388 27.9084 66.0068 27.4339 65.6326 27.2225C64.7938 26.749 63.8776 26.3767 62.9108 26.1167C61.0338 25.6114 59.1766 25.5707 57.3898 25.9966C57.3623 26.0032 57.3347 26.0093 57.307 26.0149C57.9277 24.0245 59.0954 22.2768 60.7202 20.9223C61.0497 20.6463 61.0944 20.156 60.8194 19.8264C60.5435 19.4969 60.0531 19.4522 59.7236 19.7271C58.2006 20.9971 57.0286 22.5695 56.265 24.3499C56.4768 22.3427 55.684 20.2476 54.1043 18.7927C52.258 17.0924 49.6256 16.5345 47.3991 17.3733C47.1689 17.4596 46.9932 17.6502 46.9257 17.8874ZM55.7482 25.7961C55.7369 25.8035 55.7254 25.8106 55.7137 25.8174C55.722 25.8214 55.7303 25.8253 55.7387 25.8292C55.7418 25.8182 55.745 25.8072 55.7482 25.7961ZM48.3282 18.7054C48.0215 20.3323 48.632 22.1011 49.9442 23.3102C51.2575 24.5192 53.07 24.9817 54.6661 24.542C54.9729 22.9161 54.3624 21.1462 53.0502 19.9372C51.7379 18.7282 49.9244 18.2656 48.3282 18.7054Z" fill="#0E8388"/>
<path d="M66.116 49.0809C66.252 49.1762 66.4078 49.2219 66.5617 49.2219C66.8069 49.2219 67.0481 49.1077 67.1989 48.8923C68.7206 46.7235 69.877 44.2697 70.5421 41.7961C70.8727 40.5642 71.0751 39.3482 71.1436 38.1829C71.1694 37.7541 70.8419 37.3858 70.4131 37.361C69.9813 37.3332 69.616 37.6628 69.5912 38.0916C69.5296 39.1517 69.344 40.2615 69.0403 41.3911C68.4219 43.692 67.3449 45.977 65.9264 47.998C65.6792 48.3494 65.7646 48.8338 66.116 49.0809Z" fill="#0E8388"/>
<path d="M73.1824 54.7527C72.8479 53.0711 70.9798 51.9564 68.5558 51.882C68.926 50.4377 68.668 49.1443 67.8064 48.3522C66.6807 47.3169 64.8166 47.3963 63.009 48.4713C62.7698 47.7497 62.334 47.1869 61.7384 46.8553C59.9696 45.8706 57.4136 47.2008 55.9187 49.8838C55.5484 50.5489 55.2695 51.2229 55.0879 51.876C54.392 51.0988 53.5949 50.404 52.7046 49.8094C49.9351 47.9591 46.6108 47.298 43.3431 47.9482C41.6765 48.2797 38.5547 49.2545 34.9922 50.5568C30.9562 52.0309 26.7256 53.7848 23.0787 55.4961C18.5752 57.6094 15.0235 59.6076 12.5231 61.437C9.29014 63.8024 7.89352 65.8333 8.25483 67.6459C8.61515 69.4584 10.6828 70.8004 14.5749 71.7474C17.5845 72.4799 21.6305 72.9663 26.6005 73.1946C28.6652 73.2889 30.8043 73.3316 32.9096 73.3316C39.4292 73.3316 45.6172 72.9256 48.211 72.4095C51.4777 71.7593 54.2957 69.8763 56.146 67.1059C56.7346 66.2244 57.2022 65.2874 57.5466 64.3126C57.9665 64.8546 58.4896 65.3787 59.0971 65.8591C60.4421 66.9242 61.931 67.4722 63.2026 67.4722C64.2081 67.4722 65.0776 67.1297 65.6325 66.4289C66.0554 65.8949 66.242 65.208 66.1874 64.4496C68.2689 64.7514 70.0219 64.1111 70.6651 62.7234C71.1575 61.6623 70.9004 60.3679 70.006 59.1758C72.2166 58.1792 73.5159 56.4342 73.1814 54.7527H73.1824ZM54.8546 66.2423C53.9066 67.6617 52.6678 68.8142 51.2305 69.64L50.4384 65.3916C50.36 64.9697 49.953 64.6908 49.5311 64.7692C49.1093 64.8476 48.8304 65.2536 48.9088 65.6765L49.7217 70.0381C49.7406 70.1403 49.7793 70.2326 49.8319 70.315C49.2155 70.5602 48.5723 70.7518 47.9082 70.8838C45.9845 71.267 41.2517 71.661 35.6126 71.7583L34.7976 67.4007C34.7192 66.9788 34.3122 66.6999 33.8904 66.7793C33.4685 66.8577 33.1896 67.2647 33.269 67.6866L34.0343 71.7772C31.6599 71.794 29.1625 71.7553 26.673 71.6412C21.8032 71.4178 17.8575 70.9453 14.9441 70.2366C11.8362 69.4802 10.0028 68.4529 9.78149 67.3421C9.56013 66.2324 10.8605 64.5806 13.4423 62.6927C15.1585 61.437 17.4019 60.092 20.1356 58.6775C20.082 58.8095 20.0641 58.9584 20.0919 59.1093L20.8324 63.0838C20.9019 63.458 21.2284 63.719 21.5957 63.719C21.6434 63.719 21.691 63.7151 21.7386 63.7061C22.1605 63.6277 22.4394 63.2217 22.361 62.7989L21.6205 58.8244C21.563 58.5157 21.3307 58.2844 21.0458 58.2129C21.9004 57.7831 22.7978 57.3474 23.7398 56.9047C28.9233 54.4727 34.2973 52.3952 38.2976 51.0422L39.057 55.1169C39.1265 55.4912 39.453 55.7522 39.8203 55.7522C39.8679 55.7522 39.9156 55.7483 39.9632 55.7393C40.3851 55.6609 40.664 55.2549 40.5856 54.8321L39.8133 50.6918C39.8044 50.6442 39.7905 50.5995 39.7746 50.5558C41.4591 50.0158 42.8031 49.6426 43.6469 49.4749C44.3645 49.3319 45.0842 49.2615 45.7999 49.2615C47.936 49.2615 50.0245 49.8908 51.84 51.1038C54.264 52.7237 55.9127 55.1904 56.4815 58.0492C57.0503 60.9079 56.4716 63.8183 54.8526 66.2423H54.8546ZM68.4377 58.1018C68.1687 58.1812 67.9642 58.3996 67.9007 58.6725C67.8371 58.9455 67.9265 59.2314 68.1329 59.421C69.1345 60.3401 69.5752 61.3804 69.2556 62.0703C68.8357 62.9756 67.1691 63.2356 65.3784 62.6738C65.0915 62.5835 64.7779 62.6678 64.5744 62.8882C64.3709 63.1096 64.3123 63.4282 64.4255 63.7071C64.7223 64.4417 64.7193 65.0819 64.4156 65.4651C63.812 66.2274 61.8774 66.0765 60.0649 64.6412C59.103 63.8788 58.3913 62.9855 58.0955 62.1725C58.3288 60.7233 58.305 59.2284 58.0101 57.7454C57.7163 56.2694 57.1704 54.8847 56.4041 53.6399C56.3783 52.7783 56.6929 51.6924 57.2786 50.6412C58.4032 48.6222 60.1344 47.7417 60.9821 48.2152C61.4089 48.4525 61.657 49.0431 61.664 49.8352C61.667 50.136 61.8427 50.4079 62.1156 50.535C62.3886 50.6611 62.7102 50.6184 62.9405 50.4258C64.3798 49.2217 66.0186 48.8227 66.7532 49.4987C67.313 50.0139 67.3041 51.1425 66.7304 52.3753C66.6122 52.6294 66.64 52.9272 66.8028 53.1555C66.9656 53.3838 67.2376 53.5069 67.5175 53.4771C69.6179 53.2558 71.4374 53.9506 71.6577 55.0574C71.8781 56.1642 70.4636 57.5022 68.4387 58.1028L68.4377 58.1018Z" fill="#305986"/>
</svg>
