<svg width="80" height="80" viewBox="0 0 80 80" fill="none" xmlns="http://www.w3.org/2000/svg">
<path d="M20.0192 26.9754C19.8438 26.9135 19.6831 26.8039 19.5625 26.6468C19.2241 26.2115 19.2995 25.5828 19.7374 25.2432L21.4596 23.9019C21.3564 23.2505 21.321 22.5934 21.352 21.9406L19.4978 20.7946C19.0992 20.5479 18.9256 20.0541 19.0819 19.6109L20.0691 16.8122C20.2255 16.3691 20.6698 16.0953 21.1368 16.154L23.2984 16.4224C23.6846 15.8928 24.1238 15.4052 24.6128 14.9627L24.114 12.8358C24.0062 12.3779 24.2313 11.9081 24.6548 11.7055L27.3309 10.425C27.757 10.2212 28.2622 10.34 28.5504 10.7131L29.8924 12.4334C30.5431 12.3321 31.2002 12.2967 31.8518 12.3251L32.9991 10.4735C33.2457 10.0749 33.7376 9.90061 34.1808 10.0569L36.9795 11.0441C37.4227 11.2005 37.6964 11.6448 37.6384 12.1099L37.37 14.2715C37.8971 14.6589 38.3847 15.0981 38.8278 15.5852L40.9521 15.0877C41.41 14.9799 41.8799 15.205 42.0825 15.6285L43.363 18.3046C43.5656 18.7281 43.4461 19.2352 43.0749 19.5241L41.3521 20.8673C41.4534 21.518 41.4894 22.1732 41.4597 22.8286L43.317 23.9778C43.7156 24.2245 43.8917 24.7171 43.7354 25.1603L42.7482 27.9589C42.5918 28.4021 42.1475 28.6759 41.6805 28.6172L38.9136 28.2731C38.3745 28.2144 37.9773 27.7053 38.045 27.1588C38.1114 26.6097 38.6115 26.2199 39.1612 26.2908L41.1297 26.5356L41.582 25.2532L39.8975 24.2094C39.5702 24.007 39.3882 23.6332 39.4297 23.2513C39.5205 22.3927 39.473 21.5235 39.2867 20.6689C39.2034 20.2918 39.343 19.902 39.6488 19.6664L41.2164 18.4444L40.6305 17.2199L38.698 17.6727C38.3207 17.7623 37.9303 17.6246 37.6889 17.3231C37.141 16.64 36.4959 16.0583 35.7671 15.5934C35.4418 15.3854 35.2668 15.0098 35.3146 14.628L35.558 12.6633L34.2756 12.2109L33.2325 13.8936C33.0301 14.2208 32.6582 14.4035 32.2744 14.3614C31.4152 14.2662 30.5479 14.3144 29.6927 14.5025C29.3155 14.5858 28.9258 14.4462 28.6895 14.1423L27.4694 12.5753L26.2449 13.1613L26.6989 15.0963C26.7873 15.471 26.6508 15.864 26.3519 16.1042C25.6707 16.6527 25.0883 17.2998 24.6203 18.0253C24.4123 18.3506 24.0386 18.5263 23.6549 18.4779L21.6876 18.2356L21.2353 19.518L22.9217 20.5624C23.249 20.7648 23.4328 21.1393 23.3907 21.5231C23.2949 22.3778 23.3406 23.2464 23.5288 24.1016C23.612 24.4788 23.4724 24.8685 23.166 25.106L20.9642 26.8211C20.686 27.0389 20.3285 27.0845 20.0192 26.9754ZM29.4261 27.997C26.3313 26.9054 24.7029 23.5022 25.7946 20.4074C26.8862 17.3126 30.2895 15.6843 33.3842 16.7759C36.479 17.8676 38.1074 21.2708 37.0157 24.3656C35.9241 27.4603 32.5209 29.0887 29.4261 27.997ZM32.719 18.6618C30.6652 17.9374 28.4049 19.0189 27.6805 21.0726C26.9561 23.1264 28.0376 25.3867 30.0913 26.1111C32.1451 26.8356 34.4054 25.7541 35.1298 23.7003C35.8543 21.6466 34.7727 19.3863 32.719 18.6618Z" fill="#0E8388"/>
<path d="M21.813 69.6657C21.4207 69.5273 21.147 69.1551 21.1462 68.7243L21.1327 64.0734C20.4668 63.7791 19.8193 63.4384 19.2004 63.0589L15.3907 65.7675C14.9905 66.0483 14.4486 66.0035 14.1005 65.6559L11.2827 62.817C10.9383 62.4708 10.896 61.9236 11.1818 61.5282L13.9173 57.7409C13.5667 57.1656 13.252 56.5669 12.9813 55.9518L8.23348 55.753C7.75504 55.7327 7.35896 55.3767 7.28744 54.9061L6.67873 50.9507C6.60532 50.4795 6.87513 50.0212 7.32514 49.8576L11.6527 48.2839C11.7023 47.6143 11.7963 46.9392 11.9312 46.2679L8.36694 43.4415C7.99073 43.1433 7.88082 42.6253 8.09883 42.1997L9.9284 38.6421C10.1457 38.2183 10.6358 38.0073 11.0939 38.1392L15.2244 39.3248C15.5916 38.8669 15.9535 38.4602 16.3261 38.0891C16.4928 37.9231 16.6638 37.7629 16.8392 37.6084L15.7052 33.5611C15.5753 33.0996 15.7912 32.6138 16.2175 32.3973L19.7901 30.5954C20.2169 30.3834 20.736 30.4986 21.03 30.8738L23.469 33.9988C24.3255 33.7708 25.2048 33.6166 26.0974 33.5328L27.4537 29.8804C27.6202 29.4323 28.0808 29.1664 28.5507 29.241L32.4977 29.8826C32.9827 29.9624 33.3218 30.3598 33.3382 30.8364L33.4674 34.576C34.367 34.9294 35.2292 35.3586 36.0364 35.8596L39.1193 33.8108C39.516 33.5457 40.0401 33.5991 40.382 33.9402L43.1998 36.7791C43.536 37.1182 43.5851 37.6466 43.3182 38.0423L41.2454 41.1112C41.7614 41.9569 42.1998 42.8601 42.5565 43.8087L46.2148 43.8438C46.7093 43.8549 47.1193 44.2074 47.1944 44.6919L47.8038 48.6454C47.8788 49.1299 47.5937 49.5955 47.1268 49.7468L43.5099 50.9351C43.417 51.9138 43.2365 52.8765 42.9703 53.8174L46.0919 56.1315C46.4834 56.4223 46.6089 56.9564 46.385 57.3927L44.5554 60.9503C44.3322 61.3847 43.8276 61.5948 43.3609 61.445L39.4494 60.1861C39.2636 60.3941 39.0709 60.5976 38.8707 60.7984C38.4647 61.1981 38.0171 61.5894 37.508 61.9866L38.7708 66.0052C38.9158 66.472 38.704 66.9762 38.2657 67.1969L34.6938 68.9969C34.2566 69.2202 33.7264 69.0883 33.4372 68.6936L30.8109 65.1017C30.0352 65.2628 29.2542 65.3669 28.4755 65.4103L27.0408 69.6818C26.8854 70.1465 26.415 70.428 25.9331 70.3514L21.9861 69.7098C21.9262 69.6993 21.8676 69.685 21.813 69.6657ZM19.5053 60.908C19.5845 60.936 19.6623 60.974 19.7342 61.0227C20.595 61.6063 21.5232 62.0948 22.4938 62.4754C22.8757 62.625 23.1299 62.9924 23.1291 63.4035L23.1432 67.8723L25.4157 68.2413L26.8003 64.1175C26.9363 63.7138 27.3123 63.4414 27.7381 63.4367C28.8148 63.4263 29.9064 63.2834 30.9838 63.0124C31.3796 62.9124 31.795 63.0632 32.0353 63.3918L34.5498 66.8319L36.6076 65.7956L35.386 61.9124C35.2572 61.5023 35.4066 61.0545 35.7538 60.8038C36.4257 60.3177 36.9834 59.8549 37.457 59.3837C37.7744 59.0672 38.071 58.7372 38.3539 58.398C38.613 58.0844 39.0408 57.9596 39.4296 58.084L43.1637 59.2867L44.2176 57.2368L41.2084 55.0069C40.8606 54.7485 40.7192 54.2957 40.8554 53.8857C41.2576 52.6852 41.4957 51.4269 41.5584 50.1491C41.5789 49.7365 41.8539 49.3776 42.247 49.249L45.696 48.1161L45.3434 45.8393L41.8331 45.8056C41.3987 45.7987 41.0252 45.5227 40.8906 45.1169C40.4828 43.8682 39.9199 42.7048 39.2139 41.6584C38.9876 41.3199 38.989 40.8772 39.2155 40.5415L41.1937 37.6088L39.534 35.9356L36.5886 37.8951C36.2482 38.1207 35.7993 38.1129 35.473 37.8896C34.4648 37.201 33.3443 36.6383 32.1591 36.235C32.1572 36.2344 32.1534 36.2331 32.1515 36.2324C31.763 36.0954 31.4979 35.7347 31.4836 35.3246L31.3606 31.7356L29.0364 31.3569L27.7458 34.8353C27.6071 35.2104 27.2586 35.465 26.8592 35.4852C25.6728 35.5481 24.5073 35.7562 23.3945 36.1037C22.9938 36.2296 22.5667 36.0938 22.3074 35.7648L19.9575 32.7539L17.8544 33.8166L18.939 37.6854C19.0431 38.0635 18.919 38.4693 18.618 38.7215C18.317 38.9737 18.0172 39.2284 17.734 39.5081C17.29 39.9495 16.8536 40.4593 16.4009 41.0694C16.1515 41.4034 15.7227 41.549 15.3225 41.4333L11.3312 40.2862L10.2524 42.3825L13.6165 45.0493C13.9425 45.2852 14.1181 45.7013 14.0169 46.1024C13.7791 47.083 13.6424 48.0718 13.6173 49.0447C13.6044 49.5322 13.2425 49.9389 12.76 50.0083L8.78125 51.4528L9.13986 53.7846L13.481 53.946C13.9421 53.8712 14.3999 54.1302 14.5701 54.5677C14.9341 55.4956 15.4018 56.3879 15.9585 57.2204C16.1903 57.5672 16.1824 58.0225 15.9374 58.3623L13.301 62.0128L14.9234 63.6475L18.5923 61.0377C18.8638 60.845 19.2036 60.8016 19.5053 60.908ZM23.9151 59.2276C18.7156 57.3935 15.9777 51.6713 17.8117 46.4719C19.6458 41.2724 25.368 38.5345 30.5674 40.3685C35.7669 42.2026 38.5048 47.9248 36.6708 53.1242C36.3661 53.988 35.9466 54.7985 35.4271 55.5377C35.1094 55.9876 34.4815 56.0905 34.0334 55.7798C33.5816 55.4614 33.4736 54.8359 33.7913 54.386C34.2063 53.7987 34.5395 53.1486 34.7823 52.4602C36.2498 48.2999 34.0599 43.7232 29.8996 42.2557C25.7393 40.7882 21.1626 42.978 19.6951 47.1383C18.2276 51.2986 20.4175 55.8754 24.5778 57.3429C25.4264 57.6423 26.3048 57.7973 27.1858 57.8006C27.7392 57.8007 28.1823 58.2518 28.1822 58.8052C28.1783 59.3573 27.7285 59.8029 27.1764 59.7991C26.0734 59.7938 24.975 59.6014 23.9151 59.2276Z" fill="#FDB034"/>
<path d="M30.9162 58.6226C31.437 58.8063 32.0081 58.5331 32.1918 58.0123C32.3755 57.4915 32.1022 56.9204 31.5815 56.7367C31.0607 56.553 30.4896 56.8263 30.3059 57.3471C30.1222 57.8678 30.3955 58.4389 30.9162 58.6226Z" fill="#FDB034"/>
<path d="M55.2418 49.1749L51.8491 47.9781C51.4059 47.8218 51.1322 47.3775 51.1902 46.9123L51.532 44.1638C50.8299 43.6595 50.1878 43.081 49.6102 42.4341L46.9143 43.0672C46.4564 43.175 45.9866 42.9499 45.784 42.5264L44.2325 39.2839C44.0299 38.8604 44.1494 38.3534 44.5206 38.0644L46.7057 36.3605C46.5643 35.5048 46.5174 34.64 46.5665 33.7794L44.2117 32.3212C43.8131 32.0745 43.6389 31.5826 43.7952 31.1394L44.9913 27.7485C45.1476 27.3054 45.5901 27.0309 46.0571 27.0897L48.8038 27.4308C49.3074 26.7306 49.8858 26.0885 50.5335 25.509L49.9003 22.8131C49.7926 22.3552 50.0183 21.8835 50.4418 21.6809L53.685 20.1275C54.1085 19.9249 54.6155 20.0444 54.9045 20.4156L56.6084 22.6007C57.4615 22.4606 58.3251 22.411 59.1882 22.4589L60.6458 20.1061C60.8918 19.7094 61.3838 19.5351 61.8288 19.6921L65.2197 20.8882C65.6629 21.0445 65.9366 21.4889 65.8786 21.954L65.5374 24.7007C66.2396 25.2049 66.8816 25.7834 67.4592 26.4304L70.1551 25.7972C70.6123 25.6913 71.0828 25.9146 71.2855 26.338L72.8369 29.5805C73.0396 30.004 72.9201 30.5111 72.5482 30.8019L70.3675 32.5053C70.5089 33.361 70.5558 34.2257 70.5086 35.087L72.8615 36.5446C73.2601 36.7913 73.4324 37.2825 73.2761 37.7257L72.08 41.1166C71.9237 41.5598 71.4812 41.8342 71.0142 41.7755L68.2657 41.4336C67.764 42.1346 67.1855 42.7766 66.5379 43.3561L67.171 46.052C67.2788 46.5099 67.0537 46.9797 66.6302 47.1824L63.387 48.7357C62.961 48.9396 62.4546 48.8182 62.1675 48.4476L60.4643 46.2606C59.6111 46.4008 58.7482 46.4484 57.8851 46.4005L56.4268 48.7553C56.1788 49.1576 55.6869 49.3319 55.2418 49.1749ZM53.2743 46.3603L55.1489 47.0216L56.5044 44.832C56.7068 44.5048 57.0799 44.3247 57.4625 44.3642C58.5307 44.4801 59.6076 44.421 60.6602 44.1901C61.0355 44.1062 61.4252 44.2458 61.6628 44.5522L63.2466 46.5847L65.0401 45.7266L64.4512 43.218C64.3628 42.8433 64.4986 42.4523 64.7982 42.2102C65.6423 41.5304 66.364 40.7289 66.9388 39.8268C67.1468 39.5016 67.5224 39.3266 67.9068 39.3731L70.4615 39.6932L71.1228 37.8186L68.9351 36.4638C68.6079 36.2614 68.4278 35.8883 68.4692 35.5063C68.5838 34.442 68.5254 33.3632 68.2939 32.3061C68.2106 31.9289 68.3521 31.5399 68.656 31.3036L70.6885 29.7197L69.8297 27.9281L67.3218 28.5152C66.9464 28.6054 66.5554 28.4696 66.314 28.1681C65.6379 27.3253 64.8358 26.6055 63.9332 26.0263C63.6079 25.8183 63.4329 25.4427 63.4806 25.0609L63.7963 22.5067L61.9217 21.8454L60.5669 24.0331C60.3645 24.3604 59.9914 24.5405 59.6088 24.5009C58.5425 24.3856 57.4637 24.4441 56.4111 24.675C56.0339 24.7583 55.6442 24.6187 55.4086 24.3129L53.8247 22.2804L52.0312 23.1385L52.6202 25.6471C52.7085 26.0218 52.5727 26.4128 52.2731 26.6549C51.429 27.3347 50.7073 28.1362 50.1288 29.0369C49.9214 29.3603 49.547 29.5379 49.1652 29.4901L46.611 29.1745L45.9498 31.049L48.1374 32.4039C48.4647 32.6063 48.6486 32.9807 48.6065 33.3645C48.4881 34.4276 48.5472 35.5045 48.7787 36.5616C48.8619 36.9387 48.7204 37.3278 48.4165 37.5641L46.3841 39.148L47.2429 40.9395L49.7514 40.3506C50.128 40.2629 50.5184 40.4006 50.7592 40.6976C51.4341 41.5379 52.2355 42.2596 53.14 42.8395C53.4653 43.0475 53.6403 43.4231 53.5926 43.8049L53.2743 46.3603ZM56.2048 41.0344C52.565 39.7505 50.6485 35.7453 51.9324 32.1055C53.2163 28.4657 57.2216 26.5492 60.8614 27.8331C64.5012 29.117 66.4177 33.1223 65.1338 36.7621C64.9502 37.2826 64.3787 37.556 63.8582 37.3724C63.3377 37.1888 63.0643 36.6174 63.2479 36.0969C64.1646 33.4981 62.7969 30.6364 60.1962 29.719C57.5955 28.8017 54.735 30.1719 53.8183 32.7707C52.9017 35.3695 54.2694 38.2312 56.87 39.1485C57.3905 39.3321 57.664 39.9036 57.4804 40.4241C57.2968 40.9446 56.7253 41.2181 56.2048 41.0344Z" fill="#305986"/>
<path d="M60.6421 40.4791C61.1629 40.6628 61.734 40.3896 61.9177 39.8688C62.1014 39.348 61.8281 38.7769 61.3073 38.5932C60.7865 38.4095 60.2154 38.6828 60.0317 39.2036C59.848 39.7244 60.1213 40.2954 60.6421 40.4791Z" fill="#305986"/>
</svg>
