<svg width="27" height="28" viewBox="0 0 27 28" fill="none" xmlns="http://www.w3.org/2000/svg">
<path fill-rule="evenodd" clip-rule="evenodd" d="M6.36757 9.03811C6.36757 7.15435 7.89466 5.62726 9.77842 5.62726C11.6622 5.62726 13.1893 7.15435 13.1893 9.03811C13.1893 10.9219 11.6622 12.449 9.77842 12.449C7.89466 12.449 6.36757 10.9219 6.36757 9.03811ZM9.77842 7.48772C8.92216 7.48772 8.22803 8.18185 8.22803 9.03811C8.22803 9.89437 8.92216 10.5885 9.77842 10.5885C10.6347 10.5885 11.3288 9.89437 11.3288 9.03811C11.3288 8.18185 10.6347 7.48772 9.77842 7.48772Z" fill="#525252"/>
<path fill-rule="evenodd" clip-rule="evenodd" d="M2.45398 2.95398C4.10913 1.29882 6.5859 0.666016 9.77842 0.666016H17.2203C20.4128 0.666016 22.8896 1.29882 24.5447 2.95398C26.1999 4.60913 26.8327 7.0859 26.8327 10.2784V16.3514C26.8327 16.3551 26.8327 16.3587 26.8327 16.3624V17.7203C26.8327 20.9128 26.1999 23.3896 24.5447 25.0447C22.8896 26.6999 20.4128 27.3327 17.2203 27.3327H9.77842C6.5859 27.3327 4.10913 26.6999 2.45398 25.0447C0.798823 23.3896 0.166016 20.9128 0.166016 17.7203V10.2784C0.166016 7.0859 0.798823 4.60913 2.45398 2.95398ZM24.9722 14.3313V10.2784C24.9722 7.26939 24.3647 5.40507 23.2292 4.26953C22.0936 3.13398 20.2293 2.52648 17.2203 2.52648H9.77842C6.76939 2.52648 4.90507 3.13398 3.76953 4.26953C2.63398 5.40507 2.02648 7.26939 2.02648 10.2784V17.7203C2.02648 19.1014 2.15446 20.2413 2.40274 21.1804L7.52346 17.7423C8.84201 16.8577 10.7171 16.9469 11.9226 17.9827L11.9305 17.9895L12.3353 18.3453C12.9546 18.8739 13.9996 18.8729 14.6172 18.3423L19.7769 13.9144C21.093 12.7842 23.1709 12.784 24.4868 13.9144L24.9722 14.3313ZM3.13487 22.9297L8.56024 19.2871C9.20004 18.8579 10.1505 18.9162 10.7067 19.3909L11.1116 19.7468L11.1196 19.7536C12.4355 20.884 14.5134 20.8838 15.8295 19.7536L20.9892 15.3257C21.608 14.7941 22.6558 14.7941 23.2746 15.3257L24.9722 16.7838V17.7203C24.9722 20.7293 24.3647 22.5936 23.2292 23.7292C22.0936 24.8647 20.2293 25.4722 17.2203 25.4722H9.77842C6.76939 25.4722 4.90507 24.8647 3.76953 23.7292C3.53527 23.4949 3.32348 23.2296 3.13487 22.9297Z" fill="#525252"/>
</svg>
