<svg width="34" height="34" viewBox="0 0 34 34" fill="none" xmlns="http://www.w3.org/2000/svg">
<path d="M0.5 8C0.5 3.85786 3.85786 0.5 8 0.5H26C30.1421 0.5 33.5 3.85786 33.5 8V26C33.5 30.1421 30.1421 33.5 26 33.5H8C3.85786 33.5 0.5 30.1421 0.5 26V8Z" stroke="#305986"/>
<path fill-rule="evenodd" clip-rule="evenodd" d="M9.53195 15.2997C9.50291 12.6458 9.4911 11.5668 10.4783 10.5414C11.5143 9.4672 12.6456 9.47665 16.6074 9.50973C17.4278 9.51658 18.3695 9.52445 19.4569 9.52391C21.2109 9.52697 21.3105 9.54143 21.6429 9.58969L21.662 9.59245C23.1816 9.81115 24.335 10.891 24.482 12.7646C24.502 13.015 24.502 20.9849 24.4826 21.2304C24.3443 22.9893 23.3324 23.9981 22.0888 24.319C21.1573 24.5601 12.8927 24.5601 11.9599 24.3202C9.39193 23.6565 9.45351 21.1397 9.52133 18.368C9.5324 17.9157 9.54363 17.4567 9.54363 16.9978C9.54363 16.3677 9.53748 15.8051 9.53195 15.2997ZM16.4736 11.4771C16.6539 11.4784 16.8357 11.4798 17.0182 11.4798C17.2353 11.4798 17.4452 11.4783 17.6483 11.477C19.4122 11.4651 20.6618 11.4566 21.6115 12.4063C22.5575 13.3517 22.5507 14.5809 22.5408 16.4025C22.5397 16.5954 22.5386 16.795 22.5386 17.0015C22.5386 17.1926 22.5393 17.3765 22.54 17.5539C22.545 18.8849 22.5486 19.8426 22.2489 20.6179C21.4911 22.5622 19.565 22.5447 17.5878 22.5267C17.3981 22.525 17.2078 22.5233 17.0181 22.5233C16.8364 22.5233 16.6552 22.5246 16.4752 22.5259C14.4308 22.5408 12.5404 22.5546 11.788 20.6179C11.4889 19.8479 11.4929 18.7029 11.4972 17.4569C11.4977 17.3064 11.4982 17.1545 11.4982 17.0015C11.4982 16.8132 11.4976 16.6315 11.4969 16.4561C11.492 15.1245 11.4885 14.1531 11.788 13.3845C12.5422 11.4488 14.4183 11.4623 16.4736 11.4771ZM17.4124 12.4689C17.1341 12.4715 16.8385 12.4743 16.5246 12.4748V12.4736C12.8435 12.4773 12.4945 12.5471 12.4945 16.999C12.4945 21.3999 12.621 21.5257 17.02 21.5257C17.242 21.5257 17.4601 21.5281 17.6734 21.5305C19.7781 21.5536 21.4061 21.5714 21.513 19.2309C21.8225 12.4274 21.3196 12.4321 17.4124 12.4689ZM19.3042 14.0537C19.3042 13.688 19.6008 13.3914 19.9665 13.3914C20.3323 13.3914 20.6289 13.688 20.6289 14.0537C20.6289 14.4195 20.3323 14.7161 19.9665 14.7161C19.6008 14.7161 19.3042 14.4195 19.3042 14.0537ZM14.1843 17.0015C14.1843 15.4357 15.4536 14.1659 17.0194 14.1659C18.5852 14.1659 19.8538 15.4357 19.8538 17.0015C19.8538 18.5673 18.5852 19.8365 17.0194 19.8365C15.4536 19.8365 14.1843 18.5673 14.1843 17.0015ZM17.0194 15.1609C19.4525 15.1609 19.4556 18.8421 17.0194 18.8421C14.5869 18.8421 14.5831 15.1609 17.0194 15.1609Z" fill="#305986"/>
</svg>
