<svg width="18" height="18" viewBox="0 0 18 18" fill="#525252" xmlns="http://www.w3.org/2000/svg">
<path fill-rule="evenodd" clip-rule="evenodd" d="M17.1086 4.42766C16.814 3.14084 16.2016 2.17184 15.1939 1.53619C14.2094 0.916031 12.9071 0.667969 11.3257 0.667969H6.6745C4.68225 0.667969 3.13186 1.06332 2.0931 2.09433C1.05434 3.12533 0.666748 4.68347 0.666748 6.67572V11.3269C0.666748 12.9083 0.91481 14.2106 1.53497 15.1951C2.17062 16.2029 3.14737 16.8153 4.42644 17.1098C5.0931 17.2649 5.82954 17.3346 6.6745 17.3346H11.3257C13.3179 17.3346 14.8683 16.9393 15.9071 15.9083C16.9381 14.8695 17.3334 13.3269 17.3334 11.3269V6.67572C17.3334 5.83851 17.2636 5.09433 17.1086 4.42766ZM2.51946 14.5749C2.06985 13.854 1.82954 12.8075 1.82954 11.3269V6.67572C1.82954 4.792 2.20938 3.62921 2.92256 2.92378C3.63574 2.21836 4.79853 1.83076 6.6745 1.83076H11.3257C12.814 1.83076 13.8528 2.07107 14.5737 2.52068C15.2016 2.91603 15.6357 3.50518 15.8916 4.38115L4.37993 15.8928C3.50396 15.637 2.91481 15.1951 2.51946 14.5749ZM6.6745 16.1718C6.35667 16.1718 6.0621 16.1641 5.78303 16.1408L10.5505 11.3734L14.628 15.4509C13.8993 15.9238 12.845 16.1718 11.3257 16.1718H6.6745ZM16.1706 11.3269C16.1706 12.8463 15.9226 13.9083 15.4497 14.6292L11.3722 10.5517L16.1396 5.78425C16.1629 6.06332 16.1706 6.35789 16.1706 6.67572V11.3269Z" fill="inherit"/>
<path fill-rule="evenodd" clip-rule="evenodd" d="M3.96907 5.75324L6.76752 3.5982C5.57373 3.5982 4.30241 4.30363 3.96907 5.75324Z" fill="inherit"/>
<path fill-rule="evenodd" clip-rule="evenodd" d="M5.41093 9.47417C6.17838 10.1951 7.37218 10.2029 8.13187 9.47417C8.89931 8.74549 9.94582 7.41216 9.56597 5.76099C9.23264 4.30363 7.96132 3.60595 6.76752 3.60595L3.96907 5.76099C3.58148 7.41991 4.64349 8.75324 5.40318 9.47417H5.41093ZM5.10086 6.01681C5.29466 5.1951 5.99233 4.76099 6.76752 4.76099C7.54272 4.76099 8.24039 5.1951 8.43419 6.01681C8.66675 7.03231 8.03884 7.95479 7.33342 8.62921C7.02334 8.92378 6.53497 8.93154 6.20938 8.62921C5.50396 7.95479 4.8683 7.03231 5.10861 6.01681H5.10086Z" fill="inherit"/>
<path fill-rule="evenodd" clip-rule="evenodd" d="M6.75202 7.21836C7.17838 7.21836 7.52721 6.86952 7.52721 6.44316C7.52721 6.01681 7.17838 5.66797 6.75202 5.66797C6.32566 5.66797 5.97683 6.01681 5.97683 6.44316C5.97683 6.86952 6.32566 7.21836 6.75202 7.21836Z" fill="inherit"/>
</svg>
