<svg width="34" height="34" viewBox="0 0 34 34" fill="none" xmlns="http://www.w3.org/2000/svg">
<path d="M0.5 8C0.5 3.85786 3.85786 0.5 8 0.5H26C30.1421 0.5 33.5 3.85786 33.5 8V26C33.5 30.1421 30.1421 33.5 26 33.5H8C3.85786 33.5 0.5 30.1421 0.5 26V8Z" stroke="#305986"/>
<path d="M24.5 24.5001V19.0064C24.5 16.3064 23.9187 14.2439 20.7687 14.2439C19.25 14.2439 18.2375 15.0689 17.825 15.8564H17.7875V14.4876H14.8062V24.5001H17.9187V19.5314C17.9187 18.2189 18.1625 16.9626 19.775 16.9626C21.3687 16.9626 21.3875 18.4439 21.3875 19.6064V24.4814H24.5V24.5001Z" fill="#305986"/>
<path d="M9.74376 14.4876H12.8563V24.5001H9.74376V14.4876Z" fill="#305986"/>
<path d="M11.3 9.5C10.3063 9.5 9.5 10.3062 9.5 11.3C9.5 12.2937 10.3063 13.1187 11.3 13.1187C12.2938 13.1187 13.1 12.2937 13.1 11.3C13.1 10.3062 12.2938 9.5 11.3 9.5Z" fill="#305986"/>
</svg>
