<svg width="18" height="20" viewBox="0 0 18 20" fill="none" xmlns="http://www.w3.org/2000/svg">
<path fill-rule="evenodd" clip-rule="evenodd" d="M8.72163 6.22471C7.50375 6.22471 6.51647 7.21199 6.51647 8.42987C6.51647 9.64775 7.50375 10.635 8.72163 10.635C9.93951 10.635 10.9268 9.64775 10.9268 8.42987C10.9268 7.21199 9.93951 6.22471 8.72163 6.22471ZM5.12079 8.42987C5.12079 6.44118 6.73294 4.82903 8.72163 4.82903C10.7103 4.82903 12.3225 6.44118 12.3225 8.42987C12.3225 10.4186 10.7103 12.0307 8.72163 12.0307C6.73294 12.0307 5.12079 10.4186 5.12079 8.42987Z" fill="#305986"/>
<path fill-rule="evenodd" clip-rule="evenodd" d="M8.72465 1.39568C5.54555 1.39353 2.43612 3.23826 1.60502 6.89083C0.621477 11.2362 3.31394 15.0046 5.84672 17.4457C7.45687 18.9914 9.98769 18.9895 11.5866 17.4463L11.5879 17.445C14.1298 15.004 16.8218 11.2449 15.8382 6.89983C15.0114 3.24703 11.9039 1.39782 8.72465 1.39568ZM17.1994 6.59168C16.2025 2.18682 12.4293 0.00250558 8.72559 2.15441e-06C5.02182 -0.00250132 1.24604 2.17682 0.244016 6.58166C-0.912255 11.6894 2.27529 15.942 4.87845 18.4508L4.87933 18.4517C7.02811 20.5153 10.4142 20.5172 12.5555 18.4508C15.1681 15.9417 18.3557 11.6994 17.1994 6.59168Z" fill="#305986"/>
</svg>
