<svg width="18" height="18" viewBox="0 0 18 18" fill="none" xmlns="http://www.w3.org/2000/svg">
<path d="M2.076 8.88859C2.076 6.71688 2.84883 5.02798 4.05744 3.87991C5.27163 2.72653 6.97022 2.07722 8.88737 2.07722C9.27653 2.07722 9.592 1.76175 9.592 1.37259C9.592 0.98344 9.27653 0.667969 8.88737 0.667969C6.65194 0.667969 4.59253 1.42791 3.08687 2.85816C1.57562 4.29371 0.666748 6.36281 0.666748 8.88859C0.666748 11.4144 1.57562 13.4835 3.08687 14.919C4.59253 16.3493 6.65194 17.1092 8.88737 17.1092C9.27653 17.1092 9.592 16.7937 9.592 16.4046C9.592 16.0154 9.27653 15.7 8.88737 15.7C6.97022 15.7 5.27163 15.0507 4.05744 13.8973C2.84883 12.7492 2.076 11.0603 2.076 8.88859Z" fill="#D22424"/>
<path d="M13.7254 6.0416C14.0006 5.76643 14.4467 5.76643 14.7219 6.0416L17.127 8.44672C17.4022 8.72189 17.4022 9.16804 17.127 9.44321L14.7219 11.8483C14.4467 12.1235 14.0006 12.1235 13.7254 11.8483C13.4503 11.5732 13.4503 11.127 13.7254 10.8518L14.929 9.64827H7.00837C6.61922 9.64827 6.30375 9.3328 6.30375 8.94364C6.30375 8.55449 6.61922 8.23902 7.00837 8.23902H14.9264L13.7254 7.03809C13.4503 6.76292 13.4503 6.31677 13.7254 6.0416Z" fill="#D22424"/>
</svg>
