<svg width="80" height="80" viewBox="0 0 80 80" fill="none" xmlns="http://www.w3.org/2000/svg">
<path d="M66.8499 51.8798C66.8942 51.8042 66.9476 51.7351 67.0089 51.6738C66.9489 51.7364 66.8955 51.8055 66.8499 51.8798Z" fill="#0E8388"/>
<path d="M48.9439 40.2065V35.7563C50.1719 35.7563 51.1667 36.7525 51.1667 37.9807C51.1667 38.5962 51.6641 39.0943 52.2774 39.0943C52.8908 39.0943 53.3895 38.5962 53.3895 37.9807C53.3895 35.5229 51.3985 33.5305 48.9439 33.5305V32.4182C48.9439 31.8028 48.4465 31.3047 47.8332 31.3047C47.2199 31.3047 46.7224 31.8028 46.7224 32.4182V33.5305C44.2666 33.5305 42.2769 35.5229 42.2769 37.9807C42.2769 40.4386 44.2666 42.4323 46.7224 42.4323V46.8826C45.4945 46.8826 44.4996 45.8864 44.4996 44.6568C44.4996 44.0427 44.0022 43.5446 43.3889 43.5446C42.7756 43.5446 42.2769 44.0427 42.2769 44.6568C42.2769 47.1147 44.2666 49.1084 46.7224 49.1084V50.2206C46.7224 50.8348 47.2199 51.3328 47.8332 51.3328C48.4465 51.3328 48.9439 50.8348 48.9439 50.2206V49.1084C51.3985 49.1084 53.3895 47.1147 53.3895 44.6568C53.3895 42.1989 51.3985 40.2065 48.9439 40.2065ZM46.7224 40.2065C45.4945 40.2065 44.4996 39.2103 44.4996 37.9807C44.4996 36.7511 45.4945 35.7563 46.7224 35.7563V40.2065ZM48.9439 46.8826V42.4323C50.1719 42.4323 51.1667 43.4285 51.1667 44.6568C51.1667 45.8851 50.1719 46.8826 48.9439 46.8826Z" fill="#FDB034"/>
<path d="M26.1652 11.2754C21.4149 11.2754 17.8314 13.1895 17.8314 15.727V26.9367C13.934 27.3266 11.1643 29.0791 11.1643 31.3036V59.3443L13.3871 59.2048V34.3847C15.2765 35.347 17.3782 35.8177 19.4981 35.7551C21.618 35.8177 23.7197 35.347 25.6092 34.3847V48.4774L27.8319 47.9611V31.3036C27.8319 28.8665 24.5245 27.0111 20.0541 26.8676V18.8068C21.9436 19.7691 24.0453 20.2411 26.1652 20.1772C28.2851 20.2411 30.3868 19.7691 32.2762 18.8068V26.3356L34.499 24.0029V15.727C34.499 13.1895 30.9155 11.2754 26.1652 11.2754ZM25.6092 31.3036C25.6092 32.1941 23.1728 33.5293 19.4981 33.5293C15.8234 33.5293 13.3871 32.1941 13.3871 31.3036C13.3871 30.413 15.8234 29.0791 19.4981 29.0791C23.1728 29.0791 25.6092 30.4143 25.6092 31.3036ZM26.1652 17.9514C22.4905 17.9514 20.0541 16.6162 20.0541 15.727C20.0541 14.8377 22.4905 13.5012 26.1652 13.5012C29.8399 13.5012 32.2762 14.8364 32.2762 15.727C32.2762 16.6175 29.8399 17.9514 26.1652 17.9514Z" fill="#305986"/>
<path d="M66.8199 58.5764C68.1364 56.7626 68.8499 54.5812 68.8604 52.3384C68.8747 52.0437 68.7718 51.7556 68.5726 51.5365C68.3747 51.3175 68.0973 51.1871 67.803 51.1727C67.1923 51.1492 66.6753 51.62 66.6402 52.2315C66.648 54.0087 66.1024 55.7429 65.0763 57.1942C62.9082 59.9363 58.7947 60.0746 57.9912 60.0746C57.3779 60.0746 56.8805 60.5727 56.8805 61.1868C56.8805 61.8009 57.3779 62.299 57.9912 62.299C58.9731 62.299 64.015 62.1204 66.8199 58.5751V58.5764Z" fill="#0E8388"/>
<path d="M48.8904 40.0483V35.5981C50.1184 35.5981 51.1132 36.5942 51.1132 37.8225C51.1132 38.438 51.6107 38.9361 52.224 38.9361C52.8373 38.9361 53.336 38.438 53.336 37.8225C53.336 35.3647 51.3463 33.3723 48.8904 33.3723V32.26C48.8904 31.6446 48.393 31.1465 47.7797 31.1465C47.1664 31.1465 46.669 31.6446 46.669 32.26V33.3723C44.2144 33.3723 42.2234 35.3647 42.2234 37.8225C42.2234 40.2804 44.2144 42.2741 46.669 42.2741V46.7244C45.441 46.7244 44.4462 45.7282 44.4462 44.4986C44.4462 43.8844 43.9488 43.3863 43.3354 43.3863C42.7221 43.3863 42.2234 43.8844 42.2234 44.4986C42.2234 46.9578 44.2144 48.9502 46.669 48.9502V50.0624C46.669 50.6765 47.1664 51.1746 47.7797 51.1746C48.393 51.1746 48.8904 50.6765 48.8904 50.0624V48.9502C51.3463 48.9502 53.336 46.9578 53.336 44.4986C53.336 42.0394 51.3463 40.0483 48.8904 40.0483ZM46.669 40.0483C45.441 40.0483 44.4462 39.0521 44.4462 37.8225C44.4462 36.5929 45.441 35.5981 46.669 35.5981V40.0483ZM48.8904 46.7244V42.2741C50.1184 42.2741 51.1132 43.2703 51.1132 44.4986C51.1132 45.7269 50.1184 46.7244 48.8904 46.7244Z" fill="#0E8388"/>
<path d="M72.4074 44.2452C71.0389 38.4206 68.833 33.8204 66.4188 30.2346C64.0059 26.6502 61.3847 24.0802 59.1866 22.3173C64.7 22.7332 66.4748 25.0307 66.5269 25.0998C66.8746 25.5966 67.5569 25.7231 68.0595 25.3828C68.5622 25.0424 68.6989 24.3605 68.3668 23.852C68.2861 23.732 66.7431 21.5245 62.2545 20.5139C63.403 19.5699 64.0814 18.1708 64.114 16.683C63.9655 14.2173 62.2519 12.1258 59.865 11.5C59.9627 10.6967 60.0122 9.88701 60.0135 9.07859C60.0122 8.33144 59.6385 7.63645 59.0173 7.22442C58.3949 6.81368 57.6097 6.74197 56.9235 7.03274C56.3622 7.287 55.8414 7.62211 55.3765 8.02632C54.8322 8.58701 54.0809 8.90125 53.2996 8.89473C52.5183 8.89995 51.7695 8.58701 51.2239 8.02632C49.2668 6.21518 46.2471 6.21518 44.2886 8.02632C43.743 8.58831 42.9917 8.90256 42.2091 8.89473C41.4278 8.90125 40.679 8.58701 40.1347 8.02632C39.6712 7.62211 39.1516 7.28831 38.593 7.03404C37.9067 6.74457 37.1228 6.81759 36.503 7.22833C35.8819 7.64036 35.5082 8.33405 35.5068 9.07859C35.5068 11.8468 36.0538 16.786 39.5149 20.1006C37.6958 21.2089 35.9965 22.5037 34.4456 23.9628L32.2228 26.2394C31.491 27.0596 30.7553 27.9528 30.03 28.9438C29.6979 29.4392 29.8151 30.1095 30.2956 30.4615C30.7761 30.8149 31.4493 30.7249 31.8217 30.2581C32.5353 29.2906 33.2997 28.3622 34.1122 27.4755C34.1214 27.4664 34.1292 27.456 34.1383 27.4469C36.2595 25.0868 38.7505 23.0879 41.5124 21.5284C42.058 21.7918 42.6336 21.9835 43.2274 22.0995L40.3626 24.7764C39.9147 25.1963 39.8899 25.9004 40.3092 26.3503C40.7285 26.7988 41.4317 26.8236 41.8809 26.4037L46.3252 22.2521H46.6794V25.5901C46.6794 26.2042 47.1768 26.7023 47.7914 26.7023C48.406 26.7023 48.9022 26.2042 48.9022 25.5901V22.2468H49.2564L53.7019 26.3972C53.991 26.6697 54.4038 26.7649 54.784 26.6489C55.1642 26.5328 55.4533 26.2238 55.5432 25.8365C55.633 25.448 55.5093 25.0424 55.2189 24.7712L52.336 22.0826C52.9258 21.9665 53.4988 21.7735 54.0392 21.5101C56.9756 23.1009 66.6298 29.3871 70.2459 44.7551C71.8176 51.4442 71.2511 56.562 68.5622 59.96C65.1219 64.306 59.1528 64.5277 57.9912 64.5277H42.2234C41.6101 64.5277 41.1126 65.0258 41.1126 65.6412C41.1126 66.2566 41.6101 66.7534 42.2234 66.7534H57.9912C59.8807 66.7534 66.3316 66.3636 70.3032 61.3422C73.4349 57.3822 74.1432 51.6306 72.4074 44.2452ZM53.823 19.0522C53.017 19.6573 52.0404 19.9924 51.0338 20.008C51.9948 18.3533 52.7566 16.5905 53.3009 14.7545C53.4076 14.3712 53.3022 13.9605 53.0235 13.6762C52.7448 13.3932 52.3373 13.2798 51.9518 13.3789C51.5677 13.478 51.2656 13.7753 51.1588 14.1586C50.5429 16.2501 49.5975 18.2295 48.3566 20.0211H47.2146C45.9762 18.2282 45.0295 16.2488 44.411 14.1586C44.2456 13.5667 43.6336 13.2198 43.0424 13.3854C42.45 13.5497 42.1049 14.1639 42.269 14.7558C42.8146 16.5931 43.5763 18.3573 44.5399 20.0132C43.5125 20.008 42.5138 19.6716 41.6934 19.0535C38.1125 16.254 37.7296 11.1453 37.7296 9.0851C38.0968 9.26244 38.4393 9.49062 38.744 9.76184C39.6816 10.6433 40.9225 11.1283 42.2091 11.1192C43.4956 11.1296 44.7366 10.6433 45.6754 9.76184C46.2249 9.20637 46.9724 8.89473 47.7537 8.89473C48.535 8.89473 49.2824 9.20637 49.8306 9.76184C50.7695 10.6446 52.0117 11.1296 53.2996 11.1192C54.5861 11.1296 55.8284 10.6433 56.7672 9.76184C57.0745 9.48932 57.417 9.25983 57.7855 9.07728C57.7855 11.1427 57.4027 16.2514 53.823 19.0522ZM56.2177 19.8802C57.8311 18.1565 58.9522 16.0324 59.464 13.727C60.8013 14.1208 61.7636 15.2931 61.8912 16.683C61.8912 18.5072 59.9197 20.0028 57.4469 20.0211C57.0342 20.0184 56.6214 19.9715 56.2177 19.8802Z" fill="#0E8388"/>
<path d="M66.7965 51.6279C66.8408 51.5523 66.8943 51.4832 66.9556 51.4219C66.8956 51.4845 66.8421 51.5536 66.7965 51.6279Z" fill="#0E8388"/>
<path d="M29.4453 47.7422C28.888 47.7422 28.332 47.7696 27.7785 47.8256L25.5831 48.3589C22.8993 49.0813 21.1115 50.4126 21.1115 52.1938V60.2389C19.2207 59.2766 17.1191 58.8059 15.0004 58.8698C14.4431 58.8685 13.9965 58.9559 13.4418 59.0067C12.848 59.0615 11.6956 59.2427 11.1109 59.3536C8.37897 59.8699 6.66663 61.5402 6.66663 63.3201V68.8839C6.66663 71.42 10.2502 73.3342 15.0004 73.3342C19.2481 73.3342 22.5556 71.8021 23.208 69.6623C25.126 70.6794 27.2759 71.1775 29.4453 71.1084C34.1956 71.1084 37.7791 69.1942 37.7791 66.6581V52.1938C37.7791 49.6563 34.1956 47.7422 29.4453 47.7422ZM21.1115 68.8839C21.1115 69.7732 18.6751 71.1084 15.0004 71.1084C11.3258 71.1084 8.88811 69.7732 8.88811 68.8839V66.4012C10.7788 67.3635 12.8805 67.8342 15.0004 67.7704C17.1191 67.8342 19.2207 67.3635 21.1115 66.4012V68.8839ZM15.0004 65.5459C11.3258 65.5459 8.88811 64.2107 8.88811 63.3201C8.88811 62.4295 11.3258 61.0943 15.0004 61.0943C18.6751 61.0943 21.1115 62.4295 21.1115 63.3201C21.1115 64.2107 18.6751 65.5459 15.0004 65.5459ZM35.5563 66.6581C35.5563 67.5487 33.12 68.8839 29.4453 68.8839C25.7706 68.8839 23.3343 67.5487 23.3343 66.6581V55.2736C25.2237 56.2359 27.3254 56.7079 29.4453 56.644C31.5652 56.7079 33.6669 56.2359 35.5563 55.2736V66.6581ZM29.4453 54.4182C25.7706 54.4182 23.3343 53.083 23.3343 52.1938C23.3343 51.3045 25.7706 49.968 29.4453 49.968C33.12 49.968 35.5563 51.3032 35.5563 52.1938C35.5563 53.0843 33.12 54.4182 29.4453 54.4182Z" fill="#FDB034"/>
</svg>
