<svg width="80" height="80" viewBox="0 0 80 80" fill="none" xmlns="http://www.w3.org/2000/svg">
<path d="M73.3333 21.5573C73.3333 19.6583 72.5936 17.8727 71.2508 16.5289C70.0584 15.3365 68.5164 14.6202 66.8557 14.4747C66.4617 13.0108 65.7454 11.6294 64.7698 10.4605C64.5969 10.2535 64.2888 10.2256 64.0823 10.3985C63.8752 10.5713 63.8474 10.8789 64.0203 11.086C64.8425 12.0713 65.4617 13.2232 65.8323 14.4464H61.4939C61.2346 12.378 60.6804 10.5049 59.9177 9.13528C59.6667 8.6841 59.3977 8.2925 59.1144 7.96241C60.4172 8.30714 61.6433 8.92434 62.6975 9.78128C62.907 9.9512 63.2141 9.91947 63.3845 9.71048C63.5544 9.501 63.5227 9.19387 63.3137 9.02346C61.4499 7.50977 59.1018 6.67383 56.6969 6.6665C56.6867 6.6665 56.6764 6.66602 56.6667 6.66602C56.6569 6.66602 56.6466 6.6665 56.6364 6.6665C54.2482 6.67334 51.9122 7.49903 50.0558 8.99416C48.3145 10.396 47.0543 12.3311 46.4776 14.4747C42.8521 14.7965 40 17.8497 40 21.5573C40 23.4562 40.7398 25.2419 42.0825 26.5856C42.1958 26.6989 42.3135 26.8078 42.4336 26.9128C42.4185 27.0505 42.4112 27.1887 42.4112 27.3274C42.4112 29.3386 43.9913 30.9871 45.9756 31.0974C46.9068 34.5774 50.087 37.1478 53.8561 37.1478H59.5612C63.3308 37.1478 66.5105 34.5774 67.4417 31.0974C69.4256 30.9871 71.0062 29.3386 71.0062 27.3274C71.0062 27.1657 70.9954 27.0046 70.9754 26.8449C72.4774 25.4953 73.3333 23.5851 73.3333 21.5573ZM59.0637 9.61038C59.7526 10.8472 60.259 12.5489 60.5085 14.4464H52.8243C53.0739 12.5489 53.5807 10.8472 54.2692 9.61038C54.9699 8.35207 55.8127 7.65479 56.6452 7.64308C56.6525 7.64308 56.6593 7.64308 56.6667 7.64308C56.674 7.64308 56.6813 7.64308 56.6886 7.64308C57.5207 7.65528 58.3635 8.35256 59.0637 9.61038ZM50.6681 9.75491C51.734 8.89651 52.9386 8.29006 54.2272 7.95314C53.9411 8.28517 53.6696 8.67971 53.4161 9.13528C52.6534 10.5049 52.0992 12.378 51.84 14.4464H47.501C48.0557 12.6143 49.1646 10.9659 50.6681 9.75491ZM43.3877 27.3278C43.3877 27.1184 43.4107 26.9099 43.4566 26.7082C43.6216 25.9768 44.2237 25.778 44.69 25.8298C45.1553 25.8815 45.6983 26.2077 45.6993 26.9558V27.1257C45.2393 26.8908 44.751 26.8596 44.2969 27.0427C44.0469 27.1438 43.9258 27.4279 44.0269 27.6784C44.128 27.9289 44.4122 28.0495 44.6626 27.9485C45.1065 27.7697 45.523 28.154 45.6998 28.3523V28.9909C45.6998 29.3659 45.7256 29.7351 45.775 30.0969C44.4263 29.8967 43.3877 28.7312 43.3877 27.3278ZM59.5612 36.1712H53.8561C49.8966 36.1712 46.6758 32.95 46.6758 28.9909V26.9582C46.6758 26.9582 46.6758 26.9567 46.6758 26.9563V24.3845C46.6758 24.1149 46.4571 23.8962 46.1876 23.8962C45.918 23.8962 45.6993 24.1149 45.6993 24.3845V25.1682C45.418 24.9968 45.1041 24.8942 44.7984 24.86C44.063 24.778 43.1963 25.0724 42.7442 25.8654C41.6045 24.7097 40.9771 23.1818 40.9771 21.5578C40.9771 18.2579 43.5962 15.5587 46.8648 15.4288C46.9464 15.4254 47.0289 15.4234 47.1114 15.4234H66.2229C66.2991 15.4234 66.3753 15.4254 66.4514 15.4278C66.4578 15.4278 66.4636 15.4288 66.47 15.4288C68.0159 15.4898 69.4612 16.1202 70.5608 17.2198C71.7196 18.379 72.3573 19.9196 72.3573 21.5578C72.3573 23.196 71.7396 24.674 70.6424 25.8122C70.1824 25.0593 69.3382 24.78 68.6199 24.86C68.3138 24.8942 68.0003 24.9973 67.7185 25.1682V22.4313C67.7185 19.8156 65.5906 17.6876 62.9748 17.6876H50.4425C47.8267 17.6876 45.6988 19.8156 45.6988 22.4313C45.6988 22.7008 45.9175 22.9196 46.1871 22.9196C46.4566 22.9196 46.6754 22.7008 46.6754 22.4313C46.6754 20.3541 48.3653 18.6642 50.4425 18.6642H62.9743C65.0515 18.6642 66.7415 20.3541 66.7415 22.4313V28.1692C66.7415 28.1726 66.7415 28.176 66.7415 28.1794V28.9914C66.7415 32.9505 63.5203 36.1712 59.5612 36.1712ZM67.6428 30.0964C67.6922 29.7346 67.718 29.3655 67.718 28.9905V28.3518C67.8948 28.1535 68.3113 27.7688 68.7552 27.9475C69.0052 28.0485 69.2898 27.9275 69.3909 27.6775C69.492 27.4275 69.3709 27.1428 69.1209 27.0417C68.6668 26.8586 68.178 26.8898 67.7185 27.1247V26.9567C67.7185 26.2072 68.2625 25.8806 68.7278 25.8288C69.1936 25.777 69.7962 25.9758 69.9612 26.7072C70.0066 26.9089 70.0301 27.1174 70.0301 27.3269C70.0301 28.7302 68.9915 29.8957 67.6428 30.0964Z" fill="#0E8388"/>
<path d="M51.3111 23.8381C50.7648 23.8381 50.3199 24.5768 50.3199 25.4846C50.3199 26.3923 50.7648 27.1311 51.3111 27.1311C51.8575 27.1311 52.3024 26.3923 52.3024 25.4846C52.3024 24.5768 51.8575 23.8381 51.3111 23.8381Z" fill="#0E8388"/>
<path d="M62.1062 23.8381C61.5598 23.8381 61.115 24.5768 61.115 25.4846C61.115 26.3923 61.5598 27.1311 62.1062 27.1311C62.6526 27.1311 63.0974 26.3923 63.0974 25.4846C63.0974 24.5768 62.6526 23.8381 62.1062 23.8381Z" fill="#0E8388"/>
<path d="M58.8937 29.4713C58.6452 29.3668 58.3591 29.483 58.2541 29.7316C57.9914 30.3551 57.3845 30.7575 56.7087 30.7575C56.0329 30.7575 55.4259 30.3546 55.1632 29.7316C55.0583 29.483 54.7721 29.3668 54.5236 29.4713C54.275 29.5763 54.1583 29.8624 54.2633 30.111C54.6789 31.0973 55.6388 31.7345 56.7087 31.7345C57.7785 31.7345 58.738 31.0973 59.154 30.111C59.259 29.8624 59.1423 29.5763 58.8937 29.4713Z" fill="#0E8388"/>
<path d="M55.6686 28.0658H57.7492C58.0187 28.0658 58.2375 27.847 58.2375 27.5775C58.2375 27.3079 58.0187 27.0892 57.7492 27.0892H55.6686C55.3991 27.0892 55.1803 27.3079 55.1803 27.5775C55.1803 27.847 55.3991 28.0658 55.6686 28.0658Z" fill="#0E8388"/>
<path d="M52.8529 46.7498C51.9908 46.2131 51.0581 45.7369 50.0684 45.3244C49.8969 44.4753 49.4037 42.0783 48.857 39.8411C48.7785 39.5199 48.4615 39.3267 48.1512 39.4103C47.8437 39.4931 47.6592 39.8167 47.737 40.1351C48.163 41.8785 48.5567 43.7224 48.7877 44.8381C46.1247 43.9172 43.1209 43.427 39.9997 43.427C36.8807 43.427 33.8683 43.9236 31.2079 44.8424C32.2422 39.7718 33.2081 36.3608 33.5934 35.8691C35.0352 35.0288 37.4246 34.5281 39.9997 34.5281C42.574 34.5281 44.9626 35.0284 46.4045 35.8682C46.4547 35.9373 46.6236 36.2172 46.9303 37.176C47.0288 37.4839 47.3468 37.6553 47.647 37.561C47.9568 37.4638 48.1299 37.1218 48.0284 36.8041C47.5414 35.2793 47.2638 35.0012 47.0213 34.8572C45.4167 33.9034 42.7918 33.334 39.9999 33.334C37.208 33.334 34.5832 33.9034 32.9782 34.8572C32.669 35.041 32.3802 35.4703 31.897 37.0406C31.6211 37.9373 31.304 39.1439 30.9543 40.6267C30.4858 42.6137 30.0818 44.579 29.9308 45.3275C28.6587 45.8565 27.4848 46.488 26.4412 47.2141C26.1684 47.4039 26.1014 47.7891 26.2956 48.0634C26.4781 48.3213 26.8254 48.3865 27.0817 48.2077C30.3594 45.9229 35.0285 44.6211 39.9999 44.6211C44.6389 44.6211 48.9918 45.7404 52.2567 47.7726C55.4301 49.748 57.1777 52.3419 57.1777 55.0766C57.1777 57.6193 55.6094 60.0935 52.8313 62.0028C52.935 61.321 52.9894 60.6225 52.9894 59.911C52.9894 56.1239 51.429 52.4937 48.7086 49.9513C48.6477 49.8944 48.5755 49.8515 48.4974 49.8255C45.8985 48.9653 42.9601 48.5106 39.9999 48.5106C37.042 48.5106 34.1039 48.9651 31.5028 49.8251C31.4241 49.8512 31.3516 49.8941 31.2903 49.9514C28.5703 52.494 27.0104 56.1242 27.0104 59.911C27.0104 60.6224 27.0647 61.321 27.1685 62.0028C24.3904 60.0936 22.822 57.6193 22.822 55.0765C22.822 53.3684 23.5189 51.6844 24.8436 50.177C25.0496 49.9426 25.0412 49.5821 24.8255 49.3573C24.5929 49.1148 24.2099 49.1222 23.9877 49.3749C22.4668 51.105 21.6666 53.065 21.6666 55.0764C21.6666 56.7849 22.2278 58.4281 23.3346 59.9606C24.3399 61.3526 25.7469 62.5844 27.5168 63.6255C29.0797 69.2259 34.0842 73.334 40 73.334C45.9157 73.334 50.9202 69.2259 52.4831 63.6255C54.2528 62.5843 55.6599 61.3526 56.6654 59.9606C57.7721 58.4281 58.3333 56.7849 58.3333 55.0764C58.3332 51.9069 56.387 48.9497 52.8529 46.7498ZM31.9738 50.9236C34.4332 50.1259 37.2051 49.7048 39.9999 49.7048C42.7965 49.7048 45.5682 50.1259 48.0252 50.9235C48.45 51.329 48.8422 51.7644 49.2013 52.2242C47.8556 52.5883 46.4432 52.8713 44.9926 53.0687L44.6904 51.6341C44.6225 51.3119 44.3154 51.1079 44.003 51.1777C43.6912 51.2479 43.4936 51.5659 43.5614 51.8881L43.8393 53.2075C42.5752 53.3384 41.2892 53.4057 40 53.4057C39.2544 53.4057 38.5102 53.382 37.7702 53.3378L37.8456 52.9312C37.9056 52.6074 37.7002 52.2945 37.3868 52.2326C37.0733 52.1704 36.7706 52.3829 36.7108 52.7067L36.6099 53.2508C36.2806 53.2208 35.9527 53.1863 35.6264 53.1476L36.0223 51.4212C36.0959 51.1004 35.9039 50.7786 35.5934 50.7026C35.2834 50.6269 34.9716 50.8249 34.898 51.1458L34.4746 52.9917C33.2106 52.8002 31.9787 52.5434 30.7983 52.224C31.1571 51.7644 31.5491 51.329 31.9738 50.9236ZM39.9999 72.1401C33.4746 72.1401 28.1659 66.6541 28.1659 59.911C28.1659 57.5333 28.8417 55.2238 30.0726 53.2592C33.1724 54.1482 36.5094 54.5998 39.9999 54.5998C43.4903 54.5998 46.8271 54.1481 49.9268 53.2592C51.1579 55.2238 51.8339 57.5331 51.8339 59.911C51.8339 66.6541 46.5251 72.1401 39.9999 72.1401Z" fill="#305986"/>
<path d="M34.8755 57.9697C33.2826 57.9697 31.9868 59.3089 31.9868 60.9549C31.9868 61.2847 32.2454 61.5519 32.5646 61.5519C32.8837 61.5519 33.1423 61.2846 33.1423 60.9549C33.1423 59.9673 33.9198 59.1639 34.8754 59.1639C35.8311 59.1639 36.6086 59.9673 36.6086 60.9549C36.6086 61.2847 36.8672 61.5519 37.1863 61.5519C37.5054 61.5519 37.7641 61.2846 37.7641 60.9549C37.7641 59.3088 36.4682 57.9697 34.8755 57.9697Z" fill="#305986"/>
<path d="M45.1239 57.9697C43.531 57.9697 42.2352 59.3089 42.2352 60.9549C42.2352 61.2847 42.4939 61.5519 42.813 61.5519C43.1321 61.5519 43.3907 61.2846 43.3907 60.9549C43.3907 59.9673 44.1682 59.1639 45.1238 59.1639C46.0795 59.1639 46.857 59.9673 46.857 60.9549C46.857 61.2847 47.1156 61.5519 47.4347 61.5519C47.7538 61.5519 48.0125 61.2846 48.0125 60.9549C48.0126 59.3088 46.7167 57.9697 45.1239 57.9697Z" fill="#305986"/>
<path d="M41.879 65.5479C41.6534 65.3148 41.2875 65.3148 41.0618 65.5479C40.778 65.8411 40.4008 66.0025 39.9997 66.0025C39.5984 66.0025 39.2214 65.8411 38.9376 65.5479C38.712 65.3148 38.3462 65.3148 38.1206 65.5479C37.8949 65.781 37.8949 66.159 38.1205 66.3922C38.6224 66.9109 39.2899 67.1965 39.9998 67.1965C40.7097 67.1965 41.377 66.9109 41.8789 66.3922C42.1047 66.159 42.1047 65.781 41.879 65.5479Z" fill="#305986"/>
<path d="M39.9974 16.2203V14.6514C39.9974 14.3781 39.7757 14.1563 39.5023 14.1563H32.0311C31.8416 12.6116 30.7936 10.8474 29.1466 9.33732C27.3222 7.6647 25.1483 6.66602 23.3318 6.66602C21.515 6.66602 19.3413 7.6647 17.5166 9.33732C15.8697 10.8474 14.8217 12.6116 14.6322 14.1563H7.16152C6.88813 14.1563 6.66663 14.3781 6.66663 14.6514V16.2203C6.66663 19.5427 9.27766 22.2661 12.5555 22.4474V23.1989C12.4934 23.1961 12.4317 23.1933 12.3696 23.1933C10.2387 23.1933 8.50531 24.9265 8.50531 27.0568C8.50531 29.1875 10.2387 30.9209 12.3696 30.9209C12.4751 30.9209 12.5804 30.9155 12.6849 30.9069C13.0395 33.1932 14.116 35.2864 15.8049 36.9333C16.1367 38.283 16.6886 39.0523 17.452 39.2247C17.5454 39.2458 17.642 39.2565 17.7422 39.2565C18.0398 39.2565 18.3688 39.1624 18.7353 38.9719C20.1755 39.6535 21.7202 39.9993 23.3315 39.9993C24.0187 39.9993 24.7071 39.934 25.3777 39.8051C26.2602 39.6357 27.1165 39.3547 27.9275 38.9709C28.2954 39.1619 28.6261 39.2562 28.9239 39.2562C29.0233 39.2562 29.1194 39.2456 29.212 39.2247C29.9757 39.0523 30.5273 38.2825 30.8594 36.9323C32.546 35.2885 33.622 33.199 33.9781 30.916C34.0404 30.9191 34.1029 30.9211 34.166 30.9211C36.2966 30.9211 38.03 29.1875 38.03 27.0568C38.03 24.9267 36.2966 23.1936 34.166 23.1936C34.1469 23.1936 34.1279 23.1948 34.1088 23.1954V22.4474C37.1486 22.2793 39.6142 19.9244 39.9562 16.9337L39.9567 16.9293C39.9834 16.6966 39.9974 16.4601 39.9974 16.2203ZM18.1857 10.0672C19.8324 8.55734 21.756 7.65606 23.3318 7.65606C24.9072 7.65606 26.8309 8.55734 28.4778 10.0672C29.8902 11.3622 30.8299 12.8822 31.0313 14.1566H15.6319C15.8333 12.8822 16.7733 11.3622 18.1857 10.0672ZM12.3696 29.9308C10.7847 29.9308 9.49535 28.6415 9.49535 27.0568C9.49535 25.4725 10.7847 24.1834 12.3696 24.1834C12.4319 24.1834 12.494 24.1854 12.5555 24.1895V25.8272C11.8333 25.8305 11.0889 26.1268 10.7262 26.9605C10.6171 27.2112 10.7318 27.5027 10.9826 27.6118C11.0469 27.6397 11.1138 27.6532 11.1797 27.6532C11.3709 27.6532 11.5527 27.5418 11.6339 27.3554C11.8236 26.9198 12.2236 26.817 12.5555 26.8158V29.2226C12.5555 29.4573 12.5639 29.6908 12.5784 29.9224C12.5092 29.9275 12.4395 29.9308 12.3696 29.9308ZM28.994 38.2591C28.8621 38.2891 28.093 38.3183 25.9443 35.952C24.7483 34.6351 23.7435 33.2491 23.7336 33.2351C23.6405 33.1064 23.4912 33.0302 23.3323 33.0302C23.1736 33.0302 23.0243 33.1064 22.9312 33.2351C22.9246 33.2443 22.2682 34.1499 21.3865 35.1905C21.2098 35.3991 21.2357 35.7114 21.4443 35.8881C21.6528 36.0651 21.9651 36.0392 22.1418 35.8306C22.6309 35.2534 23.0477 34.7231 23.332 34.3516C23.7425 34.8884 24.4281 35.7549 25.2061 36.6119C25.8558 37.3278 26.4362 37.8931 26.9562 38.3145C26.3863 38.5421 25.7956 38.7168 25.191 38.8328C24.5817 38.9501 23.9561 39.0093 23.3315 39.0093C22.0699 39.0093 20.8535 38.7761 19.7042 38.3155C20.0382 38.045 20.3975 37.7146 20.7853 37.3227C20.9778 37.1284 20.9761 36.8148 20.7818 36.6226C20.5875 36.4303 20.2739 36.4318 20.0816 36.6264C18.4055 38.3204 17.7786 38.2838 17.6702 38.2593C17.0774 38.1253 16.7049 36.7419 16.5541 35.4916C16.3649 33.9251 16.4172 32.1528 16.5533 31.0915C16.5787 30.8932 16.6693 30.603 17.1601 30.3756C18.5797 29.718 21.6434 30.3011 23.063 31.222C23.227 31.3283 23.4381 31.3283 23.6018 31.222C25.3055 30.1165 28.3214 29.8281 29.5037 30.3756C29.9948 30.603 30.0853 30.8932 30.1107 31.0913C30.2468 32.1528 30.2992 33.9251 30.11 35.4919C29.9592 36.7416 29.5866 38.1251 28.994 38.2591ZM31.1443 35.1214C31.2806 33.6008 31.2226 31.9781 31.0929 30.9654C31.0085 30.308 30.6028 29.7935 29.92 29.4771C28.2492 28.7033 25.0758 29.2478 23.3323 30.2289C21.5884 29.2478 18.4146 28.7035 16.744 29.4774C16.0612 29.7938 15.6556 30.3082 15.5714 30.9656C15.4417 31.9783 15.3835 33.6008 15.52 35.1214C14.238 33.4345 13.5455 31.3896 13.5455 29.2226V22.4573H33.119V29.2226C33.119 31.3901 32.4263 33.435 31.1443 35.1214ZM34.166 24.1836C35.7509 24.1836 37.04 25.4725 37.04 27.0568C37.04 28.6417 35.7509 29.9311 34.166 29.9311C34.1391 29.9311 34.1124 29.9303 34.0856 29.9296C34.1007 29.6953 34.109 29.4596 34.109 29.2226V26.8259C34.4297 26.787 35.0045 26.8041 35.2443 27.3554C35.3254 27.5418 35.5075 27.6532 35.6985 27.6532C35.7644 27.6532 35.8315 27.6397 35.8956 27.612C36.1463 27.5029 36.2613 27.2112 36.1522 26.9607C35.7275 25.9836 34.7987 25.7848 34.109 25.8326V24.1851C34.1281 24.1849 34.1469 24.1836 34.166 24.1836ZM33.7604 21.4673H12.9037C10.4073 21.4673 8.31407 19.7146 7.78637 17.3754H33.2207C33.4941 17.3754 33.7156 17.1536 33.7156 16.8802C33.7156 16.6069 33.4941 16.3854 33.2207 16.3854H7.66099C7.65921 16.3304 7.65667 16.2757 7.65667 16.2203V15.1463H39.0074V16.2203C39.0074 16.2757 39.0048 16.3304 39.0033 16.3854H35.2011C34.9277 16.3854 34.7059 16.6069 34.7059 16.8802C34.7059 17.1536 34.9277 17.3754 35.2011 17.3754H38.8777C38.35 19.7146 36.2567 21.4673 33.7604 21.4673Z" fill="#FDB034"/>
<path d="M20.7609 26.3348C20.7609 27.1471 20.1022 27.8058 19.29 27.8058C18.4777 27.8058 17.819 27.1471 17.819 26.3348C17.819 25.5226 18.4777 24.8639 19.29 24.8639C20.1022 24.8639 20.7609 25.5226 20.7609 26.3348Z" fill="#FDB034"/>
<path d="M28.845 26.3348C28.845 27.1471 28.1866 27.8058 27.3741 27.8058C26.5618 27.8058 25.9031 27.1471 25.9031 26.3348C25.9031 25.5226 26.5618 24.8639 27.3741 24.8639C28.1866 24.8639 28.845 25.5226 28.845 26.3348Z" fill="#FDB034"/>
</svg>
