<svg width="18" height="18" viewBox="0 0 18 18" fill="#525252" xmlns="http://www.w3.org/2000/svg">
<path d="M16.9938 1.38222C12.6334 -0.363598 9.84508 1.90348 8.92667 2.86326C8.19028 2.30063 7.31324 2.01931 6.32863 2.01931C3.5072 2.01931 1.57108 0.778214 1.55453 0.761666C1.39733 0.654104 1.19875 0.637556 1.03327 0.720296C0.859518 0.794762 0.743682 0.960242 0.710586 1.14227C0.694038 1.28293 0.272064 4.68354 2.43158 7.14919C3.78024 8.68816 5.81564 9.48246 8.4716 9.52383V17.2186C8.4716 17.442 8.65363 17.6323 8.87702 17.6323H9.15007C9.37346 17.6323 9.56377 17.4503 9.56377 17.2186V10.1775C16.9276 9.80515 17.3248 1.98622 17.333 1.91175C17.3413 1.68008 17.2089 1.46496 16.9938 1.38222ZM6.60995 5.22135C6.39482 5.43648 6.39482 5.77571 6.60995 5.99083L7.84277 7.22366C8.17373 7.55462 8.38058 7.97659 8.44677 8.43166C6.13006 8.39029 4.38424 7.7201 3.2507 6.42936C2.0096 5.0145 1.78621 3.11976 1.76138 2.11033C2.67152 2.54058 4.27668 3.11148 6.32036 3.11148C8.81083 3.11148 9.61341 5.48612 9.78716 6.18113C9.55549 6.479 9.34037 6.80168 9.14179 7.14919C9.00113 6.90097 8.82738 6.6693 8.61226 6.46245L7.37943 5.22963C7.17258 5.0145 6.82507 5.0145 6.60995 5.22963V5.22135ZM13.5932 4.77456C13.8745 4.67527 14.0317 4.36086 13.9324 4.07954C13.8331 3.79822 13.5187 3.64102 13.2374 3.74031C12.2528 4.08781 11.3758 4.6008 10.6394 5.271C10.4491 4.78283 10.1595 4.17883 9.70442 3.62447C10.4408 2.83017 12.6169 0.993338 16.2243 2.25926C16.0589 3.66584 15.0825 8.77917 9.58031 9.10186V8.76262C10.3912 6.73549 11.715 5.4282 13.6015 4.77456H13.5932Z" fill="inherit"/>
</svg>
