<svg width="18" height="18" viewBox="0 0 18 18" fill="#525252" xmlns="http://www.w3.org/2000/svg">
<path d="M4.72541 8.36251C4.40519 8.36251 4.1456 8.6221 4.1456 8.94232C4.1456 9.26254 4.40519 9.52213 4.72541 9.52213H10.137C10.4572 9.52213 10.7168 9.26254 10.7168 8.94232C10.7168 8.6221 10.4572 8.36251 10.137 8.36251H4.72541Z" fill="inherit"/>
<path fill-rule="evenodd" clip-rule="evenodd" d="M16.5148 13.7663V13.3075C16.996 13.095 17.3334 12.6184 17.3334 12.0572V10.4646C17.3334 9.90347 16.996 9.4269 16.5148 9.21434V8.56352C16.5148 6.64303 14.9488 5.07693 13.0283 5.07693H11.3739V2.72056C11.3739 1.28857 9.9413 0.294813 8.60176 0.802285L2.46383 3.1214C1.37917 3.53181 0.666748 4.56798 0.666748 5.72784V13.7663C0.666748 15.6868 2.23284 17.2529 4.15333 17.2529H13.0283C14.9488 17.2529 16.5148 15.6868 16.5148 13.7663ZM9.01276 1.88662C9.59035 1.6677 10.2143 2.09628 10.2143 2.72056V5.07693H4.15333C3.26049 5.07693 2.44426 5.41541 1.82636 5.97063V5.72784C1.82636 5.04787 2.24278 4.44502 2.87421 4.20598L9.01276 1.88662ZM1.82636 8.56352V13.7663C1.82636 15.0464 2.87328 16.0933 4.15333 16.0933H13.0283C14.3083 16.0933 15.3552 15.0464 15.3552 13.7663V13.4262H14.4662C14.0044 13.4262 13.5483 13.283 13.1684 13.0285C13.1562 13.0203 13.144 13.0119 13.1319 13.0035C12.6339 12.6562 12.2742 12.1142 12.2179 11.4517C12.1555 10.7851 12.4093 10.1624 12.849 9.73022C13.2445 9.32682 13.7868 9.09633 14.3725 9.09633H15.3552V8.56352C15.3552 7.28346 14.3083 6.23655 13.0283 6.23655H10.8362C10.8223 6.23754 10.8082 6.23805 10.7941 6.23805C10.7799 6.23805 10.7659 6.23754 10.752 6.23655H4.15333C2.87328 6.23655 1.82636 7.28346 1.82636 8.56352ZM14.4653 12.2659C14.2201 12.2659 13.994 12.1901 13.8118 12.0653C13.5642 11.8954 13.3977 11.6352 13.3741 11.3526L13.3735 11.3457C13.3446 11.0421 13.4595 10.7563 13.6652 10.5555L13.6756 10.5451C13.8517 10.3642 14.0958 10.2566 14.3734 10.2566H15.935C15.9441 10.2566 15.953 10.2564 15.9619 10.2559H15.9672C16.0922 10.264 16.1738 10.3617 16.1738 10.4646V12.0572C16.1738 12.1601 16.0922 12.2579 15.9672 12.2659H14.4653Z" fill="inherit"/>
</svg>
