<svg width="80" height="80" viewBox="0 0 80 80" fill="none" xmlns="http://www.w3.org/2000/svg">
<path fill-rule="evenodd" clip-rule="evenodd" d="M26.0607 32.1215C25.3907 32.1215 24.8486 32.6637 24.8486 33.3336V36.97H22.4243V33.3336C22.4243 31.3248 24.0518 29.6973 26.0607 29.6973H38.1819C40.1907 29.6973 41.8183 31.3248 41.8183 33.3336V36.97H39.394V33.3336C39.394 32.6637 38.8518 32.1215 38.1819 32.1215H26.0607Z" fill="#FDB034"/>
<path fill-rule="evenodd" clip-rule="evenodd" d="M10.3031 35.7578C8.29435 35.7578 6.66675 37.3854 6.66675 39.3942V67.273C6.66675 69.2817 8.29435 70.9093 10.3031 70.9093H53.9395C55.9482 70.9093 57.5758 69.2817 57.5758 67.273V39.3942C57.5758 37.3854 55.9482 35.7578 53.9395 35.7578H10.3031ZM9.09099 39.3942C9.09099 38.7242 9.63313 38.1821 10.3031 38.1821H53.9395C54.0972 38.1821 54.2478 38.2116 54.386 38.2673C54.5091 38.3158 54.6225 38.3845 54.7219 38.4685C54.8388 38.5668 54.9367 38.6875 55.0095 38.8236C55.1001 38.9941 55.1516 39.1882 55.1516 39.3942V40.8004L48.8199 46.7143C46.351 49.0201 43.0976 50.3033 39.7189 50.3033H37.9549L38.1106 49.6806C38.1585 49.4841 38.1819 49.2888 38.1819 49.0911C38.1819 47.7524 37.0961 46.6669 35.7577 46.6669H28.4849C27.1464 46.6669 26.0607 47.7524 26.0607 49.0911C26.0607 49.2876 26.0838 49.4865 26.1341 49.6842L26.2888 50.3033H24.5236C21.145 50.3033 17.8916 49.0201 15.4227 46.7143L9.09099 40.8004V39.3942ZM26.8952 52.7275H24.5236C20.5304 52.7275 16.6857 51.2112 13.7678 48.4863L9.09099 44.1172V67.273C9.09099 67.9429 9.63313 68.4851 10.3031 68.4851H53.9395C54.6095 68.4851 55.1516 67.9429 55.1516 67.273V44.1172L50.4747 48.4863C47.5569 51.2112 43.7119 52.7275 39.7189 52.7275H37.3486L36.894 54.5445C36.6247 55.5897 35.6766 56.3639 34.5455 56.3639H29.6971C28.5666 56.3639 27.6167 55.5897 27.348 54.5374L26.8952 52.7275ZM28.4849 49.0911L35.7571 49.0994L34.5455 53.9396H29.6973L28.4849 49.0911ZM29.6973 53.9396L29.6997 53.9491L28.5237 54.2427L29.6973 53.9396ZM35.7571 49.0994C35.7571 49.0994 35.7577 49.0959 35.7577 49.0911L35.7571 49.0994Z" fill="#0E8388"/>
<path d="M17.5757 9.09026C17.5757 7.75148 18.6614 6.66602 19.9999 6.66602H70.909C72.2475 6.66602 73.3333 7.75148 73.3333 9.09026V11.5145C73.3333 12.8533 72.2475 13.9387 70.909 13.9387V45.4539C70.909 47.4627 69.2814 49.0903 67.2727 49.0903H60.2447C60.1109 49.0903 60.0023 48.9814 60.0023 48.8476V46.9087C60.0023 46.8495 60.0239 46.795 60.0594 46.7524C60.1038 46.6992 60.1704 46.666 60.2447 46.666H67.2727C67.9426 46.666 68.4848 46.1239 68.4848 45.4539V13.9387H63.8787C63.7449 13.9387 63.6363 13.8304 63.6363 13.6961V11.7572C63.6363 11.7122 63.6484 11.6702 63.6697 11.6341C63.7118 11.5624 63.7896 11.5145 63.8787 11.5145H70.909V9.09026H19.9999V11.5145H42.7879C42.8388 11.5145 42.8861 11.5305 42.9252 11.5571C42.9888 11.6009 43.0302 11.6743 43.0302 11.7572V13.6961C43.0302 13.8304 42.9216 13.9387 42.7879 13.9387H22.4242V28.2415C22.4242 28.3753 22.3156 28.4842 22.1818 28.4842H20.2423C20.1085 28.4842 19.9999 28.3753 19.9999 28.2415V13.9387C18.6614 13.9387 17.5757 12.8533 17.5757 11.5145V9.09026Z" fill="#305986"/>
<path d="M54.1818 11.5156C54.0481 11.5156 53.9395 11.6239 53.9395 11.7583V13.6972C53.9395 13.7641 53.9664 13.8245 54.0102 13.8683C54.0543 13.9126 54.1149 13.9399 54.1818 13.9399H56.1213C56.2551 13.9399 56.3637 13.8316 56.3637 13.6972V11.7583C56.3637 11.6239 56.2551 11.5156 56.1213 11.5156H54.1818Z" fill="#FDB034"/>
<path d="M59.0303 11.5156C58.8965 11.5156 58.7879 11.6239 58.7879 11.7583V13.6972C58.7879 13.8316 58.8965 13.9399 59.0303 13.9399H60.9698C61.1036 13.9399 61.2122 13.8316 61.2122 13.6972V11.7583C61.2122 11.6239 61.1036 11.5156 60.9698 11.5156H59.0303Z" fill="#FDB034"/>
<path d="M36.9696 18.5449C36.9696 18.6792 36.861 18.7875 36.7272 18.7875H25.0908C24.957 18.7875 24.8484 18.6792 24.8484 18.5449V16.6059C24.8484 16.4716 24.957 16.3633 25.0908 16.3633H36.7272C36.7722 16.3633 36.8142 16.3751 36.8503 16.3964C36.9217 16.4384 36.9696 16.5166 36.9696 16.6059V18.5449Z" fill="#FDB034"/>
<path d="M39.3938 23.3933C39.3938 23.5271 39.2852 23.636 39.1515 23.636H25.0908C25.0094 23.636 24.9375 23.5958 24.8934 23.5342C24.865 23.494 24.8484 23.4454 24.8484 23.3933V21.4544C24.8484 21.3201 24.957 21.2118 25.0908 21.2118H39.1515C39.2222 21.2118 39.2861 21.242 39.3305 21.2905C39.3699 21.3337 39.3938 21.3911 39.3938 21.4544V23.3933Z" fill="#FDB034"/>
<path d="M45.4077 23.5366C45.437 23.4963 45.4544 23.4466 45.4544 23.3933V21.4544C45.4544 21.3201 45.3458 21.2118 45.2121 21.2118H42.0604C41.9267 21.2118 41.8181 21.3201 41.8181 21.4544V23.3933C41.8181 23.5271 41.9267 23.636 42.0604 23.636H45.2121C45.2923 23.636 45.3636 23.5969 45.4077 23.5366Z" fill="#FDB034"/>
<path fill-rule="evenodd" clip-rule="evenodd" d="M57.5757 16.3633C52.8896 16.3633 49.0908 20.1618 49.0908 24.8481C49.0908 29.5344 52.8896 33.333 57.5757 33.333C62.2617 33.333 66.0605 29.5344 66.0605 24.8481C66.0605 20.1618 62.2617 16.3633 57.5757 16.3633ZM56.3635 18.9089C53.5972 19.4705 51.5151 21.9161 51.5151 24.8481C51.5151 28.1957 54.2284 30.9087 57.5757 30.9087C58.8109 30.9087 59.9597 30.5394 60.9179 29.9049L56.3635 25.35V18.9089ZM62.6322 28.1909C63.2667 27.2333 63.6363 26.0839 63.6363 24.8481C63.6363 21.9161 61.5541 19.4705 58.7878 18.9089V24.3462L62.6322 28.1909Z" fill="#FDB034"/>
</svg>
