<svg width="17" height="18" viewBox="0 0 17 18" fill="#525252" xmlns="http://www.w3.org/2000/svg">
<path d="M14.7288 3.41215L10.5892 1.10983C9.52721 0.520682 7.86055 0.520682 6.80628 1.10983L2.6745 3.41215C1.55047 4.03231 0.666748 5.52843 0.666748 6.81526V11.1951C0.666748 12.4819 1.55047 13.9703 2.6745 14.5905L6.81403 16.8928C7.34117 17.1874 8.02334 17.3346 8.70551 17.3346C9.38768 17.3346 10.0698 17.1874 10.597 16.8928L14.7365 14.5905C15.8605 13.9703 16.7443 12.4742 16.7443 11.1873V6.8075C16.7443 5.52068 15.8605 4.03231 14.7365 3.41215H14.7288ZM7.37217 2.12533C7.72101 1.93153 8.20938 1.83076 8.69 1.83076C9.17062 1.83076 9.66675 1.93153 10.0156 2.12533L14.1551 4.42766C14.4342 4.5827 14.6978 4.83851 14.9226 5.13309L12.6047 6.47417L6.20938 2.7765L7.37993 2.12533H7.37217ZM3.23264 4.42766L5.02334 3.43541L11.4574 7.15634L8.69 8.76099L2.45745 5.14084C2.68225 4.83851 2.95357 4.5827 3.23264 4.42766ZM3.23264 13.5749C2.4807 13.1563 1.82954 12.0478 1.82954 11.1951V6.81526C1.82954 6.61371 1.8683 6.4044 1.93031 6.18735L8.11636 9.76874V16.1253C7.84504 16.0788 7.58148 16.0013 7.37217 15.885L3.23264 13.5827V13.5749ZM15.5737 11.1951C15.5737 12.0478 14.9148 13.1641 14.1706 13.5749L10.0311 15.8773C9.82179 15.9936 9.55822 16.0711 9.27915 16.1176V9.76099L11.9923 8.18735V9.96254C11.9923 10.2804 12.2559 10.5439 12.5737 10.5439C12.8916 10.5439 13.1551 10.2804 13.1551 9.96254V7.52068L15.4652 6.1796C15.535 6.39665 15.5737 6.61371 15.5737 6.81526V11.1951Z" fill="inherit"/>
</svg>
