<svg width="34" height="34" viewBox="0 0 34 34" fill="none" xmlns="http://www.w3.org/2000/svg">
<path d="M0.5 8C0.5 3.85786 3.85786 0.5 8 0.5H26C30.1421 0.5 33.5 3.85786 33.5 8V26C33.5 30.1421 30.1421 33.5 26 33.5H8C3.85786 33.5 0.5 30.1421 0.5 26V8Z" stroke="#305986"/>
<path fill-rule="evenodd" clip-rule="evenodd" d="M22.8689 12.0712C23.5114 12.2443 24.018 12.7508 24.1909 13.3934C24.5123 14.5671 24.4999 17.0136 24.4999 17.0136C24.4999 17.0136 24.4999 19.4476 24.1911 20.6214C24.018 21.2639 23.5115 21.7705 22.8689 21.9434C21.6951 22.2524 17 22.2524 17 22.2524C17 22.2524 12.3171 22.2524 11.131 21.9312C10.4884 21.7582 9.98191 21.2515 9.80887 20.6091C9.5 19.4476 9.5 17.0012 9.5 17.0012C9.5 17.0012 9.5 14.5671 9.80887 13.3934C9.98179 12.7509 10.5008 12.2319 11.1309 12.059C12.3047 11.75 16.9999 11.75 16.9999 11.75C16.9999 11.75 21.6951 11.75 22.8689 12.0712ZM19.4093 17.0012L15.5049 19.25V14.7525L19.4093 17.0012Z" fill="#305986"/>
</svg>
