<svg width="60" height="18" viewBox="0 0 60 18" fill="none" xmlns="http://www.w3.org/2000/svg">
<path fill-rule="evenodd" clip-rule="evenodd" d="M43.9992 0.775004C42.8584 1.45731 40.1678 3.0513 39.1633 3.64489C38.5512 3.96701 37.1334 4.10767 36.3315 2.99081C36.3171 2.97065 35.2649 1.61265 35.222 1.56151C35.1918 1.52538 34.5116 0.483208 32.9959 0.450625C32.772 0.445141 31.6585 0.439012 30.5721 1.0768C29.1281 1.92896 25.7697 3.91217 25.7697 3.91217C25.7697 3.91217 25.7687 3.91395 25.767 3.91395C24.3865 4.72981 23.3109 5.36502 23.3109 5.36502L24.5817 6.97724C25.1762 7.73971 26.5169 8.3296 27.6795 7.64019C27.6795 7.64019 31.9754 5.07065 31.9911 5.06323C33.849 4.01073 35.2826 4.01073 36.2341 4.40237C37.0881 4.77514 37.8311 5.70392 37.8311 5.70392C37.8311 5.70392 38.8021 6.94691 38.9734 7.16435C39.5259 7.86682 40.4404 7.59083 40.4404 7.59083C40.4404 7.59083 40.7793 7.55115 41.2901 7.2379C41.2901 7.2379 45.4512 4.74578 45.4538 4.74498C46.7751 3.94427 47.987 3.79474 48.6063 3.85362C50.5461 4.03573 51.1488 5.43551 51.9898 6.41203C52.4852 6.98643 52.9321 7.31259 53.6156 7.29613C54.0648 7.28629 54.5721 7.00498 54.6469 6.95417L59.6297 3.98395C59.6297 3.98395 59.1185 3.18857 58.0714 1.95106C57.1343 0.846945 56.1389 1.3465 55.3453 1.7525C55.0119 1.92283 53.8038 2.75289 52.607 3.33197C51.7542 3.74442 50.5293 3.62038 49.8579 2.76354C49.8178 2.71144 48.7317 1.35327 48.6175 1.18616C48.1792 0.619025 47.3239 0.111084 46.2278 0.111084C45.5613 0.111084 44.805 0.29884 43.9992 0.775004Z" fill="url(#paint0_linear_295_15325)"/>
<path fill-rule="evenodd" clip-rule="evenodd" d="M0.432826 12.3876C0.432826 11.5007 0.41721 10.7565 0.370361 10.0929H1.99569L2.0719 11.2329H2.1175C2.48588 10.6305 3.15957 9.91801 4.4162 9.91801C5.39705 9.91801 6.16318 10.4892 6.48441 11.3436H6.51595C6.7769 10.9163 7.08235 10.6 7.43449 10.3776C7.84864 10.0772 8.32384 9.91801 8.93677 9.91801C10.1776 9.91801 11.4333 10.7884 11.4333 13.2579V17.8H9.59484V13.5433C9.59484 12.2614 9.16648 11.5007 8.26293 11.5007C7.6183 11.5007 7.14278 11.9764 6.94493 12.5306C6.89839 12.72 6.85248 12.9576 6.85248 13.1776V17.8H5.01336V13.3368C5.01336 12.2614 4.60032 11.5007 3.72675 11.5007C3.02183 11.5007 2.54741 12.0714 2.37845 12.6084C2.3013 12.7995 2.27038 13.0205 2.27038 13.2416V17.8H0.432826V12.3876Z" fill="#003A70"/>
<path fill-rule="evenodd" clip-rule="evenodd" d="M18.5964 15.9488C18.5964 16.6448 18.6271 17.3242 18.7037 17.8004H17.0023L16.8802 16.946H16.8337C16.3743 17.548 15.5928 17.9746 14.6276 17.9746C13.1256 17.9746 12.2833 16.8518 12.2833 15.6799C12.2833 13.7325 13.9528 12.7521 16.7111 12.7678V12.6407C16.7111 12.134 16.5117 11.2957 15.1941 11.2957C14.4583 11.2957 13.6919 11.5333 13.1865 11.8651L12.8183 10.6C13.371 10.2511 14.3371 9.91836 15.516 9.91836C17.9073 9.91836 18.5964 11.4862 18.5964 13.1631V15.9488ZM16.757 14.034C15.4242 14.002 14.1527 14.3027 14.1527 15.4741C14.1527 16.233 14.6276 16.5819 15.2254 16.5819C15.9753 16.5819 16.5278 16.0753 16.6958 15.5215C16.7414 15.3791 16.757 15.2202 16.757 15.0941V14.034Z" fill="#003A70"/>
<path fill-rule="evenodd" clip-rule="evenodd" d="M19.8994 12.3876C19.8994 11.5007 19.8826 10.7565 19.8379 10.0929H21.4913L21.5838 11.2481H21.6291C21.9512 10.6474 22.7633 9.91801 24.0041 9.91801C25.307 9.91801 26.6553 10.7884 26.6553 13.2263V17.8H24.7709V13.4484C24.7709 12.3398 24.3725 11.5007 23.3458 11.5007C22.5949 11.5007 22.0741 12.0548 21.8744 12.6406C21.8141 12.8152 21.7982 13.0531 21.7982 13.2731V17.8H19.8994V12.3876Z" fill="#003A70"/>
<path fill-rule="evenodd" clip-rule="evenodd" d="M34.8264 6.99605V15.6314C34.8264 16.4226 34.8565 17.2787 34.8873 17.8004H33.2017L33.1262 16.5819H33.095C32.6504 17.437 31.745 17.9746 30.6583 17.9746C28.8816 17.9746 27.4715 16.408 27.4715 14.034C27.4559 11.454 29.0187 9.91836 30.8113 9.91836C31.8376 9.91836 32.5737 10.3621 32.9103 10.9323H32.9413V6.99605H34.8264ZM32.9413 13.3048C32.9413 13.1481 32.9256 12.9573 32.8961 12.7996C32.7272 12.0398 32.1293 11.4222 31.2712 11.4222C30.0608 11.4222 29.3865 12.5307 29.3865 13.9709C29.3865 15.3791 30.0608 16.408 31.2559 16.408C32.0217 16.408 32.6963 15.8701 32.88 15.0315C32.9256 14.8566 32.9413 14.667 32.9413 14.4605V13.3048Z" fill="#003A70"/>
<path fill-rule="evenodd" clip-rule="evenodd" d="M36.158 17.8H38.0599V10.0933H36.158V17.8Z" fill="#003A70"/>
<path fill-rule="evenodd" clip-rule="evenodd" d="M39.3918 12.5774C39.3918 11.5333 39.3759 10.7884 39.3301 10.0927H40.97L41.03 11.5641H41.0935C41.4606 10.4721 42.3342 10.0927 43.1306 10.0927C43.3141 10.0927 43.4213 10.0602 43.5749 10.0927V11.8025C43.4213 11.7709 43.2531 11.7392 43.0232 11.7392C42.1193 11.7392 41.5059 12.3401 41.3376 13.21C41.3078 13.3842 41.2768 13.5908 41.2768 13.8134V17.8003H39.3918V12.5774Z" fill="#003A70"/>
<path fill-rule="evenodd" clip-rule="evenodd" d="M44.4484 17.8H46.3474V10.0933H44.4484V17.8Z" fill="#003A70"/>
<defs>
<linearGradient id="paint0_linear_295_15325" x1="0.370361" y1="17.9746" x2="59.6297" y2="17.9746" gradientUnits="userSpaceOnUse">
<stop stop-color="#FFCA06"/>
<stop offset="0.330844" stop-color="#FBAA18"/>
<stop offset="0.694742" stop-color="#FFC907"/>
<stop offset="1" stop-color="#FAA619"/>
</linearGradient>
</defs>
</svg>
